G04 #@! TF.GenerationSoftware,KiCad,Pcbnew,(5.1.2-1)-1*
G04 #@! TF.CreationDate,2019-05-24T14:25:54+02:00*
G04 #@! TF.ProjectId,TriMod CBM Adapter (Standard Version),5472694d-6f64-4204-9342-4d2041646170,1.1*
G04 #@! TF.SameCoordinates,Original*
G04 #@! TF.FileFunction,Soldermask,Top*
G04 #@! TF.FilePolarity,Negative*
%FSLAX46Y46*%
G04 Gerber Fmt 4.6, Leading zero omitted, Abs format (unit mm)*
G04 Created by KiCad (PCBNEW (5.1.2-1)-1) date 2019-05-24 14:25:54*
%MOMM*%
%LPD*%
G04 APERTURE LIST*
%ADD10C,2.127200*%
%ADD11O,2.127200X2.127200*%
%ADD12R,2.127200X2.127200*%
%ADD13C,2.000000*%
%ADD14O,2.000000X2.000000*%
%ADD15R,2.000000X2.000000*%
%ADD16R,2.100000X2.100000*%
%ADD17O,2.100000X2.100000*%
%ADD18O,2.600000X1.900000*%
G04 APERTURE END LIST*
D10*
X98310700Y-72110600D03*
D11*
X95770700Y-72110600D03*
X93230700Y-72110600D03*
X90690700Y-72110600D03*
X88150700Y-72110600D03*
X85610700Y-72110600D03*
X83070700Y-72110600D03*
X80530700Y-72110600D03*
X77990700Y-72110600D03*
X75450700Y-72110600D03*
X72910700Y-72110600D03*
X70370700Y-72110600D03*
X98310700Y-74650600D03*
X95770700Y-74650600D03*
X93230700Y-74650600D03*
X90690700Y-74650600D03*
X88150700Y-74650600D03*
X85610700Y-74650600D03*
X83070700Y-74650600D03*
X80530700Y-74650600D03*
X77990700Y-74650600D03*
X75450700Y-74650600D03*
X72910700Y-74650600D03*
D12*
X70370700Y-74650600D03*
D13*
X86233000Y-86169500D03*
X88733000Y-86169500D03*
X100290000Y-110744000D03*
X97790000Y-110744000D03*
X86233000Y-110744000D03*
X88733000Y-110744000D03*
X77176000Y-78422500D03*
X74676000Y-78422500D03*
X115570000Y-127000000D03*
X113070000Y-127000000D03*
X100290000Y-78549500D03*
X97790000Y-78549500D03*
X74739500Y-103950000D03*
X77239500Y-103950000D03*
D14*
X115443000Y-68961000D03*
D15*
X115443000Y-61341000D03*
X115443000Y-71120000D03*
D14*
X115443000Y-78740000D03*
D16*
X109220000Y-82550000D03*
D17*
X109220000Y-85090000D03*
X109220000Y-87630000D03*
X109220000Y-90170000D03*
X109220000Y-92710000D03*
X109220000Y-95250000D03*
X109220000Y-97790000D03*
X109220000Y-100330000D03*
X109220000Y-102870000D03*
X109220000Y-105410000D03*
X109220000Y-107950000D03*
X109220000Y-110490000D03*
X109220000Y-113030000D03*
X109220000Y-115570000D03*
X109220000Y-118110000D03*
X109220000Y-120650000D03*
X109220000Y-123190000D03*
X109220000Y-125730000D03*
X109220000Y-128270000D03*
X109220000Y-130810000D03*
D16*
X110808000Y-61849000D03*
D17*
X108268000Y-61849000D03*
D13*
X118554000Y-74358500D03*
D14*
X126174000Y-74358500D03*
D13*
X126174000Y-65405000D03*
D14*
X118554000Y-65405000D03*
X126174000Y-68389500D03*
D13*
X118554000Y-68389500D03*
D14*
X126174000Y-77343000D03*
D13*
X118554000Y-77343000D03*
X118554000Y-62420500D03*
D14*
X126174000Y-62420500D03*
D15*
X110808000Y-68389500D03*
D14*
X108268000Y-76009500D03*
X108268000Y-68389500D03*
X110808000Y-76009500D03*
D18*
X91313000Y-90170000D03*
X91313000Y-92710000D03*
X91313000Y-95250000D03*
X91313000Y-97790000D03*
X91313000Y-100330000D03*
X91313000Y-102870000D03*
X91313000Y-105410000D03*
X83693000Y-105410000D03*
X83693000Y-102870000D03*
X83693000Y-100330000D03*
X83693000Y-97790000D03*
X83693000Y-95250000D03*
X83693000Y-92710000D03*
X83693000Y-90170000D03*
X95250000Y-115570000D03*
X95250000Y-118110000D03*
X95250000Y-120650000D03*
X95250000Y-123190000D03*
X95250000Y-125730000D03*
X95250000Y-128270000D03*
X95250000Y-130810000D03*
X102870000Y-130810000D03*
X102870000Y-128270000D03*
X102870000Y-125730000D03*
X102870000Y-123190000D03*
X102870000Y-120650000D03*
X102870000Y-118110000D03*
X102870000Y-115570000D03*
X91313000Y-115570000D03*
X91313000Y-118110000D03*
X91313000Y-120650000D03*
X91313000Y-123190000D03*
X91313000Y-125730000D03*
X91313000Y-128270000D03*
X91313000Y-130810000D03*
X83693000Y-130810000D03*
X83693000Y-128270000D03*
X83693000Y-125730000D03*
X83693000Y-123190000D03*
X83693000Y-120650000D03*
X83693000Y-118110000D03*
X83693000Y-115570000D03*
X72199500Y-82550000D03*
X72199500Y-85090000D03*
X72199500Y-87630000D03*
X72199500Y-90170000D03*
X72199500Y-92710000D03*
X72199500Y-95250000D03*
X72199500Y-97790000D03*
X79819500Y-97790000D03*
X79819500Y-95250000D03*
X79819500Y-92710000D03*
X79819500Y-90170000D03*
X79819500Y-87630000D03*
X79819500Y-85090000D03*
X79819500Y-82550000D03*
X106680000Y-82550000D03*
X106680000Y-85090000D03*
X106680000Y-87630000D03*
X106680000Y-90170000D03*
X106680000Y-92710000D03*
X106680000Y-95250000D03*
X106680000Y-97790000D03*
X106680000Y-100330000D03*
X106680000Y-102870000D03*
X106680000Y-105410000D03*
X106680000Y-107950000D03*
X106680000Y-110490000D03*
X106680000Y-113030000D03*
X106680000Y-115570000D03*
X106680000Y-118110000D03*
X106680000Y-120650000D03*
X106680000Y-123190000D03*
X106680000Y-125730000D03*
X106680000Y-128270000D03*
X106680000Y-130810000D03*
X121920000Y-130810000D03*
X121920000Y-128270000D03*
X121920000Y-125730000D03*
X121920000Y-123190000D03*
X121920000Y-120650000D03*
X121920000Y-118110000D03*
X121920000Y-115570000D03*
X121920000Y-113030000D03*
X121920000Y-110490000D03*
X121920000Y-107950000D03*
X121920000Y-105410000D03*
X121920000Y-102870000D03*
X121920000Y-100330000D03*
X121920000Y-97790000D03*
X121920000Y-95250000D03*
X121920000Y-92710000D03*
X121920000Y-90170000D03*
X121920000Y-87630000D03*
X121920000Y-85090000D03*
X121920000Y-82550000D03*
X95250000Y-82550000D03*
X95250000Y-85090000D03*
X95250000Y-87630000D03*
X95250000Y-90170000D03*
X95250000Y-92710000D03*
X95250000Y-95250000D03*
X95250000Y-97790000D03*
X95250000Y-100330000D03*
X95250000Y-102870000D03*
X95250000Y-105410000D03*
X102870000Y-105410000D03*
X102870000Y-102870000D03*
X102870000Y-100330000D03*
X102870000Y-97790000D03*
X102870000Y-95250000D03*
X102870000Y-92710000D03*
X102870000Y-90170000D03*
X102870000Y-87630000D03*
X102870000Y-85090000D03*
X102870000Y-82550000D03*
X79819500Y-107950000D03*
X79819500Y-110490000D03*
X79819500Y-113030000D03*
X79819500Y-115570000D03*
X79819500Y-118110000D03*
X79819500Y-120650000D03*
X79819500Y-123190000D03*
X79819500Y-125730000D03*
X79819500Y-128270000D03*
X79819500Y-130810000D03*
X72199500Y-130810000D03*
X72199500Y-128270000D03*
X72199500Y-125730000D03*
X72199500Y-123190000D03*
X72199500Y-120650000D03*
X72199500Y-118110000D03*
X72199500Y-115570000D03*
X72199500Y-113030000D03*
X72199500Y-110490000D03*
X72199500Y-107950000D03*
D16*
X124460000Y-82550000D03*
D17*
X124460000Y-85090000D03*
X124460000Y-87630000D03*
X124460000Y-90170000D03*
X124460000Y-92710000D03*
X124460000Y-95250000D03*
X124460000Y-97790000D03*
X124460000Y-100330000D03*
X124460000Y-102870000D03*
X124460000Y-105410000D03*
X124460000Y-107950000D03*
X124460000Y-110490000D03*
X124460000Y-113030000D03*
X124460000Y-115570000D03*
X124460000Y-118110000D03*
X124460000Y-120650000D03*
X124460000Y-123190000D03*
X124460000Y-125730000D03*
X124460000Y-128270000D03*
X124460000Y-130810000D03*
D16*
X132080000Y-46990000D03*
D17*
X132080000Y-49530000D03*
X132080000Y-52070000D03*
X132080000Y-54610000D03*
X132080000Y-57150000D03*
X132080000Y-59690000D03*
X132080000Y-62230000D03*
X132080000Y-64770000D03*
X132080000Y-67310000D03*
X132080000Y-69850000D03*
X132080000Y-72390000D03*
X132080000Y-74930000D03*
X147320000Y-74930000D03*
X147320000Y-72390000D03*
X147320000Y-69850000D03*
X147320000Y-67310000D03*
X147320000Y-64770000D03*
X147320000Y-62230000D03*
X147320000Y-59690000D03*
X147320000Y-57150000D03*
X147320000Y-54610000D03*
X147320000Y-52070000D03*
X147320000Y-49530000D03*
D16*
X147320000Y-46990000D03*
D18*
X129540000Y-41910000D03*
X129540000Y-44450000D03*
X129540000Y-46990000D03*
X129540000Y-49530000D03*
X129540000Y-52070000D03*
X129540000Y-54610000D03*
X129540000Y-57150000D03*
X129540000Y-59690000D03*
X129540000Y-62230000D03*
X129540000Y-64770000D03*
X129540000Y-67310000D03*
X129540000Y-69850000D03*
X129540000Y-72390000D03*
X129540000Y-74930000D03*
X144780000Y-74930000D03*
X144780000Y-72390000D03*
X144780000Y-69850000D03*
X144780000Y-67310000D03*
X144780000Y-64770000D03*
X144780000Y-62230000D03*
X144780000Y-59690000D03*
X144780000Y-57150000D03*
X144780000Y-54610000D03*
X144780000Y-52070000D03*
X144780000Y-49530000D03*
X144780000Y-46990000D03*
X144780000Y-44450000D03*
X144780000Y-41910000D03*
D13*
X126174000Y-71374000D03*
D14*
X118554000Y-71374000D03*
M02*
