M48
; DRILL file {KiCad (5.1.2-1)-1} date Freitag, 24. Mai 2019 um 14:25:58
; FORMAT={-:-/ absolute / inch / decimal}
; #@! TF.CreationDate,2019-05-24T14:25:58+02:00
; #@! TF.GenerationSoftware,Kicad,Pcbnew,(5.1.2-1)-1
FMAT,2
INCH
T1C0.0118
T2C0.0197
T3C0.0315
T4C0.0394
T5C0.0400
%
G90
G05
T1
X2.6256Y-2.452
X2.6334Y-2.8782
X2.8109Y-4.13
X2.8188Y-3.9294
X2.9075Y-3.2455
X2.915Y-4.7768
X2.9158Y-5.2052
X2.9319Y-3.9982
X2.945Y-4.6752
X2.9577Y-3.9369
X2.9846Y-3.0115
X2.9874Y-4.168
X2.9984Y-4.9485
X3.0103Y-4.5908
X3.0643Y-4.024
X3.0794Y-5.0036
X3.0862Y-4.701
X3.1919Y-4.5817
X3.395Y-4.64
X3.415Y-3.615
X3.4159Y-3.125
X3.4236Y-5.1446
X3.4507Y-3.5605
X3.4612Y-3.1316
X3.4638Y-3.4616
X3.4656Y-4.975
X3.4667Y-4.2488
X3.4709Y-3.9852
X3.5217Y-4.2486
X3.567Y-3.7009
X3.6513Y-4.4087
X3.6689Y-3.4167
X3.6738Y-4.915
X3.6897Y-4.4988
X3.713Y-3.3047
X3.8314Y-4.6604
X3.8366Y-5.0904
X3.845Y-4.8224
X3.8909Y-4.4908
X3.8948Y-3.2508
X3.904Y-3.3958
X3.9066Y-3.9522
X3.9124Y-3.7052
X3.9622Y-5.1554
X3.9732Y-4.9412
X3.984Y-4.7
X3.984Y-5.062
X4.0102Y-3.0805
X4.1384Y-4.268
X4.3328Y-2.5432
X4.3486Y-2.781
X4.3598Y-4.8166
X4.3638Y-3.9941
X4.3817Y-3.4388
X4.406Y-3.7244
X4.4336Y-3.9514
X4.4496Y-3.2799
X4.4565Y-3.2507
X4.4662Y-3.4646
X4.4782Y-4.066
X4.5112Y-3.6076
X4.5192Y-4.748
X4.5468Y-2.579
X4.6195Y-3.545
X4.7232Y-3.5266
X4.7232Y-3.8996
X4.7734Y-2.8702
X4.825Y-2.5078
X5.3024Y-3.0568
X5.3262Y-2.0494
X5.5284Y-2.2676
X5.576Y-1.74
X5.6156Y-2.0454
T2
X2.9394Y-5.0915
X3.0082Y-3.7176
X4.7277Y-3.2086
T3
X4.545Y-2.8
X4.545Y-3.1
X3.75Y-4.55
X3.75Y-4.65
X3.75Y-4.75
X3.75Y-4.85
X3.75Y-4.95
X3.75Y-5.05
X3.75Y-5.15
X4.05Y-4.55
X4.05Y-4.65
X4.05Y-4.75
X4.05Y-4.85
X4.05Y-4.95
X4.05Y-5.05
X4.05Y-5.15
X4.6675Y-2.4575
X4.9675Y-2.4575
X3.85Y-3.0925
X3.9484Y-3.0925
X2.8425Y-3.25
X2.8425Y-3.35
X2.8425Y-3.45
X2.8425Y-3.55
X2.8425Y-3.65
X2.8425Y-3.75
X2.8425Y-3.85
X3.1425Y-3.25
X3.1425Y-3.35
X3.1425Y-3.45
X3.1425Y-3.55
X3.1425Y-3.65
X3.1425Y-3.75
X3.1425Y-3.85
X3.395Y-4.36
X3.4934Y-4.36
X4.6675Y-2.575
X4.9675Y-2.575
X3.395Y-3.3925
X3.4934Y-3.3925
X2.8425Y-4.25
X2.8425Y-4.35
X2.8425Y-4.45
X2.8425Y-4.55
X2.8425Y-4.65
X2.8425Y-4.75
X2.8425Y-4.85
X2.8425Y-4.95
X2.8425Y-5.05
X2.8425Y-5.15
X3.1425Y-4.25
X3.1425Y-4.35
X3.1425Y-4.45
X3.1425Y-4.55
X3.1425Y-4.65
X3.1425Y-4.75
X3.1425Y-4.85
X3.1425Y-4.95
X3.1425Y-5.05
X3.1425Y-5.15
X3.295Y-3.55
X3.295Y-3.65
X3.295Y-3.75
X3.295Y-3.85
X3.295Y-3.95
X3.295Y-4.05
X3.295Y-4.15
X3.595Y-3.55
X3.595Y-3.65
X3.595Y-3.75
X3.595Y-3.85
X3.595Y-3.95
X3.595Y-4.05
X3.595Y-4.15
X2.94Y-3.0875
X3.0384Y-3.0875
X3.295Y-4.55
X3.295Y-4.65
X3.295Y-4.75
X3.295Y-4.85
X3.295Y-4.95
X3.295Y-5.05
X3.295Y-5.15
X3.595Y-4.55
X3.595Y-4.65
X3.595Y-4.75
X3.595Y-4.85
X3.595Y-4.95
X3.595Y-5.05
X3.595Y-5.15
X4.6675Y-3.045
X4.9675Y-3.045
X3.75Y-3.25
X3.75Y-3.35
X3.75Y-3.45
X3.75Y-3.55
X3.75Y-3.65
X3.75Y-3.75
X3.75Y-3.85
X3.75Y-3.95
X3.75Y-4.05
X3.75Y-4.15
X4.05Y-3.25
X4.05Y-3.35
X4.05Y-3.45
X4.05Y-3.55
X4.05Y-3.65
X4.05Y-3.75
X4.05Y-3.85
X4.05Y-3.95
X4.05Y-4.05
X4.05Y-4.15
X2.9425Y-4.0925
X3.0409Y-4.0925
X4.6675Y-2.6925
X4.9675Y-2.6925
X4.545Y-2.415
X4.545Y-2.715
X4.2625Y-2.6925
X4.2625Y-2.9925
X4.3625Y-2.6925
X4.3625Y-2.9925
X5.1Y-1.65
X5.1Y-1.75
X5.1Y-1.85
X5.1Y-1.95
X5.1Y-2.05
X5.1Y-2.15
X5.1Y-2.25
X5.1Y-2.35
X5.1Y-2.45
X5.1Y-2.55
X5.1Y-2.65
X5.1Y-2.75
X5.1Y-2.85
X5.1Y-2.95
X5.7Y-1.65
X5.7Y-1.75
X5.7Y-1.85
X5.7Y-1.95
X5.7Y-2.05
X5.7Y-2.15
X5.7Y-2.25
X5.7Y-2.35
X5.7Y-2.45
X5.7Y-2.55
X5.7Y-2.65
X5.7Y-2.75
X5.7Y-2.85
X5.7Y-2.95
X4.6675Y-2.9275
X4.9675Y-2.9275
X3.85Y-4.36
X3.9484Y-4.36
X4.2Y-3.25
X4.2Y-3.35
X4.2Y-3.45
X4.2Y-3.55
X4.2Y-3.65
X4.2Y-3.75
X4.2Y-3.85
X4.2Y-3.95
X4.2Y-4.05
X4.2Y-4.15
X4.2Y-4.25
X4.2Y-4.35
X4.2Y-4.45
X4.2Y-4.55
X4.2Y-4.65
X4.2Y-4.75
X4.2Y-4.85
X4.2Y-4.95
X4.2Y-5.05
X4.2Y-5.15
X4.8Y-3.25
X4.8Y-3.35
X4.8Y-3.45
X4.8Y-3.55
X4.8Y-3.65
X4.8Y-3.75
X4.8Y-3.85
X4.8Y-3.95
X4.8Y-4.05
X4.8Y-4.15
X4.8Y-4.25
X4.8Y-4.35
X4.8Y-4.45
X4.8Y-4.55
X4.8Y-4.65
X4.8Y-4.75
X4.8Y-4.85
X4.8Y-4.95
X4.8Y-5.05
X4.8Y-5.15
X4.4516Y-5.0
X4.55Y-5.0
X4.6675Y-2.81
X4.9675Y-2.81
T4
X4.2625Y-2.435
X4.3625Y-2.435
X5.8Y-1.85
X5.8Y-1.95
X5.8Y-2.05
X5.8Y-2.15
X5.8Y-2.25
X5.8Y-2.35
X5.8Y-2.45
X5.8Y-2.55
X5.8Y-2.65
X5.8Y-2.75
X5.8Y-2.85
X5.8Y-2.95
X5.2Y-1.85
X5.2Y-1.95
X5.2Y-2.05
X5.2Y-2.15
X5.2Y-2.25
X5.2Y-2.35
X5.2Y-2.45
X5.2Y-2.55
X5.2Y-2.65
X5.2Y-2.75
X5.2Y-2.85
X5.2Y-2.95
X4.3Y-3.25
X4.3Y-3.35
X4.3Y-3.45
X4.3Y-3.55
X4.3Y-3.65
X4.3Y-3.75
X4.3Y-3.85
X4.3Y-3.95
X4.3Y-4.05
X4.3Y-4.15
X4.3Y-4.25
X4.3Y-4.35
X4.3Y-4.45
X4.3Y-4.55
X4.3Y-4.65
X4.3Y-4.75
X4.3Y-4.85
X4.3Y-4.95
X4.3Y-5.05
X4.3Y-5.15
X4.9Y-3.25
X4.9Y-3.35
X4.9Y-3.45
X4.9Y-3.55
X4.9Y-3.65
X4.9Y-3.75
X4.9Y-3.85
X4.9Y-3.95
X4.9Y-4.05
X4.9Y-4.15
X4.9Y-4.25
X4.9Y-4.35
X4.9Y-4.45
X4.9Y-4.55
X4.9Y-4.65
X4.9Y-4.75
X4.9Y-4.85
X4.9Y-4.95
X4.9Y-5.05
X4.9Y-5.15
T5
X2.7705Y-2.839
X2.7705Y-2.939
X2.8705Y-2.839
X2.8705Y-2.939
X2.9705Y-2.839
X2.9705Y-2.939
X3.0705Y-2.839
X3.0705Y-2.939
X3.1705Y-2.839
X3.1705Y-2.939
X3.2705Y-2.839
X3.2705Y-2.939
X3.3705Y-2.839
X3.3705Y-2.939
X3.4705Y-2.839
X3.4705Y-2.939
X3.5705Y-2.839
X3.5705Y-2.939
X3.6705Y-2.839
X3.6705Y-2.939
X3.7705Y-2.839
X3.7705Y-2.939
X3.8705Y-2.839
X3.8705Y-2.939
T0
M30
