G04 #@! TF.GenerationSoftware,KiCad,Pcbnew,(5.1.2-1)-1*
G04 #@! TF.CreationDate,2019-05-24T14:25:54+02:00*
G04 #@! TF.ProjectId,TriMod CBM Adapter (Standard Version),5472694d-6f64-4204-9342-4d2041646170,1.1*
G04 #@! TF.SameCoordinates,Original*
G04 #@! TF.FileFunction,Copper,L2,Bot*
G04 #@! TF.FilePolarity,Positive*
%FSLAX46Y46*%
G04 Gerber Fmt 4.6, Leading zero omitted, Abs format (unit mm)*
G04 Created by KiCad (PCBNEW (5.1.2-1)-1) date 2019-05-24 14:25:54*
%MOMM*%
%LPD*%
G04 APERTURE LIST*
%ADD10C,1.727200*%
%ADD11O,1.727200X1.727200*%
%ADD12R,1.727200X1.727200*%
%ADD13C,1.600000*%
%ADD14O,1.600000X1.600000*%
%ADD15R,1.600000X1.600000*%
%ADD16R,1.700000X1.700000*%
%ADD17O,1.700000X1.700000*%
%ADD18O,2.200000X1.500000*%
%ADD19C,1.000000*%
%ADD20C,0.500000*%
%ADD21C,1.000000*%
%ADD22C,0.400000*%
%ADD23C,0.254000*%
G04 APERTURE END LIST*
D10*
X98310700Y-72110600D03*
D11*
X95770700Y-72110600D03*
X93230700Y-72110600D03*
X90690700Y-72110600D03*
X88150700Y-72110600D03*
X85610700Y-72110600D03*
X83070700Y-72110600D03*
X80530700Y-72110600D03*
X77990700Y-72110600D03*
X75450700Y-72110600D03*
X72910700Y-72110600D03*
X70370700Y-72110600D03*
X98310700Y-74650600D03*
X95770700Y-74650600D03*
X93230700Y-74650600D03*
X90690700Y-74650600D03*
X88150700Y-74650600D03*
X85610700Y-74650600D03*
X83070700Y-74650600D03*
X80530700Y-74650600D03*
X77990700Y-74650600D03*
X75450700Y-74650600D03*
X72910700Y-74650600D03*
D12*
X70370700Y-74650600D03*
D13*
X86233000Y-86169500D03*
X88733000Y-86169500D03*
X100290000Y-110744000D03*
X97790000Y-110744000D03*
X86233000Y-110744000D03*
X88733000Y-110744000D03*
X77176000Y-78422500D03*
X74676000Y-78422500D03*
X115570000Y-127000000D03*
X113070000Y-127000000D03*
X100290000Y-78549500D03*
X97790000Y-78549500D03*
X74739500Y-103950000D03*
X77239500Y-103950000D03*
D14*
X115443000Y-68961000D03*
D15*
X115443000Y-61341000D03*
X115443000Y-71120000D03*
D14*
X115443000Y-78740000D03*
D16*
X109220000Y-82550000D03*
D17*
X109220000Y-85090000D03*
X109220000Y-87630000D03*
X109220000Y-90170000D03*
X109220000Y-92710000D03*
X109220000Y-95250000D03*
X109220000Y-97790000D03*
X109220000Y-100330000D03*
X109220000Y-102870000D03*
X109220000Y-105410000D03*
X109220000Y-107950000D03*
X109220000Y-110490000D03*
X109220000Y-113030000D03*
X109220000Y-115570000D03*
X109220000Y-118110000D03*
X109220000Y-120650000D03*
X109220000Y-123190000D03*
X109220000Y-125730000D03*
X109220000Y-128270000D03*
X109220000Y-130810000D03*
D16*
X110808000Y-61849000D03*
D17*
X108268000Y-61849000D03*
D13*
X118554000Y-74358500D03*
D14*
X126174000Y-74358500D03*
D13*
X126174000Y-65405000D03*
D14*
X118554000Y-65405000D03*
X126174000Y-68389500D03*
D13*
X118554000Y-68389500D03*
D14*
X126174000Y-77343000D03*
D13*
X118554000Y-77343000D03*
X118554000Y-62420500D03*
D14*
X126174000Y-62420500D03*
D15*
X110808000Y-68389500D03*
D14*
X108268000Y-76009500D03*
X108268000Y-68389500D03*
X110808000Y-76009500D03*
D18*
X91313000Y-90170000D03*
X91313000Y-92710000D03*
X91313000Y-95250000D03*
X91313000Y-97790000D03*
X91313000Y-100330000D03*
X91313000Y-102870000D03*
X91313000Y-105410000D03*
X83693000Y-105410000D03*
X83693000Y-102870000D03*
X83693000Y-100330000D03*
X83693000Y-97790000D03*
X83693000Y-95250000D03*
X83693000Y-92710000D03*
X83693000Y-90170000D03*
X95250000Y-115570000D03*
X95250000Y-118110000D03*
X95250000Y-120650000D03*
X95250000Y-123190000D03*
X95250000Y-125730000D03*
X95250000Y-128270000D03*
X95250000Y-130810000D03*
X102870000Y-130810000D03*
X102870000Y-128270000D03*
X102870000Y-125730000D03*
X102870000Y-123190000D03*
X102870000Y-120650000D03*
X102870000Y-118110000D03*
X102870000Y-115570000D03*
X91313000Y-115570000D03*
X91313000Y-118110000D03*
X91313000Y-120650000D03*
X91313000Y-123190000D03*
X91313000Y-125730000D03*
X91313000Y-128270000D03*
X91313000Y-130810000D03*
X83693000Y-130810000D03*
X83693000Y-128270000D03*
X83693000Y-125730000D03*
X83693000Y-123190000D03*
X83693000Y-120650000D03*
X83693000Y-118110000D03*
X83693000Y-115570000D03*
X72199500Y-82550000D03*
X72199500Y-85090000D03*
X72199500Y-87630000D03*
X72199500Y-90170000D03*
X72199500Y-92710000D03*
X72199500Y-95250000D03*
X72199500Y-97790000D03*
X79819500Y-97790000D03*
X79819500Y-95250000D03*
X79819500Y-92710000D03*
X79819500Y-90170000D03*
X79819500Y-87630000D03*
X79819500Y-85090000D03*
X79819500Y-82550000D03*
X106680000Y-82550000D03*
X106680000Y-85090000D03*
X106680000Y-87630000D03*
X106680000Y-90170000D03*
X106680000Y-92710000D03*
X106680000Y-95250000D03*
X106680000Y-97790000D03*
X106680000Y-100330000D03*
X106680000Y-102870000D03*
X106680000Y-105410000D03*
X106680000Y-107950000D03*
X106680000Y-110490000D03*
X106680000Y-113030000D03*
X106680000Y-115570000D03*
X106680000Y-118110000D03*
X106680000Y-120650000D03*
X106680000Y-123190000D03*
X106680000Y-125730000D03*
X106680000Y-128270000D03*
X106680000Y-130810000D03*
X121920000Y-130810000D03*
X121920000Y-128270000D03*
X121920000Y-125730000D03*
X121920000Y-123190000D03*
X121920000Y-120650000D03*
X121920000Y-118110000D03*
X121920000Y-115570000D03*
X121920000Y-113030000D03*
X121920000Y-110490000D03*
X121920000Y-107950000D03*
X121920000Y-105410000D03*
X121920000Y-102870000D03*
X121920000Y-100330000D03*
X121920000Y-97790000D03*
X121920000Y-95250000D03*
X121920000Y-92710000D03*
X121920000Y-90170000D03*
X121920000Y-87630000D03*
X121920000Y-85090000D03*
X121920000Y-82550000D03*
X95250000Y-82550000D03*
X95250000Y-85090000D03*
X95250000Y-87630000D03*
X95250000Y-90170000D03*
X95250000Y-92710000D03*
X95250000Y-95250000D03*
X95250000Y-97790000D03*
X95250000Y-100330000D03*
X95250000Y-102870000D03*
X95250000Y-105410000D03*
X102870000Y-105410000D03*
X102870000Y-102870000D03*
X102870000Y-100330000D03*
X102870000Y-97790000D03*
X102870000Y-95250000D03*
X102870000Y-92710000D03*
X102870000Y-90170000D03*
X102870000Y-87630000D03*
X102870000Y-85090000D03*
X102870000Y-82550000D03*
X79819500Y-107950000D03*
X79819500Y-110490000D03*
X79819500Y-113030000D03*
X79819500Y-115570000D03*
X79819500Y-118110000D03*
X79819500Y-120650000D03*
X79819500Y-123190000D03*
X79819500Y-125730000D03*
X79819500Y-128270000D03*
X79819500Y-130810000D03*
X72199500Y-130810000D03*
X72199500Y-128270000D03*
X72199500Y-125730000D03*
X72199500Y-123190000D03*
X72199500Y-120650000D03*
X72199500Y-118110000D03*
X72199500Y-115570000D03*
X72199500Y-113030000D03*
X72199500Y-110490000D03*
X72199500Y-107950000D03*
D16*
X124460000Y-82550000D03*
D17*
X124460000Y-85090000D03*
X124460000Y-87630000D03*
X124460000Y-90170000D03*
X124460000Y-92710000D03*
X124460000Y-95250000D03*
X124460000Y-97790000D03*
X124460000Y-100330000D03*
X124460000Y-102870000D03*
X124460000Y-105410000D03*
X124460000Y-107950000D03*
X124460000Y-110490000D03*
X124460000Y-113030000D03*
X124460000Y-115570000D03*
X124460000Y-118110000D03*
X124460000Y-120650000D03*
X124460000Y-123190000D03*
X124460000Y-125730000D03*
X124460000Y-128270000D03*
X124460000Y-130810000D03*
D16*
X132080000Y-46990000D03*
D17*
X132080000Y-49530000D03*
X132080000Y-52070000D03*
X132080000Y-54610000D03*
X132080000Y-57150000D03*
X132080000Y-59690000D03*
X132080000Y-62230000D03*
X132080000Y-64770000D03*
X132080000Y-67310000D03*
X132080000Y-69850000D03*
X132080000Y-72390000D03*
X132080000Y-74930000D03*
X147320000Y-74930000D03*
X147320000Y-72390000D03*
X147320000Y-69850000D03*
X147320000Y-67310000D03*
X147320000Y-64770000D03*
X147320000Y-62230000D03*
X147320000Y-59690000D03*
X147320000Y-57150000D03*
X147320000Y-54610000D03*
X147320000Y-52070000D03*
X147320000Y-49530000D03*
D16*
X147320000Y-46990000D03*
D18*
X129540000Y-41910000D03*
X129540000Y-44450000D03*
X129540000Y-46990000D03*
X129540000Y-49530000D03*
X129540000Y-52070000D03*
X129540000Y-54610000D03*
X129540000Y-57150000D03*
X129540000Y-59690000D03*
X129540000Y-62230000D03*
X129540000Y-64770000D03*
X129540000Y-67310000D03*
X129540000Y-69850000D03*
X129540000Y-72390000D03*
X129540000Y-74930000D03*
X144780000Y-74930000D03*
X144780000Y-72390000D03*
X144780000Y-69850000D03*
X144780000Y-67310000D03*
X144780000Y-64770000D03*
X144780000Y-62230000D03*
X144780000Y-59690000D03*
X144780000Y-57150000D03*
X144780000Y-54610000D03*
X144780000Y-52070000D03*
X144780000Y-49530000D03*
X144780000Y-46990000D03*
X144780000Y-44450000D03*
X144780000Y-41910000D03*
D13*
X126174000Y-71374000D03*
D14*
X118554000Y-71374000D03*
D19*
X120083400Y-81499700D03*
X74661700Y-129323900D03*
X76407900Y-94427200D03*
D20*
X66888360Y-73106280D03*
X66690240Y-62280800D03*
X110053120Y-64597280D03*
X110454440Y-70637400D03*
X134680960Y-77642720D03*
X140421360Y-57597040D03*
X142636240Y-51953160D03*
X141630400Y-44196000D03*
X135285480Y-52054760D03*
X114787680Y-120599200D03*
X119969600Y-99049520D03*
X113441480Y-88000840D03*
X114584480Y-91633040D03*
X71597520Y-99806760D03*
X77833000Y-102209500D03*
X75879960Y-105867200D03*
X74802700Y-118750380D03*
X78389480Y-119405400D03*
X78216760Y-127091440D03*
X74041000Y-121330720D03*
X74061320Y-132212080D03*
X86959650Y-130673050D03*
X88026240Y-126365000D03*
X86233000Y-117856000D03*
X93314520Y-124841000D03*
X100639880Y-130947160D03*
X97449640Y-129296160D03*
X100919280Y-125506480D03*
X97663000Y-122488960D03*
X97317560Y-118374160D03*
X99227640Y-100385880D03*
X99374960Y-94112080D03*
X99161600Y-86253320D03*
X98927920Y-82570320D03*
X87980520Y-87924640D03*
X86741000Y-91821000D03*
X119969600Y-89575320D03*
X115488720Y-65506600D03*
X122555000Y-63698120D03*
X121244360Y-72903080D03*
X101193600Y-128574800D03*
X117335400Y-90042000D03*
X87914100Y-79541400D03*
X101858800Y-78243500D03*
X81075500Y-116376000D03*
X113747000Y-103276000D03*
X105114300Y-108407500D03*
X101192600Y-119380000D03*
X110840500Y-101450900D03*
X110738100Y-122342300D03*
X76159100Y-125691800D03*
X76461300Y-116607500D03*
X112613800Y-100365100D03*
X73850700Y-82436700D03*
X75125000Y-99996700D03*
X71395800Y-104902800D03*
X94309800Y-83939600D03*
X93189400Y-86784600D03*
X90602600Y-94001900D03*
X75808700Y-76490900D03*
X111295700Y-87345200D03*
X87648600Y-90436700D03*
X111912000Y-94599100D03*
X89450700Y-107914300D03*
X92743600Y-111981000D03*
X88054900Y-107919400D03*
X74469800Y-101553600D03*
X113018800Y-83309400D03*
X88161700Y-101224000D03*
X113194500Y-82566800D03*
X98829800Y-114065800D03*
X93717400Y-114268500D03*
X86763500Y-79374500D03*
D21*
X132080000Y-74930000D02*
X131490300Y-74930000D01*
X142829700Y-62230000D02*
X142829700Y-64180300D01*
X142829700Y-64180300D02*
X132080000Y-74930000D01*
X129540000Y-74930000D02*
X131490300Y-74930000D01*
X120083400Y-81499700D02*
X120050200Y-81466500D01*
X120050200Y-81466500D02*
X112003800Y-81466500D01*
X112003800Y-81466500D02*
X110920300Y-82550000D01*
X72199500Y-97790000D02*
X74149800Y-97790000D01*
X109220000Y-82550000D02*
X110920300Y-82550000D01*
X106680000Y-82550000D02*
X109220000Y-82550000D01*
X108268000Y-61849000D02*
X108268000Y-63549300D01*
X98310700Y-72110600D02*
X106872000Y-63549300D01*
X106872000Y-63549300D02*
X108268000Y-63549300D01*
X97790000Y-110744000D02*
X91255700Y-110744000D01*
X91255700Y-110744000D02*
X89570300Y-109058600D01*
X89570300Y-109058600D02*
X86724700Y-109058600D01*
X86724700Y-109058600D02*
X86233000Y-109550300D01*
X74149800Y-130810000D02*
X74149800Y-129835800D01*
X74149800Y-129835800D02*
X74661700Y-129323900D01*
X72199500Y-130810000D02*
X74149800Y-130810000D01*
X74149800Y-97790000D02*
X74149800Y-96685300D01*
X74149800Y-96685300D02*
X76407900Y-94427200D01*
X93230700Y-72110600D02*
X90690700Y-72110600D01*
X95770700Y-72110600D02*
X93230700Y-72110600D01*
X144780000Y-62230000D02*
X142829700Y-62230000D01*
X97790000Y-78549500D02*
X98310700Y-78028800D01*
X98310700Y-78028800D02*
X98310700Y-76364500D01*
X98310700Y-74650600D02*
X98310700Y-76364500D01*
X77833000Y-102209500D02*
X77833000Y-102209500D01*
X81033500Y-105410000D02*
X81742700Y-105410000D01*
X74739500Y-103950000D02*
X76480000Y-102209500D01*
X76480000Y-102209500D02*
X77833000Y-102209500D01*
X100919700Y-105410000D02*
X95250000Y-105410000D01*
X79819500Y-95250000D02*
X79713200Y-95250000D01*
X79713200Y-95250000D02*
X77833000Y-97130200D01*
X77833000Y-97130200D02*
X77833000Y-102209500D01*
X102870000Y-105410000D02*
X100919700Y-105410000D01*
X88150700Y-72110600D02*
X90690700Y-72110600D01*
X85610700Y-72110600D02*
X88150700Y-72110600D01*
X83693000Y-105410000D02*
X81742700Y-105410000D01*
X86233000Y-109550300D02*
X86233000Y-110744000D01*
X83693000Y-107010300D02*
X86233000Y-109550300D01*
X83693000Y-105410000D02*
X83693000Y-107010300D01*
X77833000Y-102209500D02*
X81033500Y-105410000D01*
X118554000Y-77343000D02*
X118270900Y-77059900D01*
X118270900Y-77059900D02*
X114392600Y-77059900D01*
X114392600Y-77059900D02*
X112097500Y-79355000D01*
X112097500Y-79355000D02*
X104464700Y-79355000D01*
X104464700Y-79355000D02*
X102870000Y-80949700D01*
X124523700Y-74358500D02*
X121539200Y-77343000D01*
X121539200Y-77343000D02*
X118554000Y-77343000D01*
X102870000Y-82550000D02*
X102870000Y-80949700D01*
X88733000Y-86169500D02*
X91133200Y-88569700D01*
X91133200Y-88569700D02*
X91313000Y-88569700D01*
X81769800Y-82550000D02*
X83709400Y-84489600D01*
X83709400Y-84489600D02*
X87053100Y-84489600D01*
X87053100Y-84489600D02*
X88733000Y-86169500D01*
X91313000Y-90170000D02*
X91313000Y-88569700D01*
X109220000Y-130810000D02*
X110920300Y-130810000D01*
X113070000Y-127000000D02*
X110920300Y-129149700D01*
X110920300Y-129149700D02*
X110920300Y-130810000D01*
X121920000Y-123190000D02*
X116880000Y-123190000D01*
X116880000Y-123190000D02*
X113070000Y-127000000D01*
X126174000Y-74358500D02*
X124523700Y-74358500D01*
X124460000Y-123190000D02*
X121920000Y-123190000D01*
X144780000Y-41910000D02*
X144780000Y-42849700D01*
X129540000Y-41910000D02*
X144780000Y-41910000D01*
X144780000Y-44450000D02*
X144780000Y-42849700D01*
X79819500Y-106349700D02*
X79639200Y-106349700D01*
X79639200Y-106349700D02*
X77239500Y-103950000D01*
X79819500Y-82550000D02*
X81769800Y-82550000D01*
X91313000Y-115570000D02*
X89362700Y-115570000D01*
X106680000Y-130810000D02*
X109220000Y-130810000D01*
X83693000Y-123190000D02*
X83773700Y-123190000D01*
X83773700Y-123190000D02*
X89362700Y-117601000D01*
X89362700Y-117601000D02*
X89362700Y-115570000D01*
X79819500Y-107950000D02*
X79819500Y-106349700D01*
D22*
X87914100Y-79541400D02*
X93368100Y-79541400D01*
X93368100Y-79541400D02*
X93730700Y-79904000D01*
X93730700Y-79904000D02*
X101430500Y-79904000D01*
X101430500Y-79904000D02*
X107860200Y-73474300D01*
X107860200Y-73474300D02*
X116162500Y-73474300D01*
X116162500Y-73474300D02*
X117353700Y-72283100D01*
X117353700Y-72283100D02*
X117353700Y-67805600D01*
X117353700Y-67805600D02*
X118554000Y-66605300D01*
X121920000Y-97214800D02*
X121819400Y-97214800D01*
X121819400Y-97214800D02*
X117335400Y-92730800D01*
X117335400Y-92730800D02*
X117335400Y-90042000D01*
X123209700Y-97790000D02*
X122634500Y-97214800D01*
X122634500Y-97214800D02*
X121920000Y-97214800D01*
X124460000Y-97790000D02*
X123209700Y-97790000D01*
X121920000Y-97790000D02*
X121920000Y-97214800D01*
X118554000Y-65405000D02*
X118554000Y-66605300D01*
X116643300Y-68961000D02*
X116643300Y-72144600D01*
X116643300Y-72144600D02*
X116214100Y-72573800D01*
X116214100Y-72573800D02*
X107528500Y-72573800D01*
X107528500Y-72573800D02*
X101858800Y-78243500D01*
X115443000Y-68961000D02*
X116643300Y-68961000D01*
X91313000Y-118110000D02*
X91313000Y-116959700D01*
X106680000Y-105410000D02*
X106680000Y-106560300D01*
X106680000Y-106560300D02*
X106799700Y-106680000D01*
X106799700Y-106680000D02*
X109718200Y-106680000D01*
X109718200Y-106680000D02*
X111102500Y-108064300D01*
X111102500Y-108064300D02*
X111102500Y-112953700D01*
X111102500Y-112953700D02*
X109756200Y-114300000D01*
X109756200Y-114300000D02*
X105210000Y-114300000D01*
X105210000Y-114300000D02*
X105122400Y-114212400D01*
X105122400Y-114212400D02*
X101982900Y-114212400D01*
X101982900Y-114212400D02*
X99235600Y-116959700D01*
X99235600Y-116959700D02*
X91313000Y-116959700D01*
X115443000Y-61341000D02*
X115443000Y-62541300D01*
X108268000Y-68389500D02*
X109468300Y-68389500D01*
X109468300Y-68389500D02*
X109468300Y-67449900D01*
X109468300Y-67449900D02*
X114376900Y-62541300D01*
X114376900Y-62541300D02*
X115443000Y-62541300D01*
X115443000Y-71120000D02*
X114242700Y-71120000D01*
X110808000Y-68389500D02*
X112008300Y-68389500D01*
X112008300Y-68389500D02*
X114242700Y-70623900D01*
X114242700Y-70623900D02*
X114242700Y-71120000D01*
X109220000Y-108478900D02*
X110502100Y-109761000D01*
X110502100Y-109761000D02*
X110502100Y-110979400D01*
X110502100Y-110979400D02*
X109721500Y-111760000D01*
X109721500Y-111760000D02*
X102206100Y-111760000D01*
X102206100Y-111760000D02*
X100550600Y-113415500D01*
X100550600Y-113415500D02*
X83819100Y-113415500D01*
X83819100Y-113415500D02*
X81321800Y-115912800D01*
X81321800Y-115912800D02*
X81321800Y-116129700D01*
X81321800Y-116129700D02*
X81075500Y-116376000D01*
X106680000Y-107950000D02*
X108180300Y-107950000D01*
X109220000Y-108478900D02*
X108709200Y-108478900D01*
X108709200Y-108478900D02*
X108180300Y-107950000D01*
X109220000Y-107950000D02*
X109220000Y-108478900D01*
X79819500Y-92710000D02*
X79819500Y-93860300D01*
X72199500Y-115570000D02*
X72199500Y-114419700D01*
X72199500Y-114419700D02*
X71552500Y-114419700D01*
X71552500Y-114419700D02*
X70670300Y-113537500D01*
X70670300Y-113537500D02*
X70670300Y-102807400D01*
X70670300Y-102807400D02*
X77458300Y-96019400D01*
X77458300Y-96019400D02*
X77458300Y-95394800D01*
X77458300Y-95394800D02*
X78992800Y-93860300D01*
X78992800Y-93860300D02*
X79819500Y-93860300D01*
X106680000Y-128270000D02*
X109220000Y-128270000D01*
X106680000Y-125730000D02*
X109220000Y-125730000D01*
X113747000Y-103276000D02*
X113747000Y-91279300D01*
X113747000Y-91279300D02*
X121206300Y-83820000D01*
X121206300Y-83820000D02*
X123190000Y-83820000D01*
X123190000Y-83820000D02*
X124460000Y-82550000D01*
X91313000Y-104020300D02*
X91922400Y-104020300D01*
X91922400Y-104020300D02*
X93175500Y-105273400D01*
X93175500Y-105273400D02*
X93175500Y-105597900D01*
X93175500Y-105597900D02*
X95985100Y-108407500D01*
X95985100Y-108407500D02*
X105114300Y-108407500D01*
X91313000Y-102870000D02*
X91313000Y-104020300D01*
X109220000Y-120650000D02*
X107950000Y-119380000D01*
X107950000Y-119380000D02*
X101192600Y-119380000D01*
X106680000Y-118110000D02*
X109220000Y-118110000D01*
X106680000Y-116145100D02*
X105879100Y-116946000D01*
X105879100Y-116946000D02*
X100977300Y-116946000D01*
X100977300Y-116946000D02*
X95883600Y-122039700D01*
X95883600Y-122039700D02*
X95250000Y-122039700D01*
X106680000Y-116145100D02*
X107394600Y-116145100D01*
X107394600Y-116145100D02*
X107969700Y-115570000D01*
X95250000Y-123190000D02*
X95250000Y-122039700D01*
X109220000Y-115570000D02*
X107969700Y-115570000D01*
X106680000Y-115570000D02*
X106680000Y-116145100D01*
X95250000Y-115570000D02*
X99478000Y-115570000D01*
X99478000Y-115570000D02*
X102018000Y-113030000D01*
X102018000Y-113030000D02*
X105179700Y-113030000D01*
X106680000Y-113030000D02*
X105179700Y-113030000D01*
X106680000Y-113030000D02*
X109220000Y-113030000D01*
X83693000Y-95250000D02*
X85193300Y-95250000D01*
X85193300Y-95250000D02*
X89600500Y-99657200D01*
X89600500Y-99657200D02*
X89600500Y-105697400D01*
X89600500Y-105697400D02*
X93123100Y-109220000D01*
X93123100Y-109220000D02*
X107950000Y-109220000D01*
X107950000Y-109220000D02*
X109220000Y-110490000D01*
X83693000Y-92710000D02*
X83693000Y-93860300D01*
X83693000Y-93860300D02*
X84843300Y-93860300D01*
X84843300Y-93860300D02*
X90043000Y-99060000D01*
X90043000Y-99060000D02*
X96042900Y-99060000D01*
X96042900Y-99060000D02*
X101003300Y-104020400D01*
X101003300Y-104020400D02*
X107830400Y-104020400D01*
X107830400Y-104020400D02*
X109220000Y-105410000D01*
X106680000Y-102870000D02*
X107969700Y-102870000D01*
X102870000Y-102870000D02*
X106680000Y-102870000D01*
X109220000Y-102870000D02*
X107969700Y-102870000D01*
X106680000Y-100330000D02*
X109220000Y-100330000D01*
X102870000Y-100330000D02*
X106680000Y-100330000D01*
X106680000Y-97790000D02*
X102870000Y-97790000D01*
X106680000Y-97790000D02*
X109220000Y-97790000D01*
X106680000Y-95250000D02*
X109220000Y-95250000D01*
X102870000Y-95250000D02*
X106680000Y-95250000D01*
X106680000Y-92710000D02*
X104370300Y-92710000D01*
X102870000Y-92710000D02*
X104370300Y-92710000D01*
X106680000Y-92710000D02*
X109220000Y-92710000D01*
X106680000Y-90170000D02*
X109220000Y-90170000D01*
X102870000Y-90170000D02*
X106680000Y-90170000D01*
X106680000Y-87630000D02*
X109220000Y-87630000D01*
X102870000Y-87630000D02*
X106680000Y-87630000D01*
X106680000Y-85090000D02*
X102870000Y-85090000D01*
X106680000Y-85090000D02*
X109220000Y-85090000D01*
X110808000Y-76009500D02*
X112008300Y-76009500D01*
X124354800Y-85090000D02*
X125784900Y-83659900D01*
X125784900Y-83659900D02*
X125784900Y-79465600D01*
X125784900Y-79465600D02*
X127545300Y-77705200D01*
X127545300Y-77705200D02*
X127545300Y-73785100D01*
X127545300Y-73785100D02*
X126741300Y-72981100D01*
X126741300Y-72981100D02*
X123322700Y-72981100D01*
X123322700Y-72981100D02*
X120711900Y-75591900D01*
X120711900Y-75591900D02*
X112425900Y-75591900D01*
X112425900Y-75591900D02*
X112008300Y-76009500D01*
X124354800Y-85090000D02*
X123209700Y-85090000D01*
X124460000Y-85090000D02*
X124354800Y-85090000D01*
X110808000Y-76009500D02*
X108268000Y-76009500D01*
X121920000Y-85090000D02*
X123209700Y-85090000D01*
X121920000Y-87630000D02*
X124460000Y-87630000D01*
X121920000Y-90170000D02*
X124460000Y-90170000D01*
X121920000Y-92710000D02*
X124460000Y-92710000D01*
X121920000Y-95250000D02*
X124460000Y-95250000D01*
X121920000Y-100330000D02*
X124460000Y-100330000D01*
X121920000Y-102870000D02*
X124460000Y-102870000D01*
X121920000Y-105410000D02*
X124460000Y-105410000D01*
X121920000Y-107950000D02*
X124460000Y-107950000D01*
X121920000Y-110490000D02*
X124460000Y-110490000D01*
X121920000Y-113030000D02*
X124460000Y-113030000D01*
X121920000Y-115570000D02*
X124460000Y-115570000D01*
X121920000Y-118110000D02*
X124460000Y-118110000D01*
X121920000Y-120650000D02*
X124460000Y-120650000D01*
X121920000Y-125730000D02*
X124460000Y-125730000D01*
X121920000Y-128270000D02*
X124460000Y-128270000D01*
X121920000Y-130810000D02*
X124460000Y-130810000D01*
X110738100Y-122342300D02*
X111713900Y-121366500D01*
X111713900Y-121366500D02*
X111713900Y-102324300D01*
X111713900Y-102324300D02*
X110840500Y-101450900D01*
X72199500Y-128270000D02*
X73699800Y-128270000D01*
X73699800Y-128270000D02*
X73699800Y-128151100D01*
X73699800Y-128151100D02*
X76159100Y-125691800D01*
X72199500Y-113030000D02*
X75777000Y-116607500D01*
X75777000Y-116607500D02*
X76461300Y-116607500D01*
X112613800Y-100365100D02*
X112972700Y-100724000D01*
X112972700Y-100724000D02*
X112972700Y-123831200D01*
X112972700Y-123831200D02*
X109803900Y-127000000D01*
X109803900Y-127000000D02*
X105964200Y-127000000D01*
X105964200Y-127000000D02*
X104809100Y-128155100D01*
X104809100Y-128155100D02*
X104809100Y-128320300D01*
X104809100Y-128320300D02*
X103589400Y-129540000D01*
X103589400Y-129540000D02*
X99285700Y-129540000D01*
X99285700Y-129540000D02*
X96652800Y-132172900D01*
X96652800Y-132172900D02*
X79169300Y-132172900D01*
X79169300Y-132172900D02*
X76809400Y-129813000D01*
X76809400Y-129813000D02*
X76809400Y-125422400D01*
X76809400Y-125422400D02*
X73187300Y-121800300D01*
X73187300Y-121800300D02*
X72199500Y-121800300D01*
X72199500Y-120650000D02*
X72199500Y-121800300D01*
X71395800Y-104902800D02*
X71395800Y-103634000D01*
X71395800Y-103634000D02*
X75033100Y-99996700D01*
X75033100Y-99996700D02*
X75125000Y-99996700D01*
X73850700Y-82436700D02*
X73850700Y-82224100D01*
X73850700Y-82224100D02*
X71640900Y-80014300D01*
X71640900Y-80014300D02*
X71640900Y-71572000D01*
X71640900Y-71572000D02*
X72404600Y-70808300D01*
X72404600Y-70808300D02*
X79228400Y-70808300D01*
X79228400Y-70808300D02*
X80530700Y-72110600D01*
X79254600Y-72110600D02*
X79254600Y-72663600D01*
X79254600Y-72663600D02*
X79965500Y-73374500D01*
X79965500Y-73374500D02*
X81105000Y-73374500D01*
X81105000Y-73374500D02*
X81794700Y-74064200D01*
X81794700Y-74064200D02*
X81794700Y-75371300D01*
X81794700Y-75371300D02*
X87461500Y-81038100D01*
X87461500Y-81038100D02*
X91408300Y-81038100D01*
X91408300Y-81038100D02*
X94309800Y-83939600D01*
X77990700Y-72110600D02*
X79254600Y-72110600D01*
X79254600Y-74650600D02*
X79254600Y-75168200D01*
X79254600Y-75168200D02*
X85724800Y-81638400D01*
X85724800Y-81638400D02*
X89380300Y-81638400D01*
X89380300Y-81638400D02*
X94221500Y-86479600D01*
X94221500Y-86479600D02*
X96131300Y-86479600D01*
X96131300Y-86479600D02*
X96759000Y-87107300D01*
X96759000Y-87107300D02*
X96759000Y-90697700D01*
X96759000Y-90697700D02*
X95897000Y-91559700D01*
X95897000Y-91559700D02*
X95250000Y-91559700D01*
X77990700Y-74650600D02*
X79254600Y-74650600D01*
X95250000Y-92710000D02*
X95250000Y-91559700D01*
X75450700Y-73374500D02*
X75974400Y-73374500D01*
X75974400Y-73374500D02*
X76720700Y-74120800D01*
X76720700Y-74120800D02*
X76720700Y-75168200D01*
X76720700Y-75168200D02*
X77565900Y-76013400D01*
X77565900Y-76013400D02*
X79250700Y-76013400D01*
X79250700Y-76013400D02*
X85476000Y-82238700D01*
X85476000Y-82238700D02*
X88643500Y-82238700D01*
X88643500Y-82238700D02*
X93189400Y-86784600D01*
X75450700Y-72110600D02*
X75450700Y-73374500D01*
X93749700Y-90170000D02*
X93749700Y-89248800D01*
X93749700Y-89248800D02*
X87940200Y-83439300D01*
X87940200Y-83439300D02*
X84731900Y-83439300D01*
X84731900Y-83439300D02*
X81527500Y-80234900D01*
X81527500Y-80234900D02*
X74578900Y-80234900D01*
X74578900Y-80234900D02*
X73325700Y-78981700D01*
X73325700Y-78981700D02*
X73325700Y-77802500D01*
X73325700Y-77802500D02*
X75213700Y-75914500D01*
X75213700Y-75914500D02*
X75450700Y-75914500D01*
X75450700Y-74650600D02*
X75450700Y-75914500D01*
X95250000Y-90170000D02*
X93749700Y-90170000D01*
X72910700Y-73374500D02*
X73434400Y-73374500D01*
X73434400Y-73374500D02*
X74180700Y-74120800D01*
X74180700Y-74120800D02*
X74180700Y-75933600D01*
X74180700Y-75933600D02*
X72722000Y-77392300D01*
X72722000Y-77392300D02*
X72722000Y-79248100D01*
X72722000Y-79248100D02*
X77399900Y-83926000D01*
X77399900Y-83926000D02*
X81446700Y-83926000D01*
X81446700Y-83926000D02*
X83280300Y-85759600D01*
X83280300Y-85759600D02*
X83913400Y-85759600D01*
X83913400Y-85759600D02*
X89440800Y-91287000D01*
X89440800Y-91287000D02*
X89440800Y-92840100D01*
X89440800Y-92840100D02*
X90602600Y-94001900D01*
X72910700Y-72110600D02*
X72910700Y-73374500D01*
X75808700Y-76490900D02*
X77157400Y-76490900D01*
X77157400Y-76490900D02*
X78976200Y-78309700D01*
X78976200Y-78309700D02*
X80594300Y-78309700D01*
X80594300Y-78309700D02*
X85123600Y-82839000D01*
X85123600Y-82839000D02*
X88281600Y-82839000D01*
X88281600Y-82839000D02*
X93072600Y-87630000D01*
X93072600Y-87630000D02*
X95250000Y-87630000D01*
X96750300Y-95250000D02*
X96750300Y-94306600D01*
X96750300Y-94306600D02*
X102156900Y-88900000D01*
X102156900Y-88900000D02*
X109740900Y-88900000D01*
X109740900Y-88900000D02*
X111295700Y-87345200D01*
X95250000Y-95250000D02*
X96750300Y-95250000D01*
X70370700Y-75914500D02*
X70370700Y-85292400D01*
X70370700Y-85292400D02*
X71438300Y-86360000D01*
X71438300Y-86360000D02*
X83571900Y-86360000D01*
X83571900Y-86360000D02*
X87648600Y-90436700D01*
X70370700Y-74650600D02*
X70370700Y-75914500D01*
X102870000Y-123190000D02*
X102870000Y-122039700D01*
X106680000Y-120650000D02*
X105179700Y-120650000D01*
X105179700Y-120650000D02*
X103790000Y-122039700D01*
X103790000Y-122039700D02*
X102870000Y-122039700D01*
X111912000Y-94599100D02*
X111912000Y-91057700D01*
X111912000Y-91057700D02*
X120419700Y-82550000D01*
X121920000Y-82550000D02*
X120419700Y-82550000D01*
X92743600Y-112129700D02*
X100904600Y-112129700D01*
X100904600Y-112129700D02*
X102544300Y-110490000D01*
X102544300Y-110490000D02*
X106680000Y-110490000D01*
X79819500Y-114419700D02*
X80969700Y-114419700D01*
X80969700Y-114419700D02*
X83259700Y-112129700D01*
X83259700Y-112129700D02*
X92743600Y-112129700D01*
X92743600Y-112129700D02*
X92743600Y-111981000D01*
X83693000Y-98940300D02*
X86880000Y-98940300D01*
X86880000Y-98940300D02*
X89000100Y-101060400D01*
X89000100Y-101060400D02*
X89000100Y-107463700D01*
X89000100Y-107463700D02*
X89450700Y-107914300D01*
X83693000Y-97790000D02*
X83693000Y-98940300D01*
X79819500Y-115570000D02*
X79819500Y-114419700D01*
X95250000Y-118110000D02*
X95250000Y-119260300D01*
X79819500Y-123190000D02*
X81134600Y-124505100D01*
X81134600Y-124505100D02*
X84637300Y-124505100D01*
X84637300Y-124505100D02*
X89882100Y-119260300D01*
X89882100Y-119260300D02*
X95250000Y-119260300D01*
X95250000Y-128270000D02*
X95250000Y-125730000D01*
X95250000Y-128270000D02*
X95250000Y-129420300D01*
X95250000Y-129420300D02*
X94099700Y-129420300D01*
X94099700Y-129420300D02*
X93942200Y-129577800D01*
X93942200Y-129577800D02*
X89730800Y-129577800D01*
X89730800Y-129577800D02*
X89573300Y-129420300D01*
X89573300Y-129420300D02*
X83693000Y-129420300D01*
X83693000Y-128270000D02*
X83693000Y-129420300D01*
X79819500Y-130810000D02*
X81319800Y-130810000D01*
X81319800Y-130810000D02*
X82709500Y-129420300D01*
X82709500Y-129420300D02*
X83693000Y-129420300D01*
X72199500Y-109100300D02*
X72797100Y-109100300D01*
X72797100Y-109100300D02*
X77811800Y-114115000D01*
X77811800Y-114115000D02*
X77811800Y-115582100D01*
X77811800Y-115582100D02*
X79122600Y-116892900D01*
X79122600Y-116892900D02*
X80579200Y-116892900D01*
X80579200Y-116892900D02*
X81756200Y-118069900D01*
X81756200Y-118069900D02*
X81756200Y-118229800D01*
X81756200Y-118229800D02*
X83026100Y-119499700D01*
X83026100Y-119499700D02*
X83693000Y-119499700D01*
X83693000Y-120650000D02*
X83693000Y-119499700D01*
X72199500Y-107950000D02*
X72199500Y-109100300D01*
X79784900Y-90698400D02*
X81635500Y-92549000D01*
X81635500Y-92549000D02*
X81635500Y-102793700D01*
X81635500Y-102793700D02*
X82875800Y-104034000D01*
X82875800Y-104034000D02*
X84536400Y-104034000D01*
X84536400Y-104034000D02*
X88054900Y-107552500D01*
X88054900Y-107552500D02*
X88054900Y-107919400D01*
X79784900Y-90698400D02*
X79819500Y-90663800D01*
X72199500Y-91559700D02*
X78923600Y-91559700D01*
X78923600Y-91559700D02*
X79784900Y-90698400D01*
X72199500Y-92710000D02*
X72199500Y-91559700D01*
X79819500Y-90170000D02*
X79819500Y-90663800D01*
X79819500Y-111879700D02*
X79172500Y-111879700D01*
X79172500Y-111879700D02*
X73381900Y-106089100D01*
X73381900Y-106089100D02*
X73381900Y-102641500D01*
X73381900Y-102641500D02*
X74469800Y-101553600D01*
X79819500Y-113030000D02*
X79819500Y-111879700D01*
X79819500Y-125730000D02*
X79819500Y-124579700D01*
X79819500Y-124579700D02*
X78669200Y-124579700D01*
X78669200Y-124579700D02*
X73469500Y-119380000D01*
X73469500Y-119380000D02*
X71478200Y-119380000D01*
X71478200Y-119380000D02*
X70069900Y-117971700D01*
X70069900Y-117971700D02*
X70069900Y-89759600D01*
X70069900Y-89759600D02*
X72199500Y-87630000D01*
X113018800Y-83309400D02*
X109968200Y-86360000D01*
X109968200Y-86360000D02*
X102103200Y-86360000D01*
X102103200Y-86360000D02*
X99246200Y-89217000D01*
X99246200Y-89217000D02*
X99246200Y-90764100D01*
X99246200Y-90764100D02*
X96150000Y-93860300D01*
X96150000Y-93860300D02*
X91313000Y-93860300D01*
X91313000Y-95250000D02*
X91313000Y-93860300D01*
X91313000Y-92710000D02*
X91313000Y-93860300D01*
X83693000Y-100330000D02*
X85193300Y-100330000D01*
X88161700Y-101224000D02*
X86087300Y-101224000D01*
X86087300Y-101224000D02*
X85193300Y-100330000D01*
X119756500Y-62420500D02*
X122173500Y-62420500D01*
X122173500Y-62420500D02*
X128714000Y-55880000D01*
X128714000Y-55880000D02*
X136293400Y-55880000D01*
X136293400Y-55880000D02*
X144033100Y-48140300D01*
X144033100Y-48140300D02*
X144780000Y-48140300D01*
X118554000Y-62420500D02*
X119756500Y-62420500D01*
X119756500Y-62420500D02*
X119756500Y-73156000D01*
X119756500Y-73156000D02*
X118554000Y-74358500D01*
X83693000Y-101480300D02*
X83693000Y-101719700D01*
X83693000Y-102870000D02*
X83693000Y-101719700D01*
X83693000Y-100330000D02*
X83693000Y-101480300D01*
X144780000Y-46990000D02*
X144780000Y-48140300D01*
X129540000Y-46990000D02*
X132080000Y-46990000D01*
X129540000Y-49530000D02*
X132080000Y-49530000D01*
X129540000Y-52070000D02*
X132080000Y-52070000D01*
X129540000Y-54610000D02*
X132080000Y-54610000D01*
X129540000Y-57150000D02*
X132080000Y-57150000D01*
X129540000Y-59690000D02*
X132080000Y-59690000D01*
X129540000Y-62230000D02*
X132080000Y-62230000D01*
X129540000Y-64770000D02*
X132080000Y-64770000D01*
X129540000Y-67310000D02*
X132080000Y-67310000D01*
X129540000Y-69850000D02*
X132080000Y-69850000D01*
X129540000Y-72390000D02*
X132080000Y-72390000D01*
X144780000Y-74930000D02*
X147320000Y-74930000D01*
X144780000Y-72390000D02*
X147320000Y-72390000D01*
X144780000Y-69850000D02*
X147320000Y-69850000D01*
X144780000Y-67310000D02*
X147320000Y-67310000D01*
X144780000Y-64770000D02*
X147320000Y-64770000D01*
X144780000Y-54610000D02*
X144780000Y-55760300D01*
X144780000Y-55760300D02*
X144133000Y-55760300D01*
X144133000Y-55760300D02*
X143262200Y-56631100D01*
X143262200Y-56631100D02*
X143262200Y-60164300D01*
X143262200Y-60164300D02*
X143951900Y-60854000D01*
X143951900Y-60854000D02*
X145944000Y-60854000D01*
X145944000Y-60854000D02*
X147320000Y-62230000D01*
X144780000Y-59690000D02*
X147320000Y-59690000D01*
X144780000Y-57150000D02*
X147320000Y-57150000D01*
X144780000Y-52070000D02*
X147320000Y-52070000D01*
X144780000Y-49530000D02*
X147320000Y-49530000D01*
X91313000Y-120650000D02*
X91313000Y-121800300D01*
X102870000Y-127282700D02*
X100618500Y-127282700D01*
X100618500Y-127282700D02*
X97795800Y-124460000D01*
X97795800Y-124460000D02*
X94536400Y-124460000D01*
X94536400Y-124460000D02*
X93281500Y-123205100D01*
X93281500Y-123205100D02*
X93281500Y-123073600D01*
X93281500Y-123073600D02*
X92008200Y-121800300D01*
X92008200Y-121800300D02*
X91313000Y-121800300D01*
X102870000Y-127282700D02*
X102870000Y-127119700D01*
X102870000Y-128270000D02*
X102870000Y-127282700D01*
X111240800Y-96520000D02*
X111240800Y-88691300D01*
X111240800Y-88691300D02*
X113683400Y-86248700D01*
X113683400Y-86248700D02*
X113683400Y-83007100D01*
X113683400Y-83007100D02*
X113243100Y-82566800D01*
X113243100Y-82566800D02*
X113194500Y-82566800D01*
X111240800Y-96520000D02*
X89481700Y-96520000D01*
X89481700Y-96520000D02*
X84401700Y-91440000D01*
X84401700Y-91440000D02*
X82942700Y-91440000D01*
X82942700Y-91440000D02*
X81875800Y-90373100D01*
X81875800Y-90373100D02*
X81875800Y-90220600D01*
X81875800Y-90220600D02*
X80674900Y-89019700D01*
X80674900Y-89019700D02*
X72199500Y-89019700D01*
X102870000Y-127119700D02*
X103477000Y-127119700D01*
X103477000Y-127119700D02*
X104744400Y-125852300D01*
X104744400Y-125852300D02*
X104744400Y-125632700D01*
X104744400Y-125632700D02*
X105897600Y-124479500D01*
X105897600Y-124479500D02*
X109728900Y-124479500D01*
X109728900Y-124479500D02*
X112372400Y-121836000D01*
X112372400Y-121836000D02*
X112372400Y-102075000D01*
X112372400Y-102075000D02*
X111828000Y-101530600D01*
X111828000Y-101530600D02*
X111828000Y-97107200D01*
X111828000Y-97107200D02*
X111240800Y-96520000D01*
X72199500Y-90170000D02*
X72199500Y-89019700D01*
X98829800Y-114065800D02*
X98627100Y-114268500D01*
X98627100Y-114268500D02*
X93717400Y-114268500D01*
X93717400Y-114268500D02*
X83844200Y-114268500D01*
X83844200Y-114268500D02*
X83693000Y-114419700D01*
X126174000Y-77343000D02*
X124973700Y-77343000D01*
X95250000Y-82550000D02*
X95250000Y-83700300D01*
X95250000Y-83700300D02*
X95412000Y-83862300D01*
X95412000Y-83862300D02*
X103798300Y-83862300D01*
X103798300Y-83862300D02*
X104775000Y-82885600D01*
X104775000Y-82885600D02*
X104775000Y-82234500D01*
X104775000Y-82234500D02*
X106602400Y-80407100D01*
X106602400Y-80407100D02*
X121909600Y-80407100D01*
X121909600Y-80407100D02*
X124973700Y-77343000D01*
X83693000Y-115570000D02*
X83693000Y-114419700D01*
X86763500Y-79374500D02*
X87826800Y-80437800D01*
X87826800Y-80437800D02*
X93415400Y-80437800D01*
X93415400Y-80437800D02*
X93482000Y-80504400D01*
X93482000Y-80504400D02*
X101748000Y-80504400D01*
X101748000Y-80504400D02*
X107465700Y-74786700D01*
X107465700Y-74786700D02*
X116341600Y-74786700D01*
X116341600Y-74786700D02*
X118554000Y-72574300D01*
X118554000Y-71374000D02*
X118554000Y-72574300D01*
X72199500Y-85090000D02*
X79819500Y-85090000D01*
D23*
G36*
X120796812Y-124347157D02*
G01*
X121007927Y-124460000D01*
X120796812Y-124572843D01*
X120585919Y-124745919D01*
X120412843Y-124956812D01*
X120284236Y-125197419D01*
X120205040Y-125458493D01*
X120178299Y-125730000D01*
X120205040Y-126001507D01*
X120284236Y-126262581D01*
X120412843Y-126503188D01*
X120585919Y-126714081D01*
X120796812Y-126887157D01*
X121007927Y-127000000D01*
X120796812Y-127112843D01*
X120585919Y-127285919D01*
X120412843Y-127496812D01*
X120284236Y-127737419D01*
X120205040Y-127998493D01*
X120178299Y-128270000D01*
X120205040Y-128541507D01*
X120284236Y-128802581D01*
X120412843Y-129043188D01*
X120585919Y-129254081D01*
X120796812Y-129427157D01*
X121007927Y-129540000D01*
X120796812Y-129652843D01*
X120585919Y-129825919D01*
X120412843Y-130036812D01*
X120284236Y-130277419D01*
X120205040Y-130538493D01*
X120178299Y-130810000D01*
X120205040Y-131081507D01*
X120284236Y-131342581D01*
X120412843Y-131583188D01*
X120585919Y-131794081D01*
X120796812Y-131967157D01*
X121037419Y-132095764D01*
X121298493Y-132174960D01*
X121501963Y-132195000D01*
X122338037Y-132195000D01*
X122541507Y-132174960D01*
X122802581Y-132095764D01*
X123043188Y-131967157D01*
X123254081Y-131794081D01*
X123300318Y-131737742D01*
X123404866Y-131865134D01*
X123630986Y-132050706D01*
X123888966Y-132188599D01*
X124168889Y-132273513D01*
X124387050Y-132295000D01*
X124532950Y-132295000D01*
X124751111Y-132273513D01*
X125031034Y-132188599D01*
X125114905Y-132143769D01*
X124973418Y-132260817D01*
X124659838Y-132430369D01*
X124319288Y-132535787D01*
X123931928Y-132576500D01*
X97430067Y-132576500D01*
X99631569Y-130375000D01*
X101204635Y-130375000D01*
X101155040Y-130538493D01*
X101128299Y-130810000D01*
X101155040Y-131081507D01*
X101234236Y-131342581D01*
X101362843Y-131583188D01*
X101535919Y-131794081D01*
X101746812Y-131967157D01*
X101987419Y-132095764D01*
X102248493Y-132174960D01*
X102451963Y-132195000D01*
X103288037Y-132195000D01*
X103491507Y-132174960D01*
X103752581Y-132095764D01*
X103993188Y-131967157D01*
X104204081Y-131794081D01*
X104377157Y-131583188D01*
X104505764Y-131342581D01*
X104584960Y-131081507D01*
X104611701Y-130810000D01*
X104584960Y-130538493D01*
X104505764Y-130277419D01*
X104377157Y-130036812D01*
X104330413Y-129979854D01*
X105215321Y-129094947D01*
X105345919Y-129254081D01*
X105556812Y-129427157D01*
X105767927Y-129540000D01*
X105556812Y-129652843D01*
X105345919Y-129825919D01*
X105172843Y-130036812D01*
X105044236Y-130277419D01*
X104965040Y-130538493D01*
X104938299Y-130810000D01*
X104965040Y-131081507D01*
X105044236Y-131342581D01*
X105172843Y-131583188D01*
X105345919Y-131794081D01*
X105556812Y-131967157D01*
X105797419Y-132095764D01*
X106058493Y-132174960D01*
X106261963Y-132195000D01*
X107098037Y-132195000D01*
X107301507Y-132174960D01*
X107562581Y-132095764D01*
X107803188Y-131967157D01*
X107830186Y-131945000D01*
X108262183Y-131945000D01*
X108390986Y-132050706D01*
X108648966Y-132188599D01*
X108928889Y-132273513D01*
X109147050Y-132295000D01*
X109292950Y-132295000D01*
X109511111Y-132273513D01*
X109791034Y-132188599D01*
X110049014Y-132050706D01*
X110177817Y-131945000D01*
X110864549Y-131945000D01*
X110920300Y-131950491D01*
X111142799Y-131928577D01*
X111356747Y-131863676D01*
X111553923Y-131758284D01*
X111726749Y-131616449D01*
X111868584Y-131443623D01*
X111973976Y-131246447D01*
X112038877Y-131032499D01*
X112055300Y-130865752D01*
X112060791Y-130810000D01*
X112055300Y-130754248D01*
X112055300Y-129619831D01*
X113247282Y-128427850D01*
X113488574Y-128379853D01*
X113749727Y-128271680D01*
X113984759Y-128114637D01*
X114106694Y-127992702D01*
X114756903Y-127992702D01*
X114828486Y-128236671D01*
X115083996Y-128357571D01*
X115358184Y-128426300D01*
X115640512Y-128440217D01*
X115920130Y-128398787D01*
X116186292Y-128303603D01*
X116311514Y-128236671D01*
X116383097Y-127992702D01*
X115570000Y-127179605D01*
X114756903Y-127992702D01*
X114106694Y-127992702D01*
X114184637Y-127914759D01*
X114318692Y-127714131D01*
X114333329Y-127741514D01*
X114577298Y-127813097D01*
X115390395Y-127000000D01*
X115749605Y-127000000D01*
X116562702Y-127813097D01*
X116806671Y-127741514D01*
X116927571Y-127486004D01*
X116996300Y-127211816D01*
X117010217Y-126929488D01*
X116968787Y-126649870D01*
X116873603Y-126383708D01*
X116806671Y-126258486D01*
X116562702Y-126186903D01*
X115749605Y-127000000D01*
X115390395Y-127000000D01*
X115376253Y-126985858D01*
X115555858Y-126806253D01*
X115570000Y-126820395D01*
X116383097Y-126007298D01*
X116311514Y-125763329D01*
X116056004Y-125642429D01*
X116037373Y-125637759D01*
X117350133Y-124325000D01*
X120769814Y-124325000D01*
X120796812Y-124347157D01*
X120796812Y-124347157D01*
G37*
X120796812Y-124347157D02*
X121007927Y-124460000D01*
X120796812Y-124572843D01*
X120585919Y-124745919D01*
X120412843Y-124956812D01*
X120284236Y-125197419D01*
X120205040Y-125458493D01*
X120178299Y-125730000D01*
X120205040Y-126001507D01*
X120284236Y-126262581D01*
X120412843Y-126503188D01*
X120585919Y-126714081D01*
X120796812Y-126887157D01*
X121007927Y-127000000D01*
X120796812Y-127112843D01*
X120585919Y-127285919D01*
X120412843Y-127496812D01*
X120284236Y-127737419D01*
X120205040Y-127998493D01*
X120178299Y-128270000D01*
X120205040Y-128541507D01*
X120284236Y-128802581D01*
X120412843Y-129043188D01*
X120585919Y-129254081D01*
X120796812Y-129427157D01*
X121007927Y-129540000D01*
X120796812Y-129652843D01*
X120585919Y-129825919D01*
X120412843Y-130036812D01*
X120284236Y-130277419D01*
X120205040Y-130538493D01*
X120178299Y-130810000D01*
X120205040Y-131081507D01*
X120284236Y-131342581D01*
X120412843Y-131583188D01*
X120585919Y-131794081D01*
X120796812Y-131967157D01*
X121037419Y-132095764D01*
X121298493Y-132174960D01*
X121501963Y-132195000D01*
X122338037Y-132195000D01*
X122541507Y-132174960D01*
X122802581Y-132095764D01*
X123043188Y-131967157D01*
X123254081Y-131794081D01*
X123300318Y-131737742D01*
X123404866Y-131865134D01*
X123630986Y-132050706D01*
X123888966Y-132188599D01*
X124168889Y-132273513D01*
X124387050Y-132295000D01*
X124532950Y-132295000D01*
X124751111Y-132273513D01*
X125031034Y-132188599D01*
X125114905Y-132143769D01*
X124973418Y-132260817D01*
X124659838Y-132430369D01*
X124319288Y-132535787D01*
X123931928Y-132576500D01*
X97430067Y-132576500D01*
X99631569Y-130375000D01*
X101204635Y-130375000D01*
X101155040Y-130538493D01*
X101128299Y-130810000D01*
X101155040Y-131081507D01*
X101234236Y-131342581D01*
X101362843Y-131583188D01*
X101535919Y-131794081D01*
X101746812Y-131967157D01*
X101987419Y-132095764D01*
X102248493Y-132174960D01*
X102451963Y-132195000D01*
X103288037Y-132195000D01*
X103491507Y-132174960D01*
X103752581Y-132095764D01*
X103993188Y-131967157D01*
X104204081Y-131794081D01*
X104377157Y-131583188D01*
X104505764Y-131342581D01*
X104584960Y-131081507D01*
X104611701Y-130810000D01*
X104584960Y-130538493D01*
X104505764Y-130277419D01*
X104377157Y-130036812D01*
X104330413Y-129979854D01*
X105215321Y-129094947D01*
X105345919Y-129254081D01*
X105556812Y-129427157D01*
X105767927Y-129540000D01*
X105556812Y-129652843D01*
X105345919Y-129825919D01*
X105172843Y-130036812D01*
X105044236Y-130277419D01*
X104965040Y-130538493D01*
X104938299Y-130810000D01*
X104965040Y-131081507D01*
X105044236Y-131342581D01*
X105172843Y-131583188D01*
X105345919Y-131794081D01*
X105556812Y-131967157D01*
X105797419Y-132095764D01*
X106058493Y-132174960D01*
X106261963Y-132195000D01*
X107098037Y-132195000D01*
X107301507Y-132174960D01*
X107562581Y-132095764D01*
X107803188Y-131967157D01*
X107830186Y-131945000D01*
X108262183Y-131945000D01*
X108390986Y-132050706D01*
X108648966Y-132188599D01*
X108928889Y-132273513D01*
X109147050Y-132295000D01*
X109292950Y-132295000D01*
X109511111Y-132273513D01*
X109791034Y-132188599D01*
X110049014Y-132050706D01*
X110177817Y-131945000D01*
X110864549Y-131945000D01*
X110920300Y-131950491D01*
X111142799Y-131928577D01*
X111356747Y-131863676D01*
X111553923Y-131758284D01*
X111726749Y-131616449D01*
X111868584Y-131443623D01*
X111973976Y-131246447D01*
X112038877Y-131032499D01*
X112055300Y-130865752D01*
X112060791Y-130810000D01*
X112055300Y-130754248D01*
X112055300Y-129619831D01*
X113247282Y-128427850D01*
X113488574Y-128379853D01*
X113749727Y-128271680D01*
X113984759Y-128114637D01*
X114106694Y-127992702D01*
X114756903Y-127992702D01*
X114828486Y-128236671D01*
X115083996Y-128357571D01*
X115358184Y-128426300D01*
X115640512Y-128440217D01*
X115920130Y-128398787D01*
X116186292Y-128303603D01*
X116311514Y-128236671D01*
X116383097Y-127992702D01*
X115570000Y-127179605D01*
X114756903Y-127992702D01*
X114106694Y-127992702D01*
X114184637Y-127914759D01*
X114318692Y-127714131D01*
X114333329Y-127741514D01*
X114577298Y-127813097D01*
X115390395Y-127000000D01*
X115749605Y-127000000D01*
X116562702Y-127813097D01*
X116806671Y-127741514D01*
X116927571Y-127486004D01*
X116996300Y-127211816D01*
X117010217Y-126929488D01*
X116968787Y-126649870D01*
X116873603Y-126383708D01*
X116806671Y-126258486D01*
X116562702Y-126186903D01*
X115749605Y-127000000D01*
X115390395Y-127000000D01*
X115376253Y-126985858D01*
X115555858Y-126806253D01*
X115570000Y-126820395D01*
X116383097Y-126007298D01*
X116311514Y-125763329D01*
X116056004Y-125642429D01*
X116037373Y-125637759D01*
X117350133Y-124325000D01*
X120769814Y-124325000D01*
X120796812Y-124347157D01*
G36*
X70738230Y-119820899D02*
G01*
X70692343Y-119876812D01*
X70563736Y-120117419D01*
X70484540Y-120378493D01*
X70457799Y-120650000D01*
X70484540Y-120921507D01*
X70563736Y-121182581D01*
X70692343Y-121423188D01*
X70865419Y-121634081D01*
X71076312Y-121807157D01*
X71287427Y-121920000D01*
X71076312Y-122032843D01*
X70865419Y-122205919D01*
X70692343Y-122416812D01*
X70563736Y-122657419D01*
X70484540Y-122918493D01*
X70457799Y-123190000D01*
X70484540Y-123461507D01*
X70563736Y-123722581D01*
X70692343Y-123963188D01*
X70865419Y-124174081D01*
X71076312Y-124347157D01*
X71287427Y-124460000D01*
X71076312Y-124572843D01*
X70865419Y-124745919D01*
X70692343Y-124956812D01*
X70563736Y-125197419D01*
X70484540Y-125458493D01*
X70457799Y-125730000D01*
X70484540Y-126001507D01*
X70563736Y-126262581D01*
X70692343Y-126503188D01*
X70865419Y-126714081D01*
X71076312Y-126887157D01*
X71287427Y-127000000D01*
X71076312Y-127112843D01*
X70865419Y-127285919D01*
X70692343Y-127496812D01*
X70563736Y-127737419D01*
X70484540Y-127998493D01*
X70457799Y-128270000D01*
X70484540Y-128541507D01*
X70563736Y-128802581D01*
X70692343Y-129043188D01*
X70865419Y-129254081D01*
X71076312Y-129427157D01*
X71292078Y-129542486D01*
X71202151Y-129579028D01*
X70974439Y-129728972D01*
X70780355Y-129920460D01*
X70627358Y-130146132D01*
X70521327Y-130397316D01*
X70507182Y-130468815D01*
X70629844Y-130683000D01*
X72072500Y-130683000D01*
X72072500Y-130663000D01*
X72326500Y-130663000D01*
X72326500Y-130683000D01*
X73769156Y-130683000D01*
X73891818Y-130468815D01*
X73877673Y-130397316D01*
X73771642Y-130146132D01*
X73618645Y-129920460D01*
X73424561Y-129728972D01*
X73196849Y-129579028D01*
X73106922Y-129542486D01*
X73322688Y-129427157D01*
X73533581Y-129254081D01*
X73655929Y-129105000D01*
X73658781Y-129105000D01*
X73699800Y-129109040D01*
X73740818Y-129105000D01*
X73740819Y-129105000D01*
X73863489Y-129092918D01*
X74020887Y-129045172D01*
X74165946Y-128967636D01*
X74293091Y-128863291D01*
X74397436Y-128736146D01*
X74474972Y-128591087D01*
X74489904Y-128541863D01*
X75974401Y-127057367D01*
X75974400Y-129771981D01*
X75970360Y-129813000D01*
X75974400Y-129854018D01*
X75986482Y-129976688D01*
X76034228Y-130134086D01*
X76111764Y-130279145D01*
X76216109Y-130406291D01*
X76247979Y-130432446D01*
X78392031Y-132576500D01*
X72234220Y-132576500D01*
X71844716Y-132538309D01*
X71503437Y-132435271D01*
X71188675Y-132267909D01*
X70912417Y-132042597D01*
X70685183Y-131767918D01*
X70515631Y-131454338D01*
X70421790Y-131151185D01*
X70507182Y-131151185D01*
X70521327Y-131222684D01*
X70627358Y-131473868D01*
X70780355Y-131699540D01*
X70974439Y-131891028D01*
X71202151Y-132040972D01*
X71454740Y-132143611D01*
X71722500Y-132195000D01*
X72072500Y-132195000D01*
X72072500Y-130937000D01*
X72326500Y-130937000D01*
X72326500Y-132195000D01*
X72676500Y-132195000D01*
X72944260Y-132143611D01*
X73196849Y-132040972D01*
X73424561Y-131891028D01*
X73618645Y-131699540D01*
X73771642Y-131473868D01*
X73877673Y-131222684D01*
X73891818Y-131151185D01*
X73769156Y-130937000D01*
X72326500Y-130937000D01*
X72072500Y-130937000D01*
X70629844Y-130937000D01*
X70507182Y-131151185D01*
X70421790Y-131151185D01*
X70410213Y-131113788D01*
X70369500Y-130726428D01*
X70369500Y-119452168D01*
X70738230Y-119820899D01*
X70738230Y-119820899D01*
G37*
X70738230Y-119820899D02*
X70692343Y-119876812D01*
X70563736Y-120117419D01*
X70484540Y-120378493D01*
X70457799Y-120650000D01*
X70484540Y-120921507D01*
X70563736Y-121182581D01*
X70692343Y-121423188D01*
X70865419Y-121634081D01*
X71076312Y-121807157D01*
X71287427Y-121920000D01*
X71076312Y-122032843D01*
X70865419Y-122205919D01*
X70692343Y-122416812D01*
X70563736Y-122657419D01*
X70484540Y-122918493D01*
X70457799Y-123190000D01*
X70484540Y-123461507D01*
X70563736Y-123722581D01*
X70692343Y-123963188D01*
X70865419Y-124174081D01*
X71076312Y-124347157D01*
X71287427Y-124460000D01*
X71076312Y-124572843D01*
X70865419Y-124745919D01*
X70692343Y-124956812D01*
X70563736Y-125197419D01*
X70484540Y-125458493D01*
X70457799Y-125730000D01*
X70484540Y-126001507D01*
X70563736Y-126262581D01*
X70692343Y-126503188D01*
X70865419Y-126714081D01*
X71076312Y-126887157D01*
X71287427Y-127000000D01*
X71076312Y-127112843D01*
X70865419Y-127285919D01*
X70692343Y-127496812D01*
X70563736Y-127737419D01*
X70484540Y-127998493D01*
X70457799Y-128270000D01*
X70484540Y-128541507D01*
X70563736Y-128802581D01*
X70692343Y-129043188D01*
X70865419Y-129254081D01*
X71076312Y-129427157D01*
X71292078Y-129542486D01*
X71202151Y-129579028D01*
X70974439Y-129728972D01*
X70780355Y-129920460D01*
X70627358Y-130146132D01*
X70521327Y-130397316D01*
X70507182Y-130468815D01*
X70629844Y-130683000D01*
X72072500Y-130683000D01*
X72072500Y-130663000D01*
X72326500Y-130663000D01*
X72326500Y-130683000D01*
X73769156Y-130683000D01*
X73891818Y-130468815D01*
X73877673Y-130397316D01*
X73771642Y-130146132D01*
X73618645Y-129920460D01*
X73424561Y-129728972D01*
X73196849Y-129579028D01*
X73106922Y-129542486D01*
X73322688Y-129427157D01*
X73533581Y-129254081D01*
X73655929Y-129105000D01*
X73658781Y-129105000D01*
X73699800Y-129109040D01*
X73740818Y-129105000D01*
X73740819Y-129105000D01*
X73863489Y-129092918D01*
X74020887Y-129045172D01*
X74165946Y-128967636D01*
X74293091Y-128863291D01*
X74397436Y-128736146D01*
X74474972Y-128591087D01*
X74489904Y-128541863D01*
X75974401Y-127057367D01*
X75974400Y-129771981D01*
X75970360Y-129813000D01*
X75974400Y-129854018D01*
X75986482Y-129976688D01*
X76034228Y-130134086D01*
X76111764Y-130279145D01*
X76216109Y-130406291D01*
X76247979Y-130432446D01*
X78392031Y-132576500D01*
X72234220Y-132576500D01*
X71844716Y-132538309D01*
X71503437Y-132435271D01*
X71188675Y-132267909D01*
X70912417Y-132042597D01*
X70685183Y-131767918D01*
X70515631Y-131454338D01*
X70421790Y-131151185D01*
X70507182Y-131151185D01*
X70521327Y-131222684D01*
X70627358Y-131473868D01*
X70780355Y-131699540D01*
X70974439Y-131891028D01*
X71202151Y-132040972D01*
X71454740Y-132143611D01*
X71722500Y-132195000D01*
X72072500Y-132195000D01*
X72072500Y-130937000D01*
X72326500Y-130937000D01*
X72326500Y-132195000D01*
X72676500Y-132195000D01*
X72944260Y-132143611D01*
X73196849Y-132040972D01*
X73424561Y-131891028D01*
X73618645Y-131699540D01*
X73771642Y-131473868D01*
X73877673Y-131222684D01*
X73891818Y-131151185D01*
X73769156Y-130937000D01*
X72326500Y-130937000D01*
X72072500Y-130937000D01*
X70629844Y-130937000D01*
X70507182Y-131151185D01*
X70421790Y-131151185D01*
X70410213Y-131113788D01*
X70369500Y-130726428D01*
X70369500Y-119452168D01*
X70738230Y-119820899D01*
G36*
X93557682Y-130468815D02*
G01*
X93680344Y-130683000D01*
X95123000Y-130683000D01*
X95123000Y-130663000D01*
X95377000Y-130663000D01*
X95377000Y-130683000D01*
X95397000Y-130683000D01*
X95397000Y-130937000D01*
X95377000Y-130937000D01*
X95377000Y-130957000D01*
X95123000Y-130957000D01*
X95123000Y-130937000D01*
X93680344Y-130937000D01*
X93557682Y-131151185D01*
X93571827Y-131222684D01*
X93620463Y-131337900D01*
X92950184Y-131337900D01*
X93027960Y-131081507D01*
X93054701Y-130810000D01*
X93027960Y-130538493D01*
X92989831Y-130412800D01*
X93568764Y-130412800D01*
X93557682Y-130468815D01*
X93557682Y-130468815D01*
G37*
X93557682Y-130468815D02*
X93680344Y-130683000D01*
X95123000Y-130683000D01*
X95123000Y-130663000D01*
X95377000Y-130663000D01*
X95377000Y-130683000D01*
X95397000Y-130683000D01*
X95397000Y-130937000D01*
X95377000Y-130937000D01*
X95377000Y-130957000D01*
X95123000Y-130957000D01*
X95123000Y-130937000D01*
X93680344Y-130937000D01*
X93557682Y-131151185D01*
X93571827Y-131222684D01*
X93620463Y-131337900D01*
X92950184Y-131337900D01*
X93027960Y-131081507D01*
X93054701Y-130810000D01*
X93027960Y-130538493D01*
X92989831Y-130412800D01*
X93568764Y-130412800D01*
X93557682Y-130468815D01*
G36*
X89264654Y-130275436D02*
G01*
X89409713Y-130352972D01*
X89567111Y-130400718D01*
X89637724Y-130407673D01*
X89598040Y-130538493D01*
X89571299Y-130810000D01*
X89598040Y-131081507D01*
X89675816Y-131337900D01*
X85322537Y-131337900D01*
X85371173Y-131222684D01*
X85385318Y-131151185D01*
X85262656Y-130937000D01*
X83820000Y-130937000D01*
X83820000Y-130957000D01*
X83566000Y-130957000D01*
X83566000Y-130937000D01*
X83546000Y-130937000D01*
X83546000Y-130683000D01*
X83566000Y-130683000D01*
X83566000Y-130663000D01*
X83820000Y-130663000D01*
X83820000Y-130683000D01*
X85262656Y-130683000D01*
X85385318Y-130468815D01*
X85371173Y-130397316D01*
X85311225Y-130255300D01*
X89240118Y-130255300D01*
X89264654Y-130275436D01*
X89264654Y-130275436D01*
G37*
X89264654Y-130275436D02*
X89409713Y-130352972D01*
X89567111Y-130400718D01*
X89637724Y-130407673D01*
X89598040Y-130538493D01*
X89571299Y-130810000D01*
X89598040Y-131081507D01*
X89675816Y-131337900D01*
X85322537Y-131337900D01*
X85371173Y-131222684D01*
X85385318Y-131151185D01*
X85262656Y-130937000D01*
X83820000Y-130937000D01*
X83820000Y-130957000D01*
X83566000Y-130957000D01*
X83566000Y-130937000D01*
X83546000Y-130937000D01*
X83546000Y-130683000D01*
X83566000Y-130683000D01*
X83566000Y-130663000D01*
X83820000Y-130663000D01*
X83820000Y-130683000D01*
X85262656Y-130683000D01*
X85385318Y-130468815D01*
X85371173Y-130397316D01*
X85311225Y-130255300D01*
X89240118Y-130255300D01*
X89264654Y-130275436D01*
G36*
X99999063Y-127844132D02*
G01*
X100025209Y-127875991D01*
X100152354Y-127980336D01*
X100297413Y-128057872D01*
X100454811Y-128105618D01*
X100577481Y-128117700D01*
X100577482Y-128117700D01*
X100618500Y-128121740D01*
X100659518Y-128117700D01*
X101143299Y-128117700D01*
X101128299Y-128270000D01*
X101155040Y-128541507D01*
X101204635Y-128705000D01*
X99326718Y-128705000D01*
X99285700Y-128700960D01*
X99244681Y-128705000D01*
X99122011Y-128717082D01*
X98964613Y-128764828D01*
X98819554Y-128842364D01*
X98692409Y-128946709D01*
X98666263Y-128978568D01*
X96961834Y-130682998D01*
X96819657Y-130682998D01*
X96942318Y-130468815D01*
X96928173Y-130397316D01*
X96822142Y-130146132D01*
X96669145Y-129920460D01*
X96475061Y-129728972D01*
X96247349Y-129579028D01*
X96157422Y-129542486D01*
X96373188Y-129427157D01*
X96584081Y-129254081D01*
X96757157Y-129043188D01*
X96885764Y-128802581D01*
X96964960Y-128541507D01*
X96991701Y-128270000D01*
X96964960Y-127998493D01*
X96885764Y-127737419D01*
X96757157Y-127496812D01*
X96584081Y-127285919D01*
X96373188Y-127112843D01*
X96162073Y-127000000D01*
X96373188Y-126887157D01*
X96584081Y-126714081D01*
X96757157Y-126503188D01*
X96885764Y-126262581D01*
X96964960Y-126001507D01*
X96991701Y-125730000D01*
X96964960Y-125458493D01*
X96915365Y-125295000D01*
X97449933Y-125295000D01*
X99999063Y-127844132D01*
X99999063Y-127844132D01*
G37*
X99999063Y-127844132D02*
X100025209Y-127875991D01*
X100152354Y-127980336D01*
X100297413Y-128057872D01*
X100454811Y-128105618D01*
X100577481Y-128117700D01*
X100577482Y-128117700D01*
X100618500Y-128121740D01*
X100659518Y-128117700D01*
X101143299Y-128117700D01*
X101128299Y-128270000D01*
X101155040Y-128541507D01*
X101204635Y-128705000D01*
X99326718Y-128705000D01*
X99285700Y-128700960D01*
X99244681Y-128705000D01*
X99122011Y-128717082D01*
X98964613Y-128764828D01*
X98819554Y-128842364D01*
X98692409Y-128946709D01*
X98666263Y-128978568D01*
X96961834Y-130682998D01*
X96819657Y-130682998D01*
X96942318Y-130468815D01*
X96928173Y-130397316D01*
X96822142Y-130146132D01*
X96669145Y-129920460D01*
X96475061Y-129728972D01*
X96247349Y-129579028D01*
X96157422Y-129542486D01*
X96373188Y-129427157D01*
X96584081Y-129254081D01*
X96757157Y-129043188D01*
X96885764Y-128802581D01*
X96964960Y-128541507D01*
X96991701Y-128270000D01*
X96964960Y-127998493D01*
X96885764Y-127737419D01*
X96757157Y-127496812D01*
X96584081Y-127285919D01*
X96373188Y-127112843D01*
X96162073Y-127000000D01*
X96373188Y-126887157D01*
X96584081Y-126714081D01*
X96757157Y-126503188D01*
X96885764Y-126262581D01*
X96964960Y-126001507D01*
X96991701Y-125730000D01*
X96964960Y-125458493D01*
X96915365Y-125295000D01*
X97449933Y-125295000D01*
X99999063Y-127844132D01*
G36*
X78049759Y-125141127D02*
G01*
X78075909Y-125172991D01*
X78168176Y-125248713D01*
X78104540Y-125458493D01*
X78077799Y-125730000D01*
X78104540Y-126001507D01*
X78183736Y-126262581D01*
X78312343Y-126503188D01*
X78485419Y-126714081D01*
X78696312Y-126887157D01*
X78907427Y-127000000D01*
X78696312Y-127112843D01*
X78485419Y-127285919D01*
X78312343Y-127496812D01*
X78183736Y-127737419D01*
X78104540Y-127998493D01*
X78077799Y-128270000D01*
X78104540Y-128541507D01*
X78183736Y-128802581D01*
X78312343Y-129043188D01*
X78485419Y-129254081D01*
X78696312Y-129427157D01*
X78907427Y-129540000D01*
X78696312Y-129652843D01*
X78485419Y-129825919D01*
X78312343Y-130036812D01*
X78278115Y-130100848D01*
X77644400Y-129467133D01*
X77644400Y-125463418D01*
X77648440Y-125422400D01*
X77632318Y-125258711D01*
X77584572Y-125101313D01*
X77507036Y-124956254D01*
X77428839Y-124860970D01*
X77428837Y-124860968D01*
X77402691Y-124829109D01*
X77370832Y-124802963D01*
X73806746Y-121238879D01*
X73805793Y-121237718D01*
X73835264Y-121182581D01*
X73894835Y-120986202D01*
X78049759Y-125141127D01*
X78049759Y-125141127D01*
G37*
X78049759Y-125141127D02*
X78075909Y-125172991D01*
X78168176Y-125248713D01*
X78104540Y-125458493D01*
X78077799Y-125730000D01*
X78104540Y-126001507D01*
X78183736Y-126262581D01*
X78312343Y-126503188D01*
X78485419Y-126714081D01*
X78696312Y-126887157D01*
X78907427Y-127000000D01*
X78696312Y-127112843D01*
X78485419Y-127285919D01*
X78312343Y-127496812D01*
X78183736Y-127737419D01*
X78104540Y-127998493D01*
X78077799Y-128270000D01*
X78104540Y-128541507D01*
X78183736Y-128802581D01*
X78312343Y-129043188D01*
X78485419Y-129254081D01*
X78696312Y-129427157D01*
X78907427Y-129540000D01*
X78696312Y-129652843D01*
X78485419Y-129825919D01*
X78312343Y-130036812D01*
X78278115Y-130100848D01*
X77644400Y-129467133D01*
X77644400Y-125463418D01*
X77648440Y-125422400D01*
X77632318Y-125258711D01*
X77584572Y-125101313D01*
X77507036Y-124956254D01*
X77428839Y-124860970D01*
X77428837Y-124860968D01*
X77402691Y-124829109D01*
X77370832Y-124802963D01*
X73806746Y-121238879D01*
X73805793Y-121237718D01*
X73835264Y-121182581D01*
X73894835Y-120986202D01*
X78049759Y-125141127D01*
G36*
X89598040Y-120921507D02*
G01*
X89677236Y-121182581D01*
X89805843Y-121423188D01*
X89978919Y-121634081D01*
X90189812Y-121807157D01*
X90400927Y-121920000D01*
X90189812Y-122032843D01*
X89978919Y-122205919D01*
X89805843Y-122416812D01*
X89677236Y-122657419D01*
X89598040Y-122918493D01*
X89571299Y-123190000D01*
X89598040Y-123461507D01*
X89677236Y-123722581D01*
X89805843Y-123963188D01*
X89978919Y-124174081D01*
X90189812Y-124347157D01*
X90405578Y-124462486D01*
X90315651Y-124499028D01*
X90087939Y-124648972D01*
X89893855Y-124840460D01*
X89740858Y-125066132D01*
X89634827Y-125317316D01*
X89620682Y-125388815D01*
X89743344Y-125603000D01*
X91186000Y-125603000D01*
X91186000Y-125583000D01*
X91440000Y-125583000D01*
X91440000Y-125603000D01*
X92882656Y-125603000D01*
X93005318Y-125388815D01*
X92991173Y-125317316D01*
X92885142Y-125066132D01*
X92732145Y-124840460D01*
X92538061Y-124648972D01*
X92310349Y-124499028D01*
X92220422Y-124462486D01*
X92436188Y-124347157D01*
X92647081Y-124174081D01*
X92820157Y-123963188D01*
X92833590Y-123938057D01*
X93792201Y-124896670D01*
X93742843Y-124956812D01*
X93614236Y-125197419D01*
X93535040Y-125458493D01*
X93508299Y-125730000D01*
X93535040Y-126001507D01*
X93614236Y-126262581D01*
X93742843Y-126503188D01*
X93915919Y-126714081D01*
X94126812Y-126887157D01*
X94337927Y-127000000D01*
X94126812Y-127112843D01*
X93915919Y-127285919D01*
X93742843Y-127496812D01*
X93614236Y-127737419D01*
X93535040Y-127998493D01*
X93508299Y-128270000D01*
X93535040Y-128541507D01*
X93596102Y-128742800D01*
X92965797Y-128742800D01*
X92991173Y-128682684D01*
X93005318Y-128611185D01*
X92882656Y-128397000D01*
X91440000Y-128397000D01*
X91440000Y-128417000D01*
X91186000Y-128417000D01*
X91186000Y-128397000D01*
X89743344Y-128397000D01*
X89634375Y-128587275D01*
X89614319Y-128585300D01*
X89614318Y-128585300D01*
X89573300Y-128581260D01*
X89532282Y-128585300D01*
X85394676Y-128585300D01*
X85407960Y-128541507D01*
X85434701Y-128270000D01*
X85407960Y-127998493D01*
X85328764Y-127737419D01*
X85200157Y-127496812D01*
X85027081Y-127285919D01*
X84816188Y-127112843D01*
X84605073Y-127000000D01*
X84816188Y-126887157D01*
X85027081Y-126714081D01*
X85200157Y-126503188D01*
X85328764Y-126262581D01*
X85386823Y-126071185D01*
X89620682Y-126071185D01*
X89634827Y-126142684D01*
X89740858Y-126393868D01*
X89893855Y-126619540D01*
X90087939Y-126811028D01*
X90315651Y-126960972D01*
X90411697Y-127000000D01*
X90315651Y-127039028D01*
X90087939Y-127188972D01*
X89893855Y-127380460D01*
X89740858Y-127606132D01*
X89634827Y-127857316D01*
X89620682Y-127928815D01*
X89743344Y-128143000D01*
X91186000Y-128143000D01*
X91186000Y-125857000D01*
X91440000Y-125857000D01*
X91440000Y-128143000D01*
X92882656Y-128143000D01*
X93005318Y-127928815D01*
X92991173Y-127857316D01*
X92885142Y-127606132D01*
X92732145Y-127380460D01*
X92538061Y-127188972D01*
X92310349Y-127039028D01*
X92214303Y-127000000D01*
X92310349Y-126960972D01*
X92538061Y-126811028D01*
X92732145Y-126619540D01*
X92885142Y-126393868D01*
X92991173Y-126142684D01*
X93005318Y-126071185D01*
X92882656Y-125857000D01*
X91440000Y-125857000D01*
X91186000Y-125857000D01*
X89743344Y-125857000D01*
X89620682Y-126071185D01*
X85386823Y-126071185D01*
X85407960Y-126001507D01*
X85434701Y-125730000D01*
X85407960Y-125458493D01*
X85328764Y-125197419D01*
X85258083Y-125065184D01*
X89580442Y-120742826D01*
X89598040Y-120921507D01*
X89598040Y-120921507D01*
G37*
X89598040Y-120921507D02*
X89677236Y-121182581D01*
X89805843Y-121423188D01*
X89978919Y-121634081D01*
X90189812Y-121807157D01*
X90400927Y-121920000D01*
X90189812Y-122032843D01*
X89978919Y-122205919D01*
X89805843Y-122416812D01*
X89677236Y-122657419D01*
X89598040Y-122918493D01*
X89571299Y-123190000D01*
X89598040Y-123461507D01*
X89677236Y-123722581D01*
X89805843Y-123963188D01*
X89978919Y-124174081D01*
X90189812Y-124347157D01*
X90405578Y-124462486D01*
X90315651Y-124499028D01*
X90087939Y-124648972D01*
X89893855Y-124840460D01*
X89740858Y-125066132D01*
X89634827Y-125317316D01*
X89620682Y-125388815D01*
X89743344Y-125603000D01*
X91186000Y-125603000D01*
X91186000Y-125583000D01*
X91440000Y-125583000D01*
X91440000Y-125603000D01*
X92882656Y-125603000D01*
X93005318Y-125388815D01*
X92991173Y-125317316D01*
X92885142Y-125066132D01*
X92732145Y-124840460D01*
X92538061Y-124648972D01*
X92310349Y-124499028D01*
X92220422Y-124462486D01*
X92436188Y-124347157D01*
X92647081Y-124174081D01*
X92820157Y-123963188D01*
X92833590Y-123938057D01*
X93792201Y-124896670D01*
X93742843Y-124956812D01*
X93614236Y-125197419D01*
X93535040Y-125458493D01*
X93508299Y-125730000D01*
X93535040Y-126001507D01*
X93614236Y-126262581D01*
X93742843Y-126503188D01*
X93915919Y-126714081D01*
X94126812Y-126887157D01*
X94337927Y-127000000D01*
X94126812Y-127112843D01*
X93915919Y-127285919D01*
X93742843Y-127496812D01*
X93614236Y-127737419D01*
X93535040Y-127998493D01*
X93508299Y-128270000D01*
X93535040Y-128541507D01*
X93596102Y-128742800D01*
X92965797Y-128742800D01*
X92991173Y-128682684D01*
X93005318Y-128611185D01*
X92882656Y-128397000D01*
X91440000Y-128397000D01*
X91440000Y-128417000D01*
X91186000Y-128417000D01*
X91186000Y-128397000D01*
X89743344Y-128397000D01*
X89634375Y-128587275D01*
X89614319Y-128585300D01*
X89614318Y-128585300D01*
X89573300Y-128581260D01*
X89532282Y-128585300D01*
X85394676Y-128585300D01*
X85407960Y-128541507D01*
X85434701Y-128270000D01*
X85407960Y-127998493D01*
X85328764Y-127737419D01*
X85200157Y-127496812D01*
X85027081Y-127285919D01*
X84816188Y-127112843D01*
X84605073Y-127000000D01*
X84816188Y-126887157D01*
X85027081Y-126714081D01*
X85200157Y-126503188D01*
X85328764Y-126262581D01*
X85386823Y-126071185D01*
X89620682Y-126071185D01*
X89634827Y-126142684D01*
X89740858Y-126393868D01*
X89893855Y-126619540D01*
X90087939Y-126811028D01*
X90315651Y-126960972D01*
X90411697Y-127000000D01*
X90315651Y-127039028D01*
X90087939Y-127188972D01*
X89893855Y-127380460D01*
X89740858Y-127606132D01*
X89634827Y-127857316D01*
X89620682Y-127928815D01*
X89743344Y-128143000D01*
X91186000Y-128143000D01*
X91186000Y-125857000D01*
X91440000Y-125857000D01*
X91440000Y-128143000D01*
X92882656Y-128143000D01*
X93005318Y-127928815D01*
X92991173Y-127857316D01*
X92885142Y-127606132D01*
X92732145Y-127380460D01*
X92538061Y-127188972D01*
X92310349Y-127039028D01*
X92214303Y-127000000D01*
X92310349Y-126960972D01*
X92538061Y-126811028D01*
X92732145Y-126619540D01*
X92885142Y-126393868D01*
X92991173Y-126142684D01*
X93005318Y-126071185D01*
X92882656Y-125857000D01*
X91440000Y-125857000D01*
X91186000Y-125857000D01*
X89743344Y-125857000D01*
X89620682Y-126071185D01*
X85386823Y-126071185D01*
X85407960Y-126001507D01*
X85434701Y-125730000D01*
X85407960Y-125458493D01*
X85328764Y-125197419D01*
X85258083Y-125065184D01*
X89580442Y-120742826D01*
X89598040Y-120921507D01*
G36*
X116484410Y-89783855D02*
G01*
X116450400Y-89954835D01*
X116450400Y-90129165D01*
X116484410Y-90300145D01*
X116500401Y-90338751D01*
X116500400Y-92689781D01*
X116496360Y-92730800D01*
X116500400Y-92771818D01*
X116512482Y-92894488D01*
X116560228Y-93051886D01*
X116637764Y-93196945D01*
X116742109Y-93324091D01*
X116773979Y-93350246D01*
X120425329Y-97001598D01*
X120412843Y-97016812D01*
X120284236Y-97257419D01*
X120205040Y-97518493D01*
X120178299Y-97790000D01*
X120205040Y-98061507D01*
X120284236Y-98322581D01*
X120412843Y-98563188D01*
X120585919Y-98774081D01*
X120796812Y-98947157D01*
X121007927Y-99060000D01*
X120796812Y-99172843D01*
X120585919Y-99345919D01*
X120412843Y-99556812D01*
X120284236Y-99797419D01*
X120205040Y-100058493D01*
X120178299Y-100330000D01*
X120205040Y-100601507D01*
X120284236Y-100862581D01*
X120412843Y-101103188D01*
X120585919Y-101314081D01*
X120796812Y-101487157D01*
X121007927Y-101600000D01*
X120796812Y-101712843D01*
X120585919Y-101885919D01*
X120412843Y-102096812D01*
X120284236Y-102337419D01*
X120205040Y-102598493D01*
X120178299Y-102870000D01*
X120205040Y-103141507D01*
X120284236Y-103402581D01*
X120412843Y-103643188D01*
X120585919Y-103854081D01*
X120796812Y-104027157D01*
X121007927Y-104140000D01*
X120796812Y-104252843D01*
X120585919Y-104425919D01*
X120412843Y-104636812D01*
X120284236Y-104877419D01*
X120205040Y-105138493D01*
X120178299Y-105410000D01*
X120205040Y-105681507D01*
X120284236Y-105942581D01*
X120412843Y-106183188D01*
X120585919Y-106394081D01*
X120796812Y-106567157D01*
X121007927Y-106680000D01*
X120796812Y-106792843D01*
X120585919Y-106965919D01*
X120412843Y-107176812D01*
X120284236Y-107417419D01*
X120205040Y-107678493D01*
X120178299Y-107950000D01*
X120205040Y-108221507D01*
X120284236Y-108482581D01*
X120412843Y-108723188D01*
X120585919Y-108934081D01*
X120796812Y-109107157D01*
X121007927Y-109220000D01*
X120796812Y-109332843D01*
X120585919Y-109505919D01*
X120412843Y-109716812D01*
X120284236Y-109957419D01*
X120205040Y-110218493D01*
X120178299Y-110490000D01*
X120205040Y-110761507D01*
X120284236Y-111022581D01*
X120412843Y-111263188D01*
X120585919Y-111474081D01*
X120796812Y-111647157D01*
X121007927Y-111760000D01*
X120796812Y-111872843D01*
X120585919Y-112045919D01*
X120412843Y-112256812D01*
X120284236Y-112497419D01*
X120205040Y-112758493D01*
X120178299Y-113030000D01*
X120205040Y-113301507D01*
X120284236Y-113562581D01*
X120412843Y-113803188D01*
X120585919Y-114014081D01*
X120796812Y-114187157D01*
X121007927Y-114300000D01*
X120796812Y-114412843D01*
X120585919Y-114585919D01*
X120412843Y-114796812D01*
X120284236Y-115037419D01*
X120205040Y-115298493D01*
X120178299Y-115570000D01*
X120205040Y-115841507D01*
X120284236Y-116102581D01*
X120412843Y-116343188D01*
X120585919Y-116554081D01*
X120796812Y-116727157D01*
X121007927Y-116840000D01*
X120796812Y-116952843D01*
X120585919Y-117125919D01*
X120412843Y-117336812D01*
X120284236Y-117577419D01*
X120205040Y-117838493D01*
X120178299Y-118110000D01*
X120205040Y-118381507D01*
X120284236Y-118642581D01*
X120412843Y-118883188D01*
X120585919Y-119094081D01*
X120796812Y-119267157D01*
X121007927Y-119380000D01*
X120796812Y-119492843D01*
X120585919Y-119665919D01*
X120412843Y-119876812D01*
X120284236Y-120117419D01*
X120205040Y-120378493D01*
X120178299Y-120650000D01*
X120205040Y-120921507D01*
X120284236Y-121182581D01*
X120412843Y-121423188D01*
X120585919Y-121634081D01*
X120796812Y-121807157D01*
X121007927Y-121920000D01*
X120796812Y-122032843D01*
X120769814Y-122055000D01*
X116935752Y-122055000D01*
X116880000Y-122049509D01*
X116657501Y-122071423D01*
X116443553Y-122136324D01*
X116246377Y-122241716D01*
X116116856Y-122348011D01*
X116116854Y-122348013D01*
X116073551Y-122383551D01*
X116038013Y-122426854D01*
X112892718Y-125572150D01*
X112651426Y-125620147D01*
X112390273Y-125728320D01*
X112155241Y-125885363D01*
X111955363Y-126085241D01*
X111798320Y-126320273D01*
X111690147Y-126581426D01*
X111642150Y-126822718D01*
X110637538Y-127827331D01*
X110598599Y-127698966D01*
X110489643Y-127495124D01*
X113534132Y-124450637D01*
X113565991Y-124424491D01*
X113625975Y-124351401D01*
X113670336Y-124297346D01*
X113747872Y-124152287D01*
X113795618Y-123994889D01*
X113811740Y-123831200D01*
X113807700Y-123790182D01*
X113807700Y-104161000D01*
X113834165Y-104161000D01*
X114005145Y-104126990D01*
X114166205Y-104060277D01*
X114311155Y-103963424D01*
X114434424Y-103840155D01*
X114531277Y-103695205D01*
X114597990Y-103534145D01*
X114632000Y-103363165D01*
X114632000Y-103188835D01*
X114597990Y-103017855D01*
X114582000Y-102979252D01*
X114582000Y-91625167D01*
X116527612Y-89679555D01*
X116484410Y-89783855D01*
X116484410Y-89783855D01*
G37*
X116484410Y-89783855D02*
X116450400Y-89954835D01*
X116450400Y-90129165D01*
X116484410Y-90300145D01*
X116500401Y-90338751D01*
X116500400Y-92689781D01*
X116496360Y-92730800D01*
X116500400Y-92771818D01*
X116512482Y-92894488D01*
X116560228Y-93051886D01*
X116637764Y-93196945D01*
X116742109Y-93324091D01*
X116773979Y-93350246D01*
X120425329Y-97001598D01*
X120412843Y-97016812D01*
X120284236Y-97257419D01*
X120205040Y-97518493D01*
X120178299Y-97790000D01*
X120205040Y-98061507D01*
X120284236Y-98322581D01*
X120412843Y-98563188D01*
X120585919Y-98774081D01*
X120796812Y-98947157D01*
X121007927Y-99060000D01*
X120796812Y-99172843D01*
X120585919Y-99345919D01*
X120412843Y-99556812D01*
X120284236Y-99797419D01*
X120205040Y-100058493D01*
X120178299Y-100330000D01*
X120205040Y-100601507D01*
X120284236Y-100862581D01*
X120412843Y-101103188D01*
X120585919Y-101314081D01*
X120796812Y-101487157D01*
X121007927Y-101600000D01*
X120796812Y-101712843D01*
X120585919Y-101885919D01*
X120412843Y-102096812D01*
X120284236Y-102337419D01*
X120205040Y-102598493D01*
X120178299Y-102870000D01*
X120205040Y-103141507D01*
X120284236Y-103402581D01*
X120412843Y-103643188D01*
X120585919Y-103854081D01*
X120796812Y-104027157D01*
X121007927Y-104140000D01*
X120796812Y-104252843D01*
X120585919Y-104425919D01*
X120412843Y-104636812D01*
X120284236Y-104877419D01*
X120205040Y-105138493D01*
X120178299Y-105410000D01*
X120205040Y-105681507D01*
X120284236Y-105942581D01*
X120412843Y-106183188D01*
X120585919Y-106394081D01*
X120796812Y-106567157D01*
X121007927Y-106680000D01*
X120796812Y-106792843D01*
X120585919Y-106965919D01*
X120412843Y-107176812D01*
X120284236Y-107417419D01*
X120205040Y-107678493D01*
X120178299Y-107950000D01*
X120205040Y-108221507D01*
X120284236Y-108482581D01*
X120412843Y-108723188D01*
X120585919Y-108934081D01*
X120796812Y-109107157D01*
X121007927Y-109220000D01*
X120796812Y-109332843D01*
X120585919Y-109505919D01*
X120412843Y-109716812D01*
X120284236Y-109957419D01*
X120205040Y-110218493D01*
X120178299Y-110490000D01*
X120205040Y-110761507D01*
X120284236Y-111022581D01*
X120412843Y-111263188D01*
X120585919Y-111474081D01*
X120796812Y-111647157D01*
X121007927Y-111760000D01*
X120796812Y-111872843D01*
X120585919Y-112045919D01*
X120412843Y-112256812D01*
X120284236Y-112497419D01*
X120205040Y-112758493D01*
X120178299Y-113030000D01*
X120205040Y-113301507D01*
X120284236Y-113562581D01*
X120412843Y-113803188D01*
X120585919Y-114014081D01*
X120796812Y-114187157D01*
X121007927Y-114300000D01*
X120796812Y-114412843D01*
X120585919Y-114585919D01*
X120412843Y-114796812D01*
X120284236Y-115037419D01*
X120205040Y-115298493D01*
X120178299Y-115570000D01*
X120205040Y-115841507D01*
X120284236Y-116102581D01*
X120412843Y-116343188D01*
X120585919Y-116554081D01*
X120796812Y-116727157D01*
X121007927Y-116840000D01*
X120796812Y-116952843D01*
X120585919Y-117125919D01*
X120412843Y-117336812D01*
X120284236Y-117577419D01*
X120205040Y-117838493D01*
X120178299Y-118110000D01*
X120205040Y-118381507D01*
X120284236Y-118642581D01*
X120412843Y-118883188D01*
X120585919Y-119094081D01*
X120796812Y-119267157D01*
X121007927Y-119380000D01*
X120796812Y-119492843D01*
X120585919Y-119665919D01*
X120412843Y-119876812D01*
X120284236Y-120117419D01*
X120205040Y-120378493D01*
X120178299Y-120650000D01*
X120205040Y-120921507D01*
X120284236Y-121182581D01*
X120412843Y-121423188D01*
X120585919Y-121634081D01*
X120796812Y-121807157D01*
X121007927Y-121920000D01*
X120796812Y-122032843D01*
X120769814Y-122055000D01*
X116935752Y-122055000D01*
X116880000Y-122049509D01*
X116657501Y-122071423D01*
X116443553Y-122136324D01*
X116246377Y-122241716D01*
X116116856Y-122348011D01*
X116116854Y-122348013D01*
X116073551Y-122383551D01*
X116038013Y-122426854D01*
X112892718Y-125572150D01*
X112651426Y-125620147D01*
X112390273Y-125728320D01*
X112155241Y-125885363D01*
X111955363Y-126085241D01*
X111798320Y-126320273D01*
X111690147Y-126581426D01*
X111642150Y-126822718D01*
X110637538Y-127827331D01*
X110598599Y-127698966D01*
X110489643Y-127495124D01*
X113534132Y-124450637D01*
X113565991Y-124424491D01*
X113625975Y-124351401D01*
X113670336Y-124297346D01*
X113747872Y-124152287D01*
X113795618Y-123994889D01*
X113811740Y-123831200D01*
X113807700Y-123790182D01*
X113807700Y-104161000D01*
X113834165Y-104161000D01*
X114005145Y-104126990D01*
X114166205Y-104060277D01*
X114311155Y-103963424D01*
X114434424Y-103840155D01*
X114531277Y-103695205D01*
X114597990Y-103534145D01*
X114632000Y-103363165D01*
X114632000Y-103188835D01*
X114597990Y-103017855D01*
X114582000Y-102979252D01*
X114582000Y-91625167D01*
X116527612Y-89679555D01*
X116484410Y-89783855D01*
G36*
X101128299Y-118110000D02*
G01*
X101155040Y-118381507D01*
X101189468Y-118495000D01*
X101105435Y-118495000D01*
X100934455Y-118529010D01*
X100773395Y-118595723D01*
X100628445Y-118692576D01*
X100505176Y-118815845D01*
X100408323Y-118960795D01*
X100341610Y-119121855D01*
X100307600Y-119292835D01*
X100307600Y-119467165D01*
X100341610Y-119638145D01*
X100408323Y-119799205D01*
X100505176Y-119944155D01*
X100628445Y-120067424D01*
X100773395Y-120164277D01*
X100934455Y-120230990D01*
X101105435Y-120265000D01*
X101189468Y-120265000D01*
X101155040Y-120378493D01*
X101128299Y-120650000D01*
X101155040Y-120921507D01*
X101234236Y-121182581D01*
X101362843Y-121423188D01*
X101535919Y-121634081D01*
X101746812Y-121807157D01*
X101957927Y-121920000D01*
X101746812Y-122032843D01*
X101535919Y-122205919D01*
X101362843Y-122416812D01*
X101234236Y-122657419D01*
X101155040Y-122918493D01*
X101128299Y-123190000D01*
X101155040Y-123461507D01*
X101234236Y-123722581D01*
X101362843Y-123963188D01*
X101535919Y-124174081D01*
X101746812Y-124347157D01*
X101957927Y-124460000D01*
X101746812Y-124572843D01*
X101535919Y-124745919D01*
X101362843Y-124956812D01*
X101234236Y-125197419D01*
X101155040Y-125458493D01*
X101128299Y-125730000D01*
X101155040Y-126001507D01*
X101234236Y-126262581D01*
X101333184Y-126447700D01*
X100964369Y-126447700D01*
X98415246Y-123898579D01*
X98389091Y-123866709D01*
X98261946Y-123762364D01*
X98116887Y-123684828D01*
X97959489Y-123637082D01*
X97836819Y-123625000D01*
X97836818Y-123625000D01*
X97795800Y-123620960D01*
X97754782Y-123625000D01*
X96915365Y-123625000D01*
X96964960Y-123461507D01*
X96991701Y-123190000D01*
X96964960Y-122918493D01*
X96885764Y-122657419D01*
X96757157Y-122416812D01*
X96725693Y-122378474D01*
X101142953Y-117961216D01*
X101128299Y-118110000D01*
X101128299Y-118110000D01*
G37*
X101128299Y-118110000D02*
X101155040Y-118381507D01*
X101189468Y-118495000D01*
X101105435Y-118495000D01*
X100934455Y-118529010D01*
X100773395Y-118595723D01*
X100628445Y-118692576D01*
X100505176Y-118815845D01*
X100408323Y-118960795D01*
X100341610Y-119121855D01*
X100307600Y-119292835D01*
X100307600Y-119467165D01*
X100341610Y-119638145D01*
X100408323Y-119799205D01*
X100505176Y-119944155D01*
X100628445Y-120067424D01*
X100773395Y-120164277D01*
X100934455Y-120230990D01*
X101105435Y-120265000D01*
X101189468Y-120265000D01*
X101155040Y-120378493D01*
X101128299Y-120650000D01*
X101155040Y-120921507D01*
X101234236Y-121182581D01*
X101362843Y-121423188D01*
X101535919Y-121634081D01*
X101746812Y-121807157D01*
X101957927Y-121920000D01*
X101746812Y-122032843D01*
X101535919Y-122205919D01*
X101362843Y-122416812D01*
X101234236Y-122657419D01*
X101155040Y-122918493D01*
X101128299Y-123190000D01*
X101155040Y-123461507D01*
X101234236Y-123722581D01*
X101362843Y-123963188D01*
X101535919Y-124174081D01*
X101746812Y-124347157D01*
X101957927Y-124460000D01*
X101746812Y-124572843D01*
X101535919Y-124745919D01*
X101362843Y-124956812D01*
X101234236Y-125197419D01*
X101155040Y-125458493D01*
X101128299Y-125730000D01*
X101155040Y-126001507D01*
X101234236Y-126262581D01*
X101333184Y-126447700D01*
X100964369Y-126447700D01*
X98415246Y-123898579D01*
X98389091Y-123866709D01*
X98261946Y-123762364D01*
X98116887Y-123684828D01*
X97959489Y-123637082D01*
X97836819Y-123625000D01*
X97836818Y-123625000D01*
X97795800Y-123620960D01*
X97754782Y-123625000D01*
X96915365Y-123625000D01*
X96964960Y-123461507D01*
X96991701Y-123190000D01*
X96964960Y-122918493D01*
X96885764Y-122657419D01*
X96757157Y-122416812D01*
X96725693Y-122378474D01*
X101142953Y-117961216D01*
X101128299Y-118110000D01*
G36*
X75157559Y-117168927D02*
G01*
X75183709Y-117200791D01*
X75281185Y-117280787D01*
X75310854Y-117305136D01*
X75455913Y-117382672D01*
X75613311Y-117430418D01*
X75776999Y-117446540D01*
X75818018Y-117442500D01*
X76164552Y-117442500D01*
X76203155Y-117458490D01*
X76374135Y-117492500D01*
X76548465Y-117492500D01*
X76719445Y-117458490D01*
X76880505Y-117391777D01*
X77025455Y-117294924D01*
X77148724Y-117171655D01*
X77245577Y-117026705D01*
X77312290Y-116865645D01*
X77346300Y-116694665D01*
X77346300Y-116520335D01*
X77312290Y-116349355D01*
X77251551Y-116202718D01*
X78345384Y-117296552D01*
X78312343Y-117336812D01*
X78183736Y-117577419D01*
X78104540Y-117838493D01*
X78077799Y-118110000D01*
X78104540Y-118381507D01*
X78183736Y-118642581D01*
X78312343Y-118883188D01*
X78485419Y-119094081D01*
X78696312Y-119267157D01*
X78907427Y-119380000D01*
X78696312Y-119492843D01*
X78485419Y-119665919D01*
X78312343Y-119876812D01*
X78183736Y-120117419D01*
X78104540Y-120378493D01*
X78077799Y-120650000D01*
X78104540Y-120921507D01*
X78183736Y-121182581D01*
X78312343Y-121423188D01*
X78485419Y-121634081D01*
X78696312Y-121807157D01*
X78907427Y-121920000D01*
X78696312Y-122032843D01*
X78485419Y-122205919D01*
X78312343Y-122416812D01*
X78183736Y-122657419D01*
X78124165Y-122853797D01*
X74088946Y-118818579D01*
X74062791Y-118786709D01*
X73935646Y-118682364D01*
X73838885Y-118630644D01*
X73914460Y-118381507D01*
X73941201Y-118110000D01*
X73914460Y-117838493D01*
X73835264Y-117577419D01*
X73706657Y-117336812D01*
X73533581Y-117125919D01*
X73322688Y-116952843D01*
X73111573Y-116840000D01*
X73322688Y-116727157D01*
X73533581Y-116554081D01*
X73706657Y-116343188D01*
X73835264Y-116102581D01*
X73894835Y-115906202D01*
X75157559Y-117168927D01*
X75157559Y-117168927D01*
G37*
X75157559Y-117168927D02*
X75183709Y-117200791D01*
X75281185Y-117280787D01*
X75310854Y-117305136D01*
X75455913Y-117382672D01*
X75613311Y-117430418D01*
X75776999Y-117446540D01*
X75818018Y-117442500D01*
X76164552Y-117442500D01*
X76203155Y-117458490D01*
X76374135Y-117492500D01*
X76548465Y-117492500D01*
X76719445Y-117458490D01*
X76880505Y-117391777D01*
X77025455Y-117294924D01*
X77148724Y-117171655D01*
X77245577Y-117026705D01*
X77312290Y-116865645D01*
X77346300Y-116694665D01*
X77346300Y-116520335D01*
X77312290Y-116349355D01*
X77251551Y-116202718D01*
X78345384Y-117296552D01*
X78312343Y-117336812D01*
X78183736Y-117577419D01*
X78104540Y-117838493D01*
X78077799Y-118110000D01*
X78104540Y-118381507D01*
X78183736Y-118642581D01*
X78312343Y-118883188D01*
X78485419Y-119094081D01*
X78696312Y-119267157D01*
X78907427Y-119380000D01*
X78696312Y-119492843D01*
X78485419Y-119665919D01*
X78312343Y-119876812D01*
X78183736Y-120117419D01*
X78104540Y-120378493D01*
X78077799Y-120650000D01*
X78104540Y-120921507D01*
X78183736Y-121182581D01*
X78312343Y-121423188D01*
X78485419Y-121634081D01*
X78696312Y-121807157D01*
X78907427Y-121920000D01*
X78696312Y-122032843D01*
X78485419Y-122205919D01*
X78312343Y-122416812D01*
X78183736Y-122657419D01*
X78124165Y-122853797D01*
X74088946Y-118818579D01*
X74062791Y-118786709D01*
X73935646Y-118682364D01*
X73838885Y-118630644D01*
X73914460Y-118381507D01*
X73941201Y-118110000D01*
X73914460Y-117838493D01*
X73835264Y-117577419D01*
X73706657Y-117336812D01*
X73533581Y-117125919D01*
X73322688Y-116952843D01*
X73111573Y-116840000D01*
X73322688Y-116727157D01*
X73533581Y-116554081D01*
X73706657Y-116343188D01*
X73835264Y-116102581D01*
X73894835Y-115906202D01*
X75157559Y-117168927D01*
G36*
X88309024Y-115133553D02*
G01*
X88244123Y-115347501D01*
X88222209Y-115570000D01*
X88227701Y-115625761D01*
X88227700Y-117130867D01*
X85298245Y-120060323D01*
X85200157Y-119876812D01*
X85027081Y-119665919D01*
X84816188Y-119492843D01*
X84605073Y-119380000D01*
X84816188Y-119267157D01*
X85027081Y-119094081D01*
X85200157Y-118883188D01*
X85328764Y-118642581D01*
X85407960Y-118381507D01*
X85434701Y-118110000D01*
X85407960Y-117838493D01*
X85328764Y-117577419D01*
X85200157Y-117336812D01*
X85027081Y-117125919D01*
X84816188Y-116952843D01*
X84605073Y-116840000D01*
X84816188Y-116727157D01*
X85027081Y-116554081D01*
X85200157Y-116343188D01*
X85328764Y-116102581D01*
X85407960Y-115841507D01*
X85434701Y-115570000D01*
X85407960Y-115298493D01*
X85348809Y-115103500D01*
X88325088Y-115103500D01*
X88309024Y-115133553D01*
X88309024Y-115133553D01*
G37*
X88309024Y-115133553D02*
X88244123Y-115347501D01*
X88222209Y-115570000D01*
X88227701Y-115625761D01*
X88227700Y-117130867D01*
X85298245Y-120060323D01*
X85200157Y-119876812D01*
X85027081Y-119665919D01*
X84816188Y-119492843D01*
X84605073Y-119380000D01*
X84816188Y-119267157D01*
X85027081Y-119094081D01*
X85200157Y-118883188D01*
X85328764Y-118642581D01*
X85407960Y-118381507D01*
X85434701Y-118110000D01*
X85407960Y-117838493D01*
X85328764Y-117577419D01*
X85200157Y-117336812D01*
X85027081Y-117125919D01*
X84816188Y-116952843D01*
X84605073Y-116840000D01*
X84816188Y-116727157D01*
X85027081Y-116554081D01*
X85200157Y-116343188D01*
X85328764Y-116102581D01*
X85407960Y-115841507D01*
X85434701Y-115570000D01*
X85407960Y-115298493D01*
X85348809Y-115103500D01*
X88325088Y-115103500D01*
X88309024Y-115133553D01*
G36*
X96794938Y-119947495D02*
G01*
X96757157Y-119876812D01*
X96584081Y-119665919D01*
X96373188Y-119492843D01*
X96162073Y-119380000D01*
X96373188Y-119267157D01*
X96584081Y-119094081D01*
X96757157Y-118883188D01*
X96885764Y-118642581D01*
X96964960Y-118381507D01*
X96991701Y-118110000D01*
X96964960Y-117838493D01*
X96951676Y-117794700D01*
X98947732Y-117794700D01*
X96794938Y-119947495D01*
X96794938Y-119947495D01*
G37*
X96794938Y-119947495D02*
X96757157Y-119876812D01*
X96584081Y-119665919D01*
X96373188Y-119492843D01*
X96162073Y-119380000D01*
X96373188Y-119267157D01*
X96584081Y-119094081D01*
X96757157Y-118883188D01*
X96885764Y-118642581D01*
X96964960Y-118381507D01*
X96991701Y-118110000D01*
X96964960Y-117838493D01*
X96951676Y-117794700D01*
X98947732Y-117794700D01*
X96794938Y-119947495D01*
G36*
X78400355Y-96139540D02*
G01*
X78594439Y-96331028D01*
X78822151Y-96480972D01*
X78912078Y-96517514D01*
X78696312Y-96632843D01*
X78485419Y-96805919D01*
X78312343Y-97016812D01*
X78183736Y-97257419D01*
X78104540Y-97518493D01*
X78077799Y-97790000D01*
X78104540Y-98061507D01*
X78183736Y-98322581D01*
X78312343Y-98563188D01*
X78485419Y-98774081D01*
X78696312Y-98947157D01*
X78936919Y-99075764D01*
X79197993Y-99154960D01*
X79401463Y-99175000D01*
X80237537Y-99175000D01*
X80441007Y-99154960D01*
X80702081Y-99075764D01*
X80800501Y-99023158D01*
X80800501Y-102752671D01*
X80796460Y-102793700D01*
X80812582Y-102957388D01*
X80860328Y-103114786D01*
X80937864Y-103259845D01*
X80937865Y-103259846D01*
X81042210Y-103386991D01*
X81074074Y-103413141D01*
X82236496Y-104575564D01*
X82120858Y-104746132D01*
X82014827Y-104997316D01*
X82000682Y-105068815D01*
X82123344Y-105283000D01*
X83566000Y-105283000D01*
X83566000Y-105263000D01*
X83820000Y-105263000D01*
X83820000Y-105283000D01*
X83840000Y-105283000D01*
X83840000Y-105537000D01*
X83820000Y-105537000D01*
X83820000Y-106795000D01*
X84170000Y-106795000D01*
X84437760Y-106743611D01*
X84690349Y-106640972D01*
X84918061Y-106491028D01*
X85112145Y-106299540D01*
X85265142Y-106073868D01*
X85303806Y-105982274D01*
X87169900Y-107848368D01*
X87169900Y-108006565D01*
X87203910Y-108177545D01*
X87270623Y-108338605D01*
X87367476Y-108483555D01*
X87490745Y-108606824D01*
X87635695Y-108703677D01*
X87796755Y-108770390D01*
X87967735Y-108804400D01*
X88142065Y-108804400D01*
X88313045Y-108770390D01*
X88474105Y-108703677D01*
X88619055Y-108606824D01*
X88742324Y-108483555D01*
X88754504Y-108465327D01*
X88763276Y-108478455D01*
X88886545Y-108601724D01*
X89031495Y-108698577D01*
X89192555Y-108765290D01*
X89363535Y-108799300D01*
X89537865Y-108799300D01*
X89708845Y-108765290D01*
X89869905Y-108698577D01*
X90014855Y-108601724D01*
X90138124Y-108478455D01*
X90234977Y-108333505D01*
X90301690Y-108172445D01*
X90335700Y-108001465D01*
X90335700Y-107827135D01*
X90301690Y-107656155D01*
X90247457Y-107525225D01*
X92503663Y-109781432D01*
X92529809Y-109813291D01*
X92561668Y-109839437D01*
X92561670Y-109839439D01*
X92656954Y-109917636D01*
X92802013Y-109995172D01*
X92959411Y-110042918D01*
X93082081Y-110055000D01*
X93082082Y-110055000D01*
X93123100Y-110059040D01*
X93164118Y-110055000D01*
X96528481Y-110055000D01*
X96432429Y-110257996D01*
X96363700Y-110532184D01*
X96349783Y-110814512D01*
X96391213Y-111094130D01*
X96462940Y-111294700D01*
X93308879Y-111294700D01*
X93307755Y-111293576D01*
X93162805Y-111196723D01*
X93001745Y-111130010D01*
X92830765Y-111096000D01*
X92656435Y-111096000D01*
X92485455Y-111130010D01*
X92324395Y-111196723D01*
X92179445Y-111293576D01*
X92178321Y-111294700D01*
X90058125Y-111294700D01*
X90112853Y-111162574D01*
X90168000Y-110885335D01*
X90168000Y-110602665D01*
X90112853Y-110325426D01*
X90004680Y-110064273D01*
X89847637Y-109829241D01*
X89647759Y-109629363D01*
X89412727Y-109472320D01*
X89151574Y-109364147D01*
X88874335Y-109309000D01*
X88591665Y-109309000D01*
X88314426Y-109364147D01*
X88053273Y-109472320D01*
X87818241Y-109629363D01*
X87618363Y-109829241D01*
X87484308Y-110029869D01*
X87469671Y-110002486D01*
X87225702Y-109930903D01*
X86412605Y-110744000D01*
X86426748Y-110758143D01*
X86247143Y-110937748D01*
X86233000Y-110923605D01*
X86218858Y-110937748D01*
X86039253Y-110758143D01*
X86053395Y-110744000D01*
X85240298Y-109930903D01*
X84996329Y-110002486D01*
X84875429Y-110257996D01*
X84806700Y-110532184D01*
X84792783Y-110814512D01*
X84834213Y-111094130D01*
X84905940Y-111294700D01*
X83300718Y-111294700D01*
X83259699Y-111290660D01*
X83218681Y-111294700D01*
X83096011Y-111306782D01*
X82938613Y-111354528D01*
X82793554Y-111432064D01*
X82666409Y-111536409D01*
X82640261Y-111568271D01*
X81514812Y-112693721D01*
X81455264Y-112497419D01*
X81326657Y-112256812D01*
X81153581Y-112045919D01*
X80942688Y-111872843D01*
X80731573Y-111760000D01*
X80942688Y-111647157D01*
X81153581Y-111474081D01*
X81326657Y-111263188D01*
X81455264Y-111022581D01*
X81534460Y-110761507D01*
X81561201Y-110490000D01*
X81534460Y-110218493D01*
X81455264Y-109957419D01*
X81345091Y-109751298D01*
X85419903Y-109751298D01*
X86233000Y-110564395D01*
X87046097Y-109751298D01*
X86974514Y-109507329D01*
X86719004Y-109386429D01*
X86444816Y-109317700D01*
X86162488Y-109303783D01*
X85882870Y-109345213D01*
X85616708Y-109440397D01*
X85491486Y-109507329D01*
X85419903Y-109751298D01*
X81345091Y-109751298D01*
X81326657Y-109716812D01*
X81153581Y-109505919D01*
X80942688Y-109332843D01*
X80731573Y-109220000D01*
X80942688Y-109107157D01*
X81153581Y-108934081D01*
X81326657Y-108723188D01*
X81455264Y-108482581D01*
X81534460Y-108221507D01*
X81561201Y-107950000D01*
X81534460Y-107678493D01*
X81455264Y-107417419D01*
X81326657Y-107176812D01*
X81153581Y-106965919D01*
X80954500Y-106802537D01*
X80954500Y-106405452D01*
X80959991Y-106349700D01*
X80949090Y-106239014D01*
X80938077Y-106127201D01*
X80873176Y-105913253D01*
X80786550Y-105751185D01*
X82000682Y-105751185D01*
X82014827Y-105822684D01*
X82120858Y-106073868D01*
X82273855Y-106299540D01*
X82467939Y-106491028D01*
X82695651Y-106640972D01*
X82948240Y-106743611D01*
X83216000Y-106795000D01*
X83566000Y-106795000D01*
X83566000Y-105537000D01*
X82123344Y-105537000D01*
X82000682Y-105751185D01*
X80786550Y-105751185D01*
X80767784Y-105716077D01*
X80625949Y-105543251D01*
X80453123Y-105401416D01*
X80255947Y-105296024D01*
X80162226Y-105267594D01*
X78667350Y-103772718D01*
X78619353Y-103531426D01*
X78511180Y-103270273D01*
X78354137Y-103035241D01*
X78154259Y-102835363D01*
X77919227Y-102678320D01*
X77658074Y-102570147D01*
X77380835Y-102515000D01*
X77098165Y-102515000D01*
X76820926Y-102570147D01*
X76559773Y-102678320D01*
X76324741Y-102835363D01*
X76124863Y-103035241D01*
X75990808Y-103235869D01*
X75976171Y-103208486D01*
X75732202Y-103136903D01*
X74919105Y-103950000D01*
X75732202Y-104763097D01*
X75976171Y-104691514D01*
X75989824Y-104662659D01*
X76124863Y-104864759D01*
X76324741Y-105064637D01*
X76559773Y-105221680D01*
X76820926Y-105329853D01*
X77062218Y-105377850D01*
X78575972Y-106891604D01*
X78485419Y-106965919D01*
X78312343Y-107176812D01*
X78183736Y-107417419D01*
X78104540Y-107678493D01*
X78077799Y-107950000D01*
X78104540Y-108221507D01*
X78183736Y-108482581D01*
X78312343Y-108723188D01*
X78485419Y-108934081D01*
X78696312Y-109107157D01*
X78907427Y-109220000D01*
X78696312Y-109332843D01*
X78485419Y-109505919D01*
X78312343Y-109716812D01*
X78269895Y-109796227D01*
X74216900Y-105743233D01*
X74216900Y-105290255D01*
X74253496Y-105307571D01*
X74527684Y-105376300D01*
X74810012Y-105390217D01*
X75089630Y-105348787D01*
X75355792Y-105253603D01*
X75481014Y-105186671D01*
X75552597Y-104942702D01*
X74739500Y-104129605D01*
X74725358Y-104143748D01*
X74545753Y-103964143D01*
X74559895Y-103950000D01*
X74545753Y-103935858D01*
X74725358Y-103756253D01*
X74739500Y-103770395D01*
X75552597Y-102957298D01*
X75481014Y-102713329D01*
X75225504Y-102592429D01*
X74951316Y-102523700D01*
X74693287Y-102510981D01*
X74850402Y-102353867D01*
X74889005Y-102337877D01*
X75033955Y-102241024D01*
X75157224Y-102117755D01*
X75254077Y-101972805D01*
X75320790Y-101811745D01*
X75354800Y-101640765D01*
X75354800Y-101466435D01*
X75320790Y-101295455D01*
X75254077Y-101134395D01*
X75182858Y-101027809D01*
X75357970Y-100852698D01*
X75383145Y-100847690D01*
X75544205Y-100780977D01*
X75689155Y-100684124D01*
X75812424Y-100560855D01*
X75909277Y-100415905D01*
X75975990Y-100254845D01*
X76010000Y-100083865D01*
X76010000Y-99909535D01*
X75975990Y-99738555D01*
X75909277Y-99577495D01*
X75812424Y-99432545D01*
X75689155Y-99309276D01*
X75544205Y-99212423D01*
X75474866Y-99183702D01*
X78019733Y-96638836D01*
X78051591Y-96612691D01*
X78103620Y-96549294D01*
X78155936Y-96485546D01*
X78233472Y-96340487D01*
X78244237Y-96305000D01*
X78281218Y-96183089D01*
X78293300Y-96060419D01*
X78293300Y-96060418D01*
X78297340Y-96019400D01*
X78293675Y-95982186D01*
X78400355Y-96139540D01*
X78400355Y-96139540D01*
G37*
X78400355Y-96139540D02*
X78594439Y-96331028D01*
X78822151Y-96480972D01*
X78912078Y-96517514D01*
X78696312Y-96632843D01*
X78485419Y-96805919D01*
X78312343Y-97016812D01*
X78183736Y-97257419D01*
X78104540Y-97518493D01*
X78077799Y-97790000D01*
X78104540Y-98061507D01*
X78183736Y-98322581D01*
X78312343Y-98563188D01*
X78485419Y-98774081D01*
X78696312Y-98947157D01*
X78936919Y-99075764D01*
X79197993Y-99154960D01*
X79401463Y-99175000D01*
X80237537Y-99175000D01*
X80441007Y-99154960D01*
X80702081Y-99075764D01*
X80800501Y-99023158D01*
X80800501Y-102752671D01*
X80796460Y-102793700D01*
X80812582Y-102957388D01*
X80860328Y-103114786D01*
X80937864Y-103259845D01*
X80937865Y-103259846D01*
X81042210Y-103386991D01*
X81074074Y-103413141D01*
X82236496Y-104575564D01*
X82120858Y-104746132D01*
X82014827Y-104997316D01*
X82000682Y-105068815D01*
X82123344Y-105283000D01*
X83566000Y-105283000D01*
X83566000Y-105263000D01*
X83820000Y-105263000D01*
X83820000Y-105283000D01*
X83840000Y-105283000D01*
X83840000Y-105537000D01*
X83820000Y-105537000D01*
X83820000Y-106795000D01*
X84170000Y-106795000D01*
X84437760Y-106743611D01*
X84690349Y-106640972D01*
X84918061Y-106491028D01*
X85112145Y-106299540D01*
X85265142Y-106073868D01*
X85303806Y-105982274D01*
X87169900Y-107848368D01*
X87169900Y-108006565D01*
X87203910Y-108177545D01*
X87270623Y-108338605D01*
X87367476Y-108483555D01*
X87490745Y-108606824D01*
X87635695Y-108703677D01*
X87796755Y-108770390D01*
X87967735Y-108804400D01*
X88142065Y-108804400D01*
X88313045Y-108770390D01*
X88474105Y-108703677D01*
X88619055Y-108606824D01*
X88742324Y-108483555D01*
X88754504Y-108465327D01*
X88763276Y-108478455D01*
X88886545Y-108601724D01*
X89031495Y-108698577D01*
X89192555Y-108765290D01*
X89363535Y-108799300D01*
X89537865Y-108799300D01*
X89708845Y-108765290D01*
X89869905Y-108698577D01*
X90014855Y-108601724D01*
X90138124Y-108478455D01*
X90234977Y-108333505D01*
X90301690Y-108172445D01*
X90335700Y-108001465D01*
X90335700Y-107827135D01*
X90301690Y-107656155D01*
X90247457Y-107525225D01*
X92503663Y-109781432D01*
X92529809Y-109813291D01*
X92561668Y-109839437D01*
X92561670Y-109839439D01*
X92656954Y-109917636D01*
X92802013Y-109995172D01*
X92959411Y-110042918D01*
X93082081Y-110055000D01*
X93082082Y-110055000D01*
X93123100Y-110059040D01*
X93164118Y-110055000D01*
X96528481Y-110055000D01*
X96432429Y-110257996D01*
X96363700Y-110532184D01*
X96349783Y-110814512D01*
X96391213Y-111094130D01*
X96462940Y-111294700D01*
X93308879Y-111294700D01*
X93307755Y-111293576D01*
X93162805Y-111196723D01*
X93001745Y-111130010D01*
X92830765Y-111096000D01*
X92656435Y-111096000D01*
X92485455Y-111130010D01*
X92324395Y-111196723D01*
X92179445Y-111293576D01*
X92178321Y-111294700D01*
X90058125Y-111294700D01*
X90112853Y-111162574D01*
X90168000Y-110885335D01*
X90168000Y-110602665D01*
X90112853Y-110325426D01*
X90004680Y-110064273D01*
X89847637Y-109829241D01*
X89647759Y-109629363D01*
X89412727Y-109472320D01*
X89151574Y-109364147D01*
X88874335Y-109309000D01*
X88591665Y-109309000D01*
X88314426Y-109364147D01*
X88053273Y-109472320D01*
X87818241Y-109629363D01*
X87618363Y-109829241D01*
X87484308Y-110029869D01*
X87469671Y-110002486D01*
X87225702Y-109930903D01*
X86412605Y-110744000D01*
X86426748Y-110758143D01*
X86247143Y-110937748D01*
X86233000Y-110923605D01*
X86218858Y-110937748D01*
X86039253Y-110758143D01*
X86053395Y-110744000D01*
X85240298Y-109930903D01*
X84996329Y-110002486D01*
X84875429Y-110257996D01*
X84806700Y-110532184D01*
X84792783Y-110814512D01*
X84834213Y-111094130D01*
X84905940Y-111294700D01*
X83300718Y-111294700D01*
X83259699Y-111290660D01*
X83218681Y-111294700D01*
X83096011Y-111306782D01*
X82938613Y-111354528D01*
X82793554Y-111432064D01*
X82666409Y-111536409D01*
X82640261Y-111568271D01*
X81514812Y-112693721D01*
X81455264Y-112497419D01*
X81326657Y-112256812D01*
X81153581Y-112045919D01*
X80942688Y-111872843D01*
X80731573Y-111760000D01*
X80942688Y-111647157D01*
X81153581Y-111474081D01*
X81326657Y-111263188D01*
X81455264Y-111022581D01*
X81534460Y-110761507D01*
X81561201Y-110490000D01*
X81534460Y-110218493D01*
X81455264Y-109957419D01*
X81345091Y-109751298D01*
X85419903Y-109751298D01*
X86233000Y-110564395D01*
X87046097Y-109751298D01*
X86974514Y-109507329D01*
X86719004Y-109386429D01*
X86444816Y-109317700D01*
X86162488Y-109303783D01*
X85882870Y-109345213D01*
X85616708Y-109440397D01*
X85491486Y-109507329D01*
X85419903Y-109751298D01*
X81345091Y-109751298D01*
X81326657Y-109716812D01*
X81153581Y-109505919D01*
X80942688Y-109332843D01*
X80731573Y-109220000D01*
X80942688Y-109107157D01*
X81153581Y-108934081D01*
X81326657Y-108723188D01*
X81455264Y-108482581D01*
X81534460Y-108221507D01*
X81561201Y-107950000D01*
X81534460Y-107678493D01*
X81455264Y-107417419D01*
X81326657Y-107176812D01*
X81153581Y-106965919D01*
X80954500Y-106802537D01*
X80954500Y-106405452D01*
X80959991Y-106349700D01*
X80949090Y-106239014D01*
X80938077Y-106127201D01*
X80873176Y-105913253D01*
X80786550Y-105751185D01*
X82000682Y-105751185D01*
X82014827Y-105822684D01*
X82120858Y-106073868D01*
X82273855Y-106299540D01*
X82467939Y-106491028D01*
X82695651Y-106640972D01*
X82948240Y-106743611D01*
X83216000Y-106795000D01*
X83566000Y-106795000D01*
X83566000Y-105537000D01*
X82123344Y-105537000D01*
X82000682Y-105751185D01*
X80786550Y-105751185D01*
X80767784Y-105716077D01*
X80625949Y-105543251D01*
X80453123Y-105401416D01*
X80255947Y-105296024D01*
X80162226Y-105267594D01*
X78667350Y-103772718D01*
X78619353Y-103531426D01*
X78511180Y-103270273D01*
X78354137Y-103035241D01*
X78154259Y-102835363D01*
X77919227Y-102678320D01*
X77658074Y-102570147D01*
X77380835Y-102515000D01*
X77098165Y-102515000D01*
X76820926Y-102570147D01*
X76559773Y-102678320D01*
X76324741Y-102835363D01*
X76124863Y-103035241D01*
X75990808Y-103235869D01*
X75976171Y-103208486D01*
X75732202Y-103136903D01*
X74919105Y-103950000D01*
X75732202Y-104763097D01*
X75976171Y-104691514D01*
X75989824Y-104662659D01*
X76124863Y-104864759D01*
X76324741Y-105064637D01*
X76559773Y-105221680D01*
X76820926Y-105329853D01*
X77062218Y-105377850D01*
X78575972Y-106891604D01*
X78485419Y-106965919D01*
X78312343Y-107176812D01*
X78183736Y-107417419D01*
X78104540Y-107678493D01*
X78077799Y-107950000D01*
X78104540Y-108221507D01*
X78183736Y-108482581D01*
X78312343Y-108723188D01*
X78485419Y-108934081D01*
X78696312Y-109107157D01*
X78907427Y-109220000D01*
X78696312Y-109332843D01*
X78485419Y-109505919D01*
X78312343Y-109716812D01*
X78269895Y-109796227D01*
X74216900Y-105743233D01*
X74216900Y-105290255D01*
X74253496Y-105307571D01*
X74527684Y-105376300D01*
X74810012Y-105390217D01*
X75089630Y-105348787D01*
X75355792Y-105253603D01*
X75481014Y-105186671D01*
X75552597Y-104942702D01*
X74739500Y-104129605D01*
X74725358Y-104143748D01*
X74545753Y-103964143D01*
X74559895Y-103950000D01*
X74545753Y-103935858D01*
X74725358Y-103756253D01*
X74739500Y-103770395D01*
X75552597Y-102957298D01*
X75481014Y-102713329D01*
X75225504Y-102592429D01*
X74951316Y-102523700D01*
X74693287Y-102510981D01*
X74850402Y-102353867D01*
X74889005Y-102337877D01*
X75033955Y-102241024D01*
X75157224Y-102117755D01*
X75254077Y-101972805D01*
X75320790Y-101811745D01*
X75354800Y-101640765D01*
X75354800Y-101466435D01*
X75320790Y-101295455D01*
X75254077Y-101134395D01*
X75182858Y-101027809D01*
X75357970Y-100852698D01*
X75383145Y-100847690D01*
X75544205Y-100780977D01*
X75689155Y-100684124D01*
X75812424Y-100560855D01*
X75909277Y-100415905D01*
X75975990Y-100254845D01*
X76010000Y-100083865D01*
X76010000Y-99909535D01*
X75975990Y-99738555D01*
X75909277Y-99577495D01*
X75812424Y-99432545D01*
X75689155Y-99309276D01*
X75544205Y-99212423D01*
X75474866Y-99183702D01*
X78019733Y-96638836D01*
X78051591Y-96612691D01*
X78103620Y-96549294D01*
X78155936Y-96485546D01*
X78233472Y-96340487D01*
X78244237Y-96305000D01*
X78281218Y-96183089D01*
X78293300Y-96060419D01*
X78293300Y-96060418D01*
X78297340Y-96019400D01*
X78293675Y-95982186D01*
X78400355Y-96139540D01*
G36*
X97983748Y-110729858D02*
G01*
X97969605Y-110744000D01*
X97983748Y-110758143D01*
X97804143Y-110937748D01*
X97790000Y-110923605D01*
X97775858Y-110937748D01*
X97596253Y-110758143D01*
X97610395Y-110744000D01*
X97596253Y-110729858D01*
X97775858Y-110550253D01*
X97790000Y-110564395D01*
X97804143Y-110550253D01*
X97983748Y-110729858D01*
X97983748Y-110729858D01*
G37*
X97983748Y-110729858D02*
X97969605Y-110744000D01*
X97983748Y-110758143D01*
X97804143Y-110937748D01*
X97790000Y-110923605D01*
X97775858Y-110937748D01*
X97596253Y-110758143D01*
X97610395Y-110744000D01*
X97596253Y-110729858D01*
X97775858Y-110550253D01*
X97790000Y-110564395D01*
X97804143Y-110550253D01*
X97983748Y-110729858D01*
G36*
X100383863Y-104581832D02*
G01*
X100410009Y-104613691D01*
X100441868Y-104639837D01*
X100441870Y-104639839D01*
X100537154Y-104718036D01*
X100682213Y-104795572D01*
X100839611Y-104843318D01*
X101003300Y-104859440D01*
X101044318Y-104855400D01*
X101251733Y-104855400D01*
X101191827Y-104997316D01*
X101177682Y-105068815D01*
X101300344Y-105283000D01*
X102743000Y-105283000D01*
X102743000Y-105263000D01*
X102997000Y-105263000D01*
X102997000Y-105283000D01*
X104439656Y-105283000D01*
X104562318Y-105068815D01*
X104548173Y-104997316D01*
X104488267Y-104855400D01*
X105056005Y-104855400D01*
X105044236Y-104877419D01*
X104965040Y-105138493D01*
X104938299Y-105410000D01*
X104965040Y-105681507D01*
X105044236Y-105942581D01*
X105172843Y-106183188D01*
X105345919Y-106394081D01*
X105556812Y-106567157D01*
X105767927Y-106680000D01*
X105556812Y-106792843D01*
X105345919Y-106965919D01*
X105172843Y-107176812D01*
X105044236Y-107417419D01*
X105011411Y-107525628D01*
X104856155Y-107556510D01*
X104817552Y-107572500D01*
X96330968Y-107572500D01*
X95553468Y-106795000D01*
X95727000Y-106795000D01*
X95994760Y-106743611D01*
X96247349Y-106640972D01*
X96475061Y-106491028D01*
X96669145Y-106299540D01*
X96822142Y-106073868D01*
X96928173Y-105822684D01*
X96942318Y-105751185D01*
X101177682Y-105751185D01*
X101191827Y-105822684D01*
X101297858Y-106073868D01*
X101450855Y-106299540D01*
X101644939Y-106491028D01*
X101872651Y-106640972D01*
X102125240Y-106743611D01*
X102393000Y-106795000D01*
X102743000Y-106795000D01*
X102743000Y-105537000D01*
X102997000Y-105537000D01*
X102997000Y-106795000D01*
X103347000Y-106795000D01*
X103614760Y-106743611D01*
X103867349Y-106640972D01*
X104095061Y-106491028D01*
X104289145Y-106299540D01*
X104442142Y-106073868D01*
X104548173Y-105822684D01*
X104562318Y-105751185D01*
X104439656Y-105537000D01*
X102997000Y-105537000D01*
X102743000Y-105537000D01*
X101300344Y-105537000D01*
X101177682Y-105751185D01*
X96942318Y-105751185D01*
X96819656Y-105537000D01*
X95377000Y-105537000D01*
X95377000Y-105557000D01*
X95123000Y-105557000D01*
X95123000Y-105537000D01*
X95103000Y-105537000D01*
X95103000Y-105283000D01*
X95123000Y-105283000D01*
X95123000Y-105263000D01*
X95377000Y-105263000D01*
X95377000Y-105283000D01*
X96819656Y-105283000D01*
X96942318Y-105068815D01*
X96928173Y-104997316D01*
X96822142Y-104746132D01*
X96669145Y-104520460D01*
X96475061Y-104328972D01*
X96247349Y-104179028D01*
X96157422Y-104142486D01*
X96373188Y-104027157D01*
X96584081Y-103854081D01*
X96757157Y-103643188D01*
X96885764Y-103402581D01*
X96964960Y-103141507D01*
X96991701Y-102870000D01*
X96964960Y-102598493D01*
X96885764Y-102337419D01*
X96757157Y-102096812D01*
X96584081Y-101885919D01*
X96373188Y-101712843D01*
X96162073Y-101600000D01*
X96373188Y-101487157D01*
X96584081Y-101314081D01*
X96757157Y-101103188D01*
X96808731Y-101006699D01*
X100383863Y-104581832D01*
X100383863Y-104581832D01*
G37*
X100383863Y-104581832D02*
X100410009Y-104613691D01*
X100441868Y-104639837D01*
X100441870Y-104639839D01*
X100537154Y-104718036D01*
X100682213Y-104795572D01*
X100839611Y-104843318D01*
X101003300Y-104859440D01*
X101044318Y-104855400D01*
X101251733Y-104855400D01*
X101191827Y-104997316D01*
X101177682Y-105068815D01*
X101300344Y-105283000D01*
X102743000Y-105283000D01*
X102743000Y-105263000D01*
X102997000Y-105263000D01*
X102997000Y-105283000D01*
X104439656Y-105283000D01*
X104562318Y-105068815D01*
X104548173Y-104997316D01*
X104488267Y-104855400D01*
X105056005Y-104855400D01*
X105044236Y-104877419D01*
X104965040Y-105138493D01*
X104938299Y-105410000D01*
X104965040Y-105681507D01*
X105044236Y-105942581D01*
X105172843Y-106183188D01*
X105345919Y-106394081D01*
X105556812Y-106567157D01*
X105767927Y-106680000D01*
X105556812Y-106792843D01*
X105345919Y-106965919D01*
X105172843Y-107176812D01*
X105044236Y-107417419D01*
X105011411Y-107525628D01*
X104856155Y-107556510D01*
X104817552Y-107572500D01*
X96330968Y-107572500D01*
X95553468Y-106795000D01*
X95727000Y-106795000D01*
X95994760Y-106743611D01*
X96247349Y-106640972D01*
X96475061Y-106491028D01*
X96669145Y-106299540D01*
X96822142Y-106073868D01*
X96928173Y-105822684D01*
X96942318Y-105751185D01*
X101177682Y-105751185D01*
X101191827Y-105822684D01*
X101297858Y-106073868D01*
X101450855Y-106299540D01*
X101644939Y-106491028D01*
X101872651Y-106640972D01*
X102125240Y-106743611D01*
X102393000Y-106795000D01*
X102743000Y-106795000D01*
X102743000Y-105537000D01*
X102997000Y-105537000D01*
X102997000Y-106795000D01*
X103347000Y-106795000D01*
X103614760Y-106743611D01*
X103867349Y-106640972D01*
X104095061Y-106491028D01*
X104289145Y-106299540D01*
X104442142Y-106073868D01*
X104548173Y-105822684D01*
X104562318Y-105751185D01*
X104439656Y-105537000D01*
X102997000Y-105537000D01*
X102743000Y-105537000D01*
X101300344Y-105537000D01*
X101177682Y-105751185D01*
X96942318Y-105751185D01*
X96819656Y-105537000D01*
X95377000Y-105537000D01*
X95377000Y-105557000D01*
X95123000Y-105557000D01*
X95123000Y-105537000D01*
X95103000Y-105537000D01*
X95103000Y-105283000D01*
X95123000Y-105283000D01*
X95123000Y-105263000D01*
X95377000Y-105263000D01*
X95377000Y-105283000D01*
X96819656Y-105283000D01*
X96942318Y-105068815D01*
X96928173Y-104997316D01*
X96822142Y-104746132D01*
X96669145Y-104520460D01*
X96475061Y-104328972D01*
X96247349Y-104179028D01*
X96157422Y-104142486D01*
X96373188Y-104027157D01*
X96584081Y-103854081D01*
X96757157Y-103643188D01*
X96885764Y-103402581D01*
X96964960Y-103141507D01*
X96991701Y-102870000D01*
X96964960Y-102598493D01*
X96885764Y-102337419D01*
X96757157Y-102096812D01*
X96584081Y-101885919D01*
X96373188Y-101712843D01*
X96162073Y-101600000D01*
X96373188Y-101487157D01*
X96584081Y-101314081D01*
X96757157Y-101103188D01*
X96808731Y-101006699D01*
X100383863Y-104581832D01*
G36*
X101155040Y-97518493D02*
G01*
X101128299Y-97790000D01*
X101155040Y-98061507D01*
X101234236Y-98322581D01*
X101362843Y-98563188D01*
X101535919Y-98774081D01*
X101746812Y-98947157D01*
X101957927Y-99060000D01*
X101746812Y-99172843D01*
X101535919Y-99345919D01*
X101362843Y-99556812D01*
X101234236Y-99797419D01*
X101155040Y-100058493D01*
X101128299Y-100330000D01*
X101155040Y-100601507D01*
X101234236Y-100862581D01*
X101362843Y-101103188D01*
X101535919Y-101314081D01*
X101746812Y-101487157D01*
X101957927Y-101600000D01*
X101746812Y-101712843D01*
X101535919Y-101885919D01*
X101362843Y-102096812D01*
X101234236Y-102337419D01*
X101155040Y-102598493D01*
X101128299Y-102870000D01*
X101138627Y-102974858D01*
X96743543Y-98579776D01*
X96757157Y-98563188D01*
X96885764Y-98322581D01*
X96964960Y-98061507D01*
X96991701Y-97790000D01*
X96964960Y-97518493D01*
X96915365Y-97355000D01*
X101204635Y-97355000D01*
X101155040Y-97518493D01*
X101155040Y-97518493D01*
G37*
X101155040Y-97518493D02*
X101128299Y-97790000D01*
X101155040Y-98061507D01*
X101234236Y-98322581D01*
X101362843Y-98563188D01*
X101535919Y-98774081D01*
X101746812Y-98947157D01*
X101957927Y-99060000D01*
X101746812Y-99172843D01*
X101535919Y-99345919D01*
X101362843Y-99556812D01*
X101234236Y-99797419D01*
X101155040Y-100058493D01*
X101128299Y-100330000D01*
X101155040Y-100601507D01*
X101234236Y-100862581D01*
X101362843Y-101103188D01*
X101535919Y-101314081D01*
X101746812Y-101487157D01*
X101957927Y-101600000D01*
X101746812Y-101712843D01*
X101535919Y-101885919D01*
X101362843Y-102096812D01*
X101234236Y-102337419D01*
X101155040Y-102598493D01*
X101128299Y-102870000D01*
X101138627Y-102974858D01*
X96743543Y-98579776D01*
X96757157Y-98563188D01*
X96885764Y-98322581D01*
X96964960Y-98061507D01*
X96991701Y-97790000D01*
X96964960Y-97518493D01*
X96915365Y-97355000D01*
X101204635Y-97355000D01*
X101155040Y-97518493D01*
G36*
X78104540Y-92438493D02*
G01*
X78077799Y-92710000D01*
X78104540Y-92981507D01*
X78183736Y-93242581D01*
X78269394Y-93402837D01*
X76896874Y-94775359D01*
X76865010Y-94801509D01*
X76838862Y-94833371D01*
X76760664Y-94928655D01*
X76760526Y-94928914D01*
X76683128Y-95073713D01*
X76635382Y-95231111D01*
X76626453Y-95321764D01*
X76619260Y-95394800D01*
X76623300Y-95435818D01*
X76623300Y-95673531D01*
X73621493Y-98675339D01*
X73771642Y-98453868D01*
X73877673Y-98202684D01*
X73891818Y-98131185D01*
X73769156Y-97917000D01*
X72326500Y-97917000D01*
X72326500Y-99175000D01*
X72676500Y-99175000D01*
X72944260Y-99123611D01*
X73196849Y-99020972D01*
X73424561Y-98871028D01*
X73517490Y-98779342D01*
X70904900Y-101391933D01*
X70904900Y-98802419D01*
X70974439Y-98871028D01*
X71202151Y-99020972D01*
X71454740Y-99123611D01*
X71722500Y-99175000D01*
X72072500Y-99175000D01*
X72072500Y-97917000D01*
X72052500Y-97917000D01*
X72052500Y-97663000D01*
X72072500Y-97663000D01*
X72072500Y-97643000D01*
X72326500Y-97643000D01*
X72326500Y-97663000D01*
X73769156Y-97663000D01*
X73891818Y-97448815D01*
X73877673Y-97377316D01*
X73771642Y-97126132D01*
X73618645Y-96900460D01*
X73424561Y-96708972D01*
X73196849Y-96559028D01*
X73106922Y-96522486D01*
X73322688Y-96407157D01*
X73533581Y-96234081D01*
X73706657Y-96023188D01*
X73835264Y-95782581D01*
X73914460Y-95521507D01*
X73941201Y-95250000D01*
X73914460Y-94978493D01*
X73835264Y-94717419D01*
X73706657Y-94476812D01*
X73533581Y-94265919D01*
X73322688Y-94092843D01*
X73111573Y-93980000D01*
X73322688Y-93867157D01*
X73533581Y-93694081D01*
X73706657Y-93483188D01*
X73835264Y-93242581D01*
X73914460Y-92981507D01*
X73941201Y-92710000D01*
X73914460Y-92438493D01*
X73901176Y-92394700D01*
X78117824Y-92394700D01*
X78104540Y-92438493D01*
X78104540Y-92438493D01*
G37*
X78104540Y-92438493D02*
X78077799Y-92710000D01*
X78104540Y-92981507D01*
X78183736Y-93242581D01*
X78269394Y-93402837D01*
X76896874Y-94775359D01*
X76865010Y-94801509D01*
X76838862Y-94833371D01*
X76760664Y-94928655D01*
X76760526Y-94928914D01*
X76683128Y-95073713D01*
X76635382Y-95231111D01*
X76626453Y-95321764D01*
X76619260Y-95394800D01*
X76623300Y-95435818D01*
X76623300Y-95673531D01*
X73621493Y-98675339D01*
X73771642Y-98453868D01*
X73877673Y-98202684D01*
X73891818Y-98131185D01*
X73769156Y-97917000D01*
X72326500Y-97917000D01*
X72326500Y-99175000D01*
X72676500Y-99175000D01*
X72944260Y-99123611D01*
X73196849Y-99020972D01*
X73424561Y-98871028D01*
X73517490Y-98779342D01*
X70904900Y-101391933D01*
X70904900Y-98802419D01*
X70974439Y-98871028D01*
X71202151Y-99020972D01*
X71454740Y-99123611D01*
X71722500Y-99175000D01*
X72072500Y-99175000D01*
X72072500Y-97917000D01*
X72052500Y-97917000D01*
X72052500Y-97663000D01*
X72072500Y-97663000D01*
X72072500Y-97643000D01*
X72326500Y-97643000D01*
X72326500Y-97663000D01*
X73769156Y-97663000D01*
X73891818Y-97448815D01*
X73877673Y-97377316D01*
X73771642Y-97126132D01*
X73618645Y-96900460D01*
X73424561Y-96708972D01*
X73196849Y-96559028D01*
X73106922Y-96522486D01*
X73322688Y-96407157D01*
X73533581Y-96234081D01*
X73706657Y-96023188D01*
X73835264Y-95782581D01*
X73914460Y-95521507D01*
X73941201Y-95250000D01*
X73914460Y-94978493D01*
X73835264Y-94717419D01*
X73706657Y-94476812D01*
X73533581Y-94265919D01*
X73322688Y-94092843D01*
X73111573Y-93980000D01*
X73322688Y-93867157D01*
X73533581Y-93694081D01*
X73706657Y-93483188D01*
X73835264Y-93242581D01*
X73914460Y-92981507D01*
X73941201Y-92710000D01*
X73914460Y-92438493D01*
X73901176Y-92394700D01*
X78117824Y-92394700D01*
X78104540Y-92438493D01*
G36*
X101362843Y-90943188D02*
G01*
X101535919Y-91154081D01*
X101746812Y-91327157D01*
X101957927Y-91440000D01*
X101746812Y-91552843D01*
X101535919Y-91725919D01*
X101362843Y-91936812D01*
X101234236Y-92177419D01*
X101155040Y-92438493D01*
X101128299Y-92710000D01*
X101155040Y-92981507D01*
X101234236Y-93242581D01*
X101362843Y-93483188D01*
X101535919Y-93694081D01*
X101746812Y-93867157D01*
X101957927Y-93980000D01*
X101746812Y-94092843D01*
X101535919Y-94265919D01*
X101362843Y-94476812D01*
X101234236Y-94717419D01*
X101155040Y-94978493D01*
X101128299Y-95250000D01*
X101155040Y-95521507D01*
X101204635Y-95685000D01*
X97464584Y-95685000D01*
X97525472Y-95571087D01*
X97573218Y-95413689D01*
X97589340Y-95250000D01*
X97585300Y-95208981D01*
X97585300Y-94652467D01*
X101339065Y-90898703D01*
X101362843Y-90943188D01*
X101362843Y-90943188D01*
G37*
X101362843Y-90943188D02*
X101535919Y-91154081D01*
X101746812Y-91327157D01*
X101957927Y-91440000D01*
X101746812Y-91552843D01*
X101535919Y-91725919D01*
X101362843Y-91936812D01*
X101234236Y-92177419D01*
X101155040Y-92438493D01*
X101128299Y-92710000D01*
X101155040Y-92981507D01*
X101234236Y-93242581D01*
X101362843Y-93483188D01*
X101535919Y-93694081D01*
X101746812Y-93867157D01*
X101957927Y-93980000D01*
X101746812Y-94092843D01*
X101535919Y-94265919D01*
X101362843Y-94476812D01*
X101234236Y-94717419D01*
X101155040Y-94978493D01*
X101128299Y-95250000D01*
X101155040Y-95521507D01*
X101204635Y-95685000D01*
X97464584Y-95685000D01*
X97525472Y-95571087D01*
X97573218Y-95413689D01*
X97589340Y-95250000D01*
X97585300Y-95208981D01*
X97585300Y-94652467D01*
X101339065Y-90898703D01*
X101362843Y-90943188D01*
G36*
X86848333Y-90817300D02*
G01*
X86864323Y-90855905D01*
X86961176Y-91000855D01*
X87084445Y-91124124D01*
X87229395Y-91220977D01*
X87390455Y-91287690D01*
X87561435Y-91321700D01*
X87735765Y-91321700D01*
X87906745Y-91287690D01*
X88067805Y-91220977D01*
X88143399Y-91170467D01*
X88605800Y-91632868D01*
X88605801Y-92799072D01*
X88601760Y-92840100D01*
X88617882Y-93003788D01*
X88665628Y-93161186D01*
X88743164Y-93306245D01*
X88743165Y-93306246D01*
X88847510Y-93433391D01*
X88879374Y-93459541D01*
X89802332Y-94382500D01*
X89818323Y-94421105D01*
X89833240Y-94443429D01*
X89805843Y-94476812D01*
X89677236Y-94717419D01*
X89598040Y-94978493D01*
X89571299Y-95250000D01*
X89590826Y-95448257D01*
X85148590Y-91006023D01*
X85200157Y-90943188D01*
X85328764Y-90702581D01*
X85407960Y-90441507D01*
X85434701Y-90170000D01*
X85407960Y-89898493D01*
X85328764Y-89637419D01*
X85200157Y-89396812D01*
X85027081Y-89185919D01*
X84816188Y-89012843D01*
X84575581Y-88884236D01*
X84314507Y-88805040D01*
X84111037Y-88785000D01*
X83274963Y-88785000D01*
X83071493Y-88805040D01*
X82810419Y-88884236D01*
X82569812Y-89012843D01*
X82358919Y-89185919D01*
X82207045Y-89370977D01*
X81294346Y-88458279D01*
X81287895Y-88450419D01*
X81326657Y-88403188D01*
X81455264Y-88162581D01*
X81534460Y-87901507D01*
X81561201Y-87630000D01*
X81534460Y-87358493D01*
X81484865Y-87195000D01*
X83226033Y-87195000D01*
X86848333Y-90817300D01*
X86848333Y-90817300D01*
G37*
X86848333Y-90817300D02*
X86864323Y-90855905D01*
X86961176Y-91000855D01*
X87084445Y-91124124D01*
X87229395Y-91220977D01*
X87390455Y-91287690D01*
X87561435Y-91321700D01*
X87735765Y-91321700D01*
X87906745Y-91287690D01*
X88067805Y-91220977D01*
X88143399Y-91170467D01*
X88605800Y-91632868D01*
X88605801Y-92799072D01*
X88601760Y-92840100D01*
X88617882Y-93003788D01*
X88665628Y-93161186D01*
X88743164Y-93306245D01*
X88743165Y-93306246D01*
X88847510Y-93433391D01*
X88879374Y-93459541D01*
X89802332Y-94382500D01*
X89818323Y-94421105D01*
X89833240Y-94443429D01*
X89805843Y-94476812D01*
X89677236Y-94717419D01*
X89598040Y-94978493D01*
X89571299Y-95250000D01*
X89590826Y-95448257D01*
X85148590Y-91006023D01*
X85200157Y-90943188D01*
X85328764Y-90702581D01*
X85407960Y-90441507D01*
X85434701Y-90170000D01*
X85407960Y-89898493D01*
X85328764Y-89637419D01*
X85200157Y-89396812D01*
X85027081Y-89185919D01*
X84816188Y-89012843D01*
X84575581Y-88884236D01*
X84314507Y-88805040D01*
X84111037Y-88785000D01*
X83274963Y-88785000D01*
X83071493Y-88805040D01*
X82810419Y-88884236D01*
X82569812Y-89012843D01*
X82358919Y-89185919D01*
X82207045Y-89370977D01*
X81294346Y-88458279D01*
X81287895Y-88450419D01*
X81326657Y-88403188D01*
X81455264Y-88162581D01*
X81534460Y-87901507D01*
X81561201Y-87630000D01*
X81534460Y-87358493D01*
X81484865Y-87195000D01*
X83226033Y-87195000D01*
X86848333Y-90817300D01*
G36*
X79946500Y-95123000D02*
G01*
X79966500Y-95123000D01*
X79966500Y-95377000D01*
X79946500Y-95377000D01*
X79946500Y-95397000D01*
X79692500Y-95397000D01*
X79692500Y-95377000D01*
X79672500Y-95377000D01*
X79672500Y-95123000D01*
X79692500Y-95123000D01*
X79692500Y-95103000D01*
X79946500Y-95103000D01*
X79946500Y-95123000D01*
X79946500Y-95123000D01*
G37*
X79946500Y-95123000D02*
X79966500Y-95123000D01*
X79966500Y-95377000D01*
X79946500Y-95377000D01*
X79946500Y-95397000D01*
X79692500Y-95397000D01*
X79692500Y-95377000D01*
X79672500Y-95377000D01*
X79672500Y-95123000D01*
X79692500Y-95123000D01*
X79692500Y-95103000D01*
X79946500Y-95103000D01*
X79946500Y-95123000D01*
G36*
X120412843Y-85863188D02*
G01*
X120585919Y-86074081D01*
X120796812Y-86247157D01*
X121007927Y-86360000D01*
X120796812Y-86472843D01*
X120585919Y-86645919D01*
X120412843Y-86856812D01*
X120284236Y-87097419D01*
X120205040Y-87358493D01*
X120178299Y-87630000D01*
X120205040Y-87901507D01*
X120284236Y-88162581D01*
X120412843Y-88403188D01*
X120585919Y-88614081D01*
X120796812Y-88787157D01*
X121007927Y-88900000D01*
X120796812Y-89012843D01*
X120585919Y-89185919D01*
X120412843Y-89396812D01*
X120284236Y-89637419D01*
X120205040Y-89898493D01*
X120178299Y-90170000D01*
X120205040Y-90441507D01*
X120284236Y-90702581D01*
X120412843Y-90943188D01*
X120585919Y-91154081D01*
X120796812Y-91327157D01*
X121007927Y-91440000D01*
X120796812Y-91552843D01*
X120585919Y-91725919D01*
X120412843Y-91936812D01*
X120284236Y-92177419D01*
X120205040Y-92438493D01*
X120178299Y-92710000D01*
X120205040Y-92981507D01*
X120284236Y-93242581D01*
X120412843Y-93483188D01*
X120585919Y-93694081D01*
X120796812Y-93867157D01*
X121007927Y-93980000D01*
X120796812Y-94092843D01*
X120585919Y-94265919D01*
X120412843Y-94476812D01*
X120360398Y-94574930D01*
X118170400Y-92384933D01*
X118170400Y-90338748D01*
X118186390Y-90300145D01*
X118220400Y-90129165D01*
X118220400Y-89954835D01*
X118186390Y-89783855D01*
X118119677Y-89622795D01*
X118022824Y-89477845D01*
X117899555Y-89354576D01*
X117754605Y-89257723D01*
X117593545Y-89191010D01*
X117422565Y-89157000D01*
X117248235Y-89157000D01*
X117077255Y-89191010D01*
X116972955Y-89234212D01*
X120388856Y-85818312D01*
X120412843Y-85863188D01*
X120412843Y-85863188D01*
G37*
X120412843Y-85863188D02*
X120585919Y-86074081D01*
X120796812Y-86247157D01*
X121007927Y-86360000D01*
X120796812Y-86472843D01*
X120585919Y-86645919D01*
X120412843Y-86856812D01*
X120284236Y-87097419D01*
X120205040Y-87358493D01*
X120178299Y-87630000D01*
X120205040Y-87901507D01*
X120284236Y-88162581D01*
X120412843Y-88403188D01*
X120585919Y-88614081D01*
X120796812Y-88787157D01*
X121007927Y-88900000D01*
X120796812Y-89012843D01*
X120585919Y-89185919D01*
X120412843Y-89396812D01*
X120284236Y-89637419D01*
X120205040Y-89898493D01*
X120178299Y-90170000D01*
X120205040Y-90441507D01*
X120284236Y-90702581D01*
X120412843Y-90943188D01*
X120585919Y-91154081D01*
X120796812Y-91327157D01*
X121007927Y-91440000D01*
X120796812Y-91552843D01*
X120585919Y-91725919D01*
X120412843Y-91936812D01*
X120284236Y-92177419D01*
X120205040Y-92438493D01*
X120178299Y-92710000D01*
X120205040Y-92981507D01*
X120284236Y-93242581D01*
X120412843Y-93483188D01*
X120585919Y-93694081D01*
X120796812Y-93867157D01*
X121007927Y-93980000D01*
X120796812Y-94092843D01*
X120585919Y-94265919D01*
X120412843Y-94476812D01*
X120360398Y-94574930D01*
X118170400Y-92384933D01*
X118170400Y-90338748D01*
X118186390Y-90300145D01*
X118220400Y-90129165D01*
X118220400Y-89954835D01*
X118186390Y-89783855D01*
X118119677Y-89622795D01*
X118022824Y-89477845D01*
X117899555Y-89354576D01*
X117754605Y-89257723D01*
X117593545Y-89191010D01*
X117422565Y-89157000D01*
X117248235Y-89157000D01*
X117077255Y-89191010D01*
X116972955Y-89234212D01*
X120388856Y-85818312D01*
X120412843Y-85863188D01*
G36*
X101155040Y-84818493D02*
G01*
X101128299Y-85090000D01*
X101155040Y-85361507D01*
X101234236Y-85622581D01*
X101362843Y-85863188D01*
X101388221Y-85894111D01*
X98684779Y-88597554D01*
X98652909Y-88623709D01*
X98591437Y-88698614D01*
X98548564Y-88750855D01*
X98471028Y-88895914D01*
X98423282Y-89053312D01*
X98407160Y-89217000D01*
X98411200Y-89258019D01*
X98411201Y-90418231D01*
X96804343Y-92025090D01*
X96757157Y-91936812D01*
X96731734Y-91905834D01*
X97320426Y-91317142D01*
X97352291Y-91290991D01*
X97456636Y-91163846D01*
X97534172Y-91018787D01*
X97581918Y-90861389D01*
X97587460Y-90805119D01*
X97598040Y-90697701D01*
X97594000Y-90656682D01*
X97594000Y-87148318D01*
X97598040Y-87107300D01*
X97581918Y-86943611D01*
X97534172Y-86786213D01*
X97456636Y-86641154D01*
X97378439Y-86545870D01*
X97378437Y-86545868D01*
X97352291Y-86514009D01*
X97320432Y-86487864D01*
X96750745Y-85918178D01*
X96731386Y-85894589D01*
X96757157Y-85863188D01*
X96885764Y-85622581D01*
X96964960Y-85361507D01*
X96991701Y-85090000D01*
X96964960Y-84818493D01*
X96928196Y-84697300D01*
X101191804Y-84697300D01*
X101155040Y-84818493D01*
X101155040Y-84818493D01*
G37*
X101155040Y-84818493D02*
X101128299Y-85090000D01*
X101155040Y-85361507D01*
X101234236Y-85622581D01*
X101362843Y-85863188D01*
X101388221Y-85894111D01*
X98684779Y-88597554D01*
X98652909Y-88623709D01*
X98591437Y-88698614D01*
X98548564Y-88750855D01*
X98471028Y-88895914D01*
X98423282Y-89053312D01*
X98407160Y-89217000D01*
X98411200Y-89258019D01*
X98411201Y-90418231D01*
X96804343Y-92025090D01*
X96757157Y-91936812D01*
X96731734Y-91905834D01*
X97320426Y-91317142D01*
X97352291Y-91290991D01*
X97456636Y-91163846D01*
X97534172Y-91018787D01*
X97581918Y-90861389D01*
X97587460Y-90805119D01*
X97598040Y-90697701D01*
X97594000Y-90656682D01*
X97594000Y-87148318D01*
X97598040Y-87107300D01*
X97581918Y-86943611D01*
X97534172Y-86786213D01*
X97456636Y-86641154D01*
X97378439Y-86545870D01*
X97378437Y-86545868D01*
X97352291Y-86514009D01*
X97320432Y-86487864D01*
X96750745Y-85918178D01*
X96731386Y-85894589D01*
X96757157Y-85863188D01*
X96885764Y-85622581D01*
X96964960Y-85361507D01*
X96991701Y-85090000D01*
X96964960Y-84818493D01*
X96928196Y-84697300D01*
X101191804Y-84697300D01*
X101155040Y-84818493D01*
G36*
X86426748Y-86155358D02*
G01*
X86412605Y-86169500D01*
X87225702Y-86982597D01*
X87469671Y-86911014D01*
X87483324Y-86882159D01*
X87618363Y-87084259D01*
X87818241Y-87284137D01*
X88053273Y-87441180D01*
X88314426Y-87549353D01*
X88555718Y-87597350D01*
X90069747Y-89111378D01*
X89978919Y-89185919D01*
X89805843Y-89396812D01*
X89677236Y-89637419D01*
X89598040Y-89898493D01*
X89571299Y-90170000D01*
X89578579Y-90243911D01*
X86818708Y-87484040D01*
X86849292Y-87473103D01*
X86974514Y-87406171D01*
X87046097Y-87162202D01*
X86233000Y-86349105D01*
X86218858Y-86363248D01*
X86039253Y-86183643D01*
X86053395Y-86169500D01*
X86039253Y-86155358D01*
X86218858Y-85975753D01*
X86233000Y-85989895D01*
X86247143Y-85975753D01*
X86426748Y-86155358D01*
X86426748Y-86155358D01*
G37*
X86426748Y-86155358D02*
X86412605Y-86169500D01*
X87225702Y-86982597D01*
X87469671Y-86911014D01*
X87483324Y-86882159D01*
X87618363Y-87084259D01*
X87818241Y-87284137D01*
X88053273Y-87441180D01*
X88314426Y-87549353D01*
X88555718Y-87597350D01*
X90069747Y-89111378D01*
X89978919Y-89185919D01*
X89805843Y-89396812D01*
X89677236Y-89637419D01*
X89598040Y-89898493D01*
X89571299Y-90170000D01*
X89578579Y-90243911D01*
X86818708Y-87484040D01*
X86849292Y-87473103D01*
X86974514Y-87406171D01*
X87046097Y-87162202D01*
X86233000Y-86349105D01*
X86218858Y-86363248D01*
X86039253Y-86183643D01*
X86053395Y-86169500D01*
X86039253Y-86155358D01*
X86218858Y-85975753D01*
X86233000Y-85989895D01*
X86247143Y-85975753D01*
X86426748Y-86155358D01*
G36*
X121037419Y-81264236D02*
G01*
X120796812Y-81392843D01*
X120585919Y-81565919D01*
X120463571Y-81715000D01*
X120460718Y-81715000D01*
X120419700Y-81710960D01*
X120378682Y-81715000D01*
X120378681Y-81715000D01*
X120256011Y-81727082D01*
X120129617Y-81765423D01*
X120098613Y-81774828D01*
X119953554Y-81852364D01*
X119874048Y-81917613D01*
X119826409Y-81956709D01*
X119800263Y-81988568D01*
X112075800Y-89713033D01*
X112075800Y-89037167D01*
X114244828Y-86868140D01*
X114276691Y-86841991D01*
X114381036Y-86714846D01*
X114458572Y-86569787D01*
X114506318Y-86412389D01*
X114518400Y-86289719D01*
X114518400Y-86289718D01*
X114522440Y-86248701D01*
X114518400Y-86207682D01*
X114518400Y-83048115D01*
X114522440Y-83007099D01*
X114518024Y-82962264D01*
X114506318Y-82843411D01*
X114458572Y-82686013D01*
X114381036Y-82540954D01*
X114276691Y-82413809D01*
X114244821Y-82387654D01*
X113926451Y-82069284D01*
X113881924Y-82002645D01*
X113758655Y-81879376D01*
X113613705Y-81782523D01*
X113452645Y-81715810D01*
X113281665Y-81681800D01*
X113107335Y-81681800D01*
X112936355Y-81715810D01*
X112775295Y-81782523D01*
X112630345Y-81879376D01*
X112507076Y-82002645D01*
X112410223Y-82147595D01*
X112343510Y-82308655D01*
X112309500Y-82479635D01*
X112309500Y-82653965D01*
X112328510Y-82749534D01*
X112234523Y-82890195D01*
X112218533Y-82928798D01*
X110605527Y-84541805D01*
X110598599Y-84518966D01*
X110460706Y-84260986D01*
X110275134Y-84034866D01*
X110245313Y-84010393D01*
X110314180Y-83989502D01*
X110424494Y-83930537D01*
X110521185Y-83851185D01*
X110600537Y-83754494D01*
X110659502Y-83644180D01*
X110695812Y-83524482D01*
X110708072Y-83400000D01*
X110705000Y-82835750D01*
X110546250Y-82677000D01*
X109347000Y-82677000D01*
X109347000Y-82697000D01*
X109093000Y-82697000D01*
X109093000Y-82677000D01*
X106807000Y-82677000D01*
X106807000Y-82697000D01*
X106553000Y-82697000D01*
X106553000Y-82677000D01*
X106533000Y-82677000D01*
X106533000Y-82423000D01*
X106553000Y-82423000D01*
X106553000Y-82403000D01*
X106807000Y-82403000D01*
X106807000Y-82423000D01*
X109093000Y-82423000D01*
X109093000Y-82403000D01*
X109347000Y-82403000D01*
X109347000Y-82423000D01*
X110546250Y-82423000D01*
X110705000Y-82264250D01*
X110708072Y-81700000D01*
X110695812Y-81575518D01*
X110659502Y-81455820D01*
X110600537Y-81345506D01*
X110521185Y-81248815D01*
X110513003Y-81242100D01*
X121110392Y-81242100D01*
X121037419Y-81264236D01*
X121037419Y-81264236D01*
G37*
X121037419Y-81264236D02*
X120796812Y-81392843D01*
X120585919Y-81565919D01*
X120463571Y-81715000D01*
X120460718Y-81715000D01*
X120419700Y-81710960D01*
X120378682Y-81715000D01*
X120378681Y-81715000D01*
X120256011Y-81727082D01*
X120129617Y-81765423D01*
X120098613Y-81774828D01*
X119953554Y-81852364D01*
X119874048Y-81917613D01*
X119826409Y-81956709D01*
X119800263Y-81988568D01*
X112075800Y-89713033D01*
X112075800Y-89037167D01*
X114244828Y-86868140D01*
X114276691Y-86841991D01*
X114381036Y-86714846D01*
X114458572Y-86569787D01*
X114506318Y-86412389D01*
X114518400Y-86289719D01*
X114518400Y-86289718D01*
X114522440Y-86248701D01*
X114518400Y-86207682D01*
X114518400Y-83048115D01*
X114522440Y-83007099D01*
X114518024Y-82962264D01*
X114506318Y-82843411D01*
X114458572Y-82686013D01*
X114381036Y-82540954D01*
X114276691Y-82413809D01*
X114244821Y-82387654D01*
X113926451Y-82069284D01*
X113881924Y-82002645D01*
X113758655Y-81879376D01*
X113613705Y-81782523D01*
X113452645Y-81715810D01*
X113281665Y-81681800D01*
X113107335Y-81681800D01*
X112936355Y-81715810D01*
X112775295Y-81782523D01*
X112630345Y-81879376D01*
X112507076Y-82002645D01*
X112410223Y-82147595D01*
X112343510Y-82308655D01*
X112309500Y-82479635D01*
X112309500Y-82653965D01*
X112328510Y-82749534D01*
X112234523Y-82890195D01*
X112218533Y-82928798D01*
X110605527Y-84541805D01*
X110598599Y-84518966D01*
X110460706Y-84260986D01*
X110275134Y-84034866D01*
X110245313Y-84010393D01*
X110314180Y-83989502D01*
X110424494Y-83930537D01*
X110521185Y-83851185D01*
X110600537Y-83754494D01*
X110659502Y-83644180D01*
X110695812Y-83524482D01*
X110708072Y-83400000D01*
X110705000Y-82835750D01*
X110546250Y-82677000D01*
X109347000Y-82677000D01*
X109347000Y-82697000D01*
X109093000Y-82697000D01*
X109093000Y-82677000D01*
X106807000Y-82677000D01*
X106807000Y-82697000D01*
X106553000Y-82697000D01*
X106553000Y-82677000D01*
X106533000Y-82677000D01*
X106533000Y-82423000D01*
X106553000Y-82423000D01*
X106553000Y-82403000D01*
X106807000Y-82403000D01*
X106807000Y-82423000D01*
X109093000Y-82423000D01*
X109093000Y-82403000D01*
X109347000Y-82403000D01*
X109347000Y-82423000D01*
X110546250Y-82423000D01*
X110705000Y-82264250D01*
X110708072Y-81700000D01*
X110695812Y-81575518D01*
X110659502Y-81455820D01*
X110600537Y-81345506D01*
X110521185Y-81248815D01*
X110513003Y-81242100D01*
X121110392Y-81242100D01*
X121037419Y-81264236D01*
G36*
X101735000Y-81342160D02*
G01*
X101735000Y-81402537D01*
X101535919Y-81565919D01*
X101362843Y-81776812D01*
X101234236Y-82017419D01*
X101155040Y-82278493D01*
X101128299Y-82550000D01*
X101155040Y-82821507D01*
X101217467Y-83027300D01*
X96902533Y-83027300D01*
X96964960Y-82821507D01*
X96991701Y-82550000D01*
X96964960Y-82278493D01*
X96885764Y-82017419D01*
X96757157Y-81776812D01*
X96584081Y-81565919D01*
X96373188Y-81392843D01*
X96273203Y-81339400D01*
X101706982Y-81339400D01*
X101735000Y-81342160D01*
X101735000Y-81342160D01*
G37*
X101735000Y-81342160D02*
X101735000Y-81402537D01*
X101535919Y-81565919D01*
X101362843Y-81776812D01*
X101234236Y-82017419D01*
X101155040Y-82278493D01*
X101128299Y-82550000D01*
X101155040Y-82821507D01*
X101217467Y-83027300D01*
X96902533Y-83027300D01*
X96964960Y-82821507D01*
X96991701Y-82550000D01*
X96964960Y-82278493D01*
X96885764Y-82017419D01*
X96757157Y-81776812D01*
X96584081Y-81565919D01*
X96373188Y-81392843D01*
X96273203Y-81339400D01*
X101706982Y-81339400D01*
X101735000Y-81342160D01*
G36*
X143272843Y-50303188D02*
G01*
X143445919Y-50514081D01*
X143656812Y-50687157D01*
X143867927Y-50800000D01*
X143656812Y-50912843D01*
X143445919Y-51085919D01*
X143272843Y-51296812D01*
X143144236Y-51537419D01*
X143065040Y-51798493D01*
X143038299Y-52070000D01*
X143065040Y-52341507D01*
X143144236Y-52602581D01*
X143272843Y-52843188D01*
X143445919Y-53054081D01*
X143656812Y-53227157D01*
X143867927Y-53340000D01*
X143656812Y-53452843D01*
X143445919Y-53625919D01*
X143272843Y-53836812D01*
X143144236Y-54077419D01*
X143065040Y-54338493D01*
X143038299Y-54610000D01*
X143065040Y-54881507D01*
X143144236Y-55142581D01*
X143272843Y-55383188D01*
X143298266Y-55414166D01*
X142700779Y-56011654D01*
X142668909Y-56037809D01*
X142584627Y-56140508D01*
X142564564Y-56164955D01*
X142487028Y-56310014D01*
X142439282Y-56467412D01*
X142423160Y-56631100D01*
X142427200Y-56672119D01*
X142427201Y-60123272D01*
X142423160Y-60164300D01*
X142439282Y-60327988D01*
X142487028Y-60485386D01*
X142564564Y-60630445D01*
X142576104Y-60644506D01*
X142668910Y-60757591D01*
X142700774Y-60783741D01*
X143319092Y-61402060D01*
X143207858Y-61566132D01*
X143101827Y-61817316D01*
X143087682Y-61888815D01*
X143210344Y-62103000D01*
X144653000Y-62103000D01*
X144653000Y-62083000D01*
X144907000Y-62083000D01*
X144907000Y-62103000D01*
X144927000Y-62103000D01*
X144927000Y-62357000D01*
X144907000Y-62357000D01*
X144907000Y-62377000D01*
X144653000Y-62377000D01*
X144653000Y-62357000D01*
X143210344Y-62357000D01*
X143087682Y-62571185D01*
X143101827Y-62642684D01*
X143207858Y-62893868D01*
X143360855Y-63119540D01*
X143554939Y-63311028D01*
X143782651Y-63460972D01*
X143872578Y-63497514D01*
X143656812Y-63612843D01*
X143445919Y-63785919D01*
X143272843Y-63996812D01*
X143144236Y-64237419D01*
X143065040Y-64498493D01*
X143038299Y-64770000D01*
X143065040Y-65041507D01*
X143144236Y-65302581D01*
X143272843Y-65543188D01*
X143445919Y-65754081D01*
X143656812Y-65927157D01*
X143867927Y-66040000D01*
X143656812Y-66152843D01*
X143445919Y-66325919D01*
X143272843Y-66536812D01*
X143144236Y-66777419D01*
X143065040Y-67038493D01*
X143038299Y-67310000D01*
X143065040Y-67581507D01*
X143144236Y-67842581D01*
X143272843Y-68083188D01*
X143445919Y-68294081D01*
X143656812Y-68467157D01*
X143867927Y-68580000D01*
X143656812Y-68692843D01*
X143445919Y-68865919D01*
X143272843Y-69076812D01*
X143144236Y-69317419D01*
X143065040Y-69578493D01*
X143038299Y-69850000D01*
X143065040Y-70121507D01*
X143144236Y-70382581D01*
X143272843Y-70623188D01*
X143445919Y-70834081D01*
X143656812Y-71007157D01*
X143867927Y-71120000D01*
X143656812Y-71232843D01*
X143445919Y-71405919D01*
X143272843Y-71616812D01*
X143144236Y-71857419D01*
X143065040Y-72118493D01*
X143038299Y-72390000D01*
X143065040Y-72661507D01*
X143144236Y-72922581D01*
X143272843Y-73163188D01*
X143445919Y-73374081D01*
X143656812Y-73547157D01*
X143867927Y-73660000D01*
X143656812Y-73772843D01*
X143445919Y-73945919D01*
X143272843Y-74156812D01*
X143144236Y-74397419D01*
X143065040Y-74658493D01*
X143038299Y-74930000D01*
X143065040Y-75201507D01*
X143144236Y-75462581D01*
X143272843Y-75703188D01*
X143445919Y-75914081D01*
X143656812Y-76087157D01*
X143897419Y-76215764D01*
X144158493Y-76294960D01*
X144361963Y-76315000D01*
X145198037Y-76315000D01*
X145401507Y-76294960D01*
X145662581Y-76215764D01*
X145903188Y-76087157D01*
X146114081Y-75914081D01*
X146160318Y-75857742D01*
X146264866Y-75985134D01*
X146490986Y-76170706D01*
X146748966Y-76308599D01*
X147028889Y-76393513D01*
X147247050Y-76415000D01*
X147392950Y-76415000D01*
X147611111Y-76393513D01*
X147891034Y-76308599D01*
X148007000Y-76246614D01*
X148007000Y-76779960D01*
X147968809Y-77169464D01*
X147865771Y-77510743D01*
X147698409Y-77825505D01*
X147473097Y-78101763D01*
X147198418Y-78328997D01*
X146884838Y-78498549D01*
X146544288Y-78603967D01*
X146156928Y-78644680D01*
X131537123Y-78644680D01*
X131511195Y-78647234D01*
X130777898Y-78701084D01*
X130761359Y-78703792D01*
X130744601Y-78704319D01*
X130664152Y-78718794D01*
X129785941Y-78929633D01*
X129764767Y-78936759D01*
X129742918Y-78941403D01*
X129666323Y-78969889D01*
X129666305Y-78969895D01*
X129666300Y-78969898D01*
X128839308Y-79332922D01*
X128819735Y-79343682D01*
X128799049Y-79352124D01*
X128728702Y-79393728D01*
X128728692Y-79393733D01*
X128728691Y-79393734D01*
X127979053Y-79897470D01*
X127961694Y-79911527D01*
X127942831Y-79923498D01*
X127880954Y-79976909D01*
X127232367Y-80605433D01*
X127217770Y-80622344D01*
X127201326Y-80637465D01*
X127149896Y-80700976D01*
X127149886Y-80700988D01*
X127149885Y-80700990D01*
X126622851Y-81434436D01*
X126619900Y-81439426D01*
X126619900Y-79811467D01*
X128106733Y-78324636D01*
X128138591Y-78298491D01*
X128173070Y-78256479D01*
X128207665Y-78214324D01*
X128242936Y-78171346D01*
X128320472Y-78026287D01*
X128368218Y-77868889D01*
X128380300Y-77746219D01*
X128380300Y-77746218D01*
X128384340Y-77705200D01*
X128380300Y-77664182D01*
X128380300Y-76054067D01*
X128542651Y-76160972D01*
X128795240Y-76263611D01*
X129063000Y-76315000D01*
X129413000Y-76315000D01*
X129413000Y-75057000D01*
X129667000Y-75057000D01*
X129667000Y-76315000D01*
X130017000Y-76315000D01*
X130284760Y-76263611D01*
X130537349Y-76160972D01*
X130765061Y-76011028D01*
X130924970Y-75853258D01*
X130982412Y-75930269D01*
X131198645Y-76125178D01*
X131448748Y-76274157D01*
X131723109Y-76371481D01*
X131953000Y-76250814D01*
X131953000Y-75057000D01*
X132207000Y-75057000D01*
X132207000Y-76250814D01*
X132436891Y-76371481D01*
X132711252Y-76274157D01*
X132961355Y-76125178D01*
X133177588Y-75930269D01*
X133351641Y-75696920D01*
X133476825Y-75434099D01*
X133521476Y-75286890D01*
X133400155Y-75057000D01*
X132207000Y-75057000D01*
X131953000Y-75057000D01*
X129667000Y-75057000D01*
X129413000Y-75057000D01*
X129393000Y-75057000D01*
X129393000Y-74803000D01*
X129413000Y-74803000D01*
X129413000Y-74783000D01*
X129667000Y-74783000D01*
X129667000Y-74803000D01*
X131953000Y-74803000D01*
X131953000Y-74783000D01*
X132207000Y-74783000D01*
X132207000Y-74803000D01*
X133400155Y-74803000D01*
X133521476Y-74573110D01*
X133476825Y-74425901D01*
X133351641Y-74163080D01*
X133177588Y-73929731D01*
X132961355Y-73734822D01*
X132844477Y-73665201D01*
X132909014Y-73630706D01*
X133135134Y-73445134D01*
X133320706Y-73219014D01*
X133458599Y-72961034D01*
X133543513Y-72681111D01*
X133572185Y-72390000D01*
X133543513Y-72098889D01*
X133458599Y-71818966D01*
X133320706Y-71560986D01*
X133135134Y-71334866D01*
X132909014Y-71149294D01*
X132854209Y-71120000D01*
X132909014Y-71090706D01*
X133135134Y-70905134D01*
X133320706Y-70679014D01*
X133458599Y-70421034D01*
X133543513Y-70141111D01*
X133572185Y-69850000D01*
X133543513Y-69558889D01*
X133458599Y-69278966D01*
X133320706Y-69020986D01*
X133135134Y-68794866D01*
X132909014Y-68609294D01*
X132854209Y-68580000D01*
X132909014Y-68550706D01*
X133135134Y-68365134D01*
X133320706Y-68139014D01*
X133458599Y-67881034D01*
X133543513Y-67601111D01*
X133572185Y-67310000D01*
X133543513Y-67018889D01*
X133458599Y-66738966D01*
X133320706Y-66480986D01*
X133135134Y-66254866D01*
X132909014Y-66069294D01*
X132854209Y-66040000D01*
X132909014Y-66010706D01*
X133135134Y-65825134D01*
X133320706Y-65599014D01*
X133458599Y-65341034D01*
X133543513Y-65061111D01*
X133572185Y-64770000D01*
X133543513Y-64478889D01*
X133458599Y-64198966D01*
X133320706Y-63940986D01*
X133135134Y-63714866D01*
X132909014Y-63529294D01*
X132854209Y-63500000D01*
X132909014Y-63470706D01*
X133135134Y-63285134D01*
X133320706Y-63059014D01*
X133458599Y-62801034D01*
X133543513Y-62521111D01*
X133572185Y-62230000D01*
X133543513Y-61938889D01*
X133458599Y-61658966D01*
X133320706Y-61400986D01*
X133135134Y-61174866D01*
X132909014Y-60989294D01*
X132854209Y-60960000D01*
X132909014Y-60930706D01*
X133135134Y-60745134D01*
X133320706Y-60519014D01*
X133458599Y-60261034D01*
X133543513Y-59981111D01*
X133572185Y-59690000D01*
X133543513Y-59398889D01*
X133458599Y-59118966D01*
X133320706Y-58860986D01*
X133135134Y-58634866D01*
X132909014Y-58449294D01*
X132854209Y-58420000D01*
X132909014Y-58390706D01*
X133135134Y-58205134D01*
X133320706Y-57979014D01*
X133458599Y-57721034D01*
X133543513Y-57441111D01*
X133572185Y-57150000D01*
X133543513Y-56858889D01*
X133499865Y-56715000D01*
X136252382Y-56715000D01*
X136293400Y-56719040D01*
X136334418Y-56715000D01*
X136334419Y-56715000D01*
X136457089Y-56702918D01*
X136614487Y-56655172D01*
X136759546Y-56577636D01*
X136886691Y-56473291D01*
X136912846Y-56441421D01*
X143195597Y-50158671D01*
X143272843Y-50303188D01*
X143272843Y-50303188D01*
G37*
X143272843Y-50303188D02*
X143445919Y-50514081D01*
X143656812Y-50687157D01*
X143867927Y-50800000D01*
X143656812Y-50912843D01*
X143445919Y-51085919D01*
X143272843Y-51296812D01*
X143144236Y-51537419D01*
X143065040Y-51798493D01*
X143038299Y-52070000D01*
X143065040Y-52341507D01*
X143144236Y-52602581D01*
X143272843Y-52843188D01*
X143445919Y-53054081D01*
X143656812Y-53227157D01*
X143867927Y-53340000D01*
X143656812Y-53452843D01*
X143445919Y-53625919D01*
X143272843Y-53836812D01*
X143144236Y-54077419D01*
X143065040Y-54338493D01*
X143038299Y-54610000D01*
X143065040Y-54881507D01*
X143144236Y-55142581D01*
X143272843Y-55383188D01*
X143298266Y-55414166D01*
X142700779Y-56011654D01*
X142668909Y-56037809D01*
X142584627Y-56140508D01*
X142564564Y-56164955D01*
X142487028Y-56310014D01*
X142439282Y-56467412D01*
X142423160Y-56631100D01*
X142427200Y-56672119D01*
X142427201Y-60123272D01*
X142423160Y-60164300D01*
X142439282Y-60327988D01*
X142487028Y-60485386D01*
X142564564Y-60630445D01*
X142576104Y-60644506D01*
X142668910Y-60757591D01*
X142700774Y-60783741D01*
X143319092Y-61402060D01*
X143207858Y-61566132D01*
X143101827Y-61817316D01*
X143087682Y-61888815D01*
X143210344Y-62103000D01*
X144653000Y-62103000D01*
X144653000Y-62083000D01*
X144907000Y-62083000D01*
X144907000Y-62103000D01*
X144927000Y-62103000D01*
X144927000Y-62357000D01*
X144907000Y-62357000D01*
X144907000Y-62377000D01*
X144653000Y-62377000D01*
X144653000Y-62357000D01*
X143210344Y-62357000D01*
X143087682Y-62571185D01*
X143101827Y-62642684D01*
X143207858Y-62893868D01*
X143360855Y-63119540D01*
X143554939Y-63311028D01*
X143782651Y-63460972D01*
X143872578Y-63497514D01*
X143656812Y-63612843D01*
X143445919Y-63785919D01*
X143272843Y-63996812D01*
X143144236Y-64237419D01*
X143065040Y-64498493D01*
X143038299Y-64770000D01*
X143065040Y-65041507D01*
X143144236Y-65302581D01*
X143272843Y-65543188D01*
X143445919Y-65754081D01*
X143656812Y-65927157D01*
X143867927Y-66040000D01*
X143656812Y-66152843D01*
X143445919Y-66325919D01*
X143272843Y-66536812D01*
X143144236Y-66777419D01*
X143065040Y-67038493D01*
X143038299Y-67310000D01*
X143065040Y-67581507D01*
X143144236Y-67842581D01*
X143272843Y-68083188D01*
X143445919Y-68294081D01*
X143656812Y-68467157D01*
X143867927Y-68580000D01*
X143656812Y-68692843D01*
X143445919Y-68865919D01*
X143272843Y-69076812D01*
X143144236Y-69317419D01*
X143065040Y-69578493D01*
X143038299Y-69850000D01*
X143065040Y-70121507D01*
X143144236Y-70382581D01*
X143272843Y-70623188D01*
X143445919Y-70834081D01*
X143656812Y-71007157D01*
X143867927Y-71120000D01*
X143656812Y-71232843D01*
X143445919Y-71405919D01*
X143272843Y-71616812D01*
X143144236Y-71857419D01*
X143065040Y-72118493D01*
X143038299Y-72390000D01*
X143065040Y-72661507D01*
X143144236Y-72922581D01*
X143272843Y-73163188D01*
X143445919Y-73374081D01*
X143656812Y-73547157D01*
X143867927Y-73660000D01*
X143656812Y-73772843D01*
X143445919Y-73945919D01*
X143272843Y-74156812D01*
X143144236Y-74397419D01*
X143065040Y-74658493D01*
X143038299Y-74930000D01*
X143065040Y-75201507D01*
X143144236Y-75462581D01*
X143272843Y-75703188D01*
X143445919Y-75914081D01*
X143656812Y-76087157D01*
X143897419Y-76215764D01*
X144158493Y-76294960D01*
X144361963Y-76315000D01*
X145198037Y-76315000D01*
X145401507Y-76294960D01*
X145662581Y-76215764D01*
X145903188Y-76087157D01*
X146114081Y-75914081D01*
X146160318Y-75857742D01*
X146264866Y-75985134D01*
X146490986Y-76170706D01*
X146748966Y-76308599D01*
X147028889Y-76393513D01*
X147247050Y-76415000D01*
X147392950Y-76415000D01*
X147611111Y-76393513D01*
X147891034Y-76308599D01*
X148007000Y-76246614D01*
X148007000Y-76779960D01*
X147968809Y-77169464D01*
X147865771Y-77510743D01*
X147698409Y-77825505D01*
X147473097Y-78101763D01*
X147198418Y-78328997D01*
X146884838Y-78498549D01*
X146544288Y-78603967D01*
X146156928Y-78644680D01*
X131537123Y-78644680D01*
X131511195Y-78647234D01*
X130777898Y-78701084D01*
X130761359Y-78703792D01*
X130744601Y-78704319D01*
X130664152Y-78718794D01*
X129785941Y-78929633D01*
X129764767Y-78936759D01*
X129742918Y-78941403D01*
X129666323Y-78969889D01*
X129666305Y-78969895D01*
X129666300Y-78969898D01*
X128839308Y-79332922D01*
X128819735Y-79343682D01*
X128799049Y-79352124D01*
X128728702Y-79393728D01*
X128728692Y-79393733D01*
X128728691Y-79393734D01*
X127979053Y-79897470D01*
X127961694Y-79911527D01*
X127942831Y-79923498D01*
X127880954Y-79976909D01*
X127232367Y-80605433D01*
X127217770Y-80622344D01*
X127201326Y-80637465D01*
X127149896Y-80700976D01*
X127149886Y-80700988D01*
X127149885Y-80700990D01*
X126622851Y-81434436D01*
X126619900Y-81439426D01*
X126619900Y-79811467D01*
X128106733Y-78324636D01*
X128138591Y-78298491D01*
X128173070Y-78256479D01*
X128207665Y-78214324D01*
X128242936Y-78171346D01*
X128320472Y-78026287D01*
X128368218Y-77868889D01*
X128380300Y-77746219D01*
X128380300Y-77746218D01*
X128384340Y-77705200D01*
X128380300Y-77664182D01*
X128380300Y-76054067D01*
X128542651Y-76160972D01*
X128795240Y-76263611D01*
X129063000Y-76315000D01*
X129413000Y-76315000D01*
X129413000Y-75057000D01*
X129667000Y-75057000D01*
X129667000Y-76315000D01*
X130017000Y-76315000D01*
X130284760Y-76263611D01*
X130537349Y-76160972D01*
X130765061Y-76011028D01*
X130924970Y-75853258D01*
X130982412Y-75930269D01*
X131198645Y-76125178D01*
X131448748Y-76274157D01*
X131723109Y-76371481D01*
X131953000Y-76250814D01*
X131953000Y-75057000D01*
X132207000Y-75057000D01*
X132207000Y-76250814D01*
X132436891Y-76371481D01*
X132711252Y-76274157D01*
X132961355Y-76125178D01*
X133177588Y-75930269D01*
X133351641Y-75696920D01*
X133476825Y-75434099D01*
X133521476Y-75286890D01*
X133400155Y-75057000D01*
X132207000Y-75057000D01*
X131953000Y-75057000D01*
X129667000Y-75057000D01*
X129413000Y-75057000D01*
X129393000Y-75057000D01*
X129393000Y-74803000D01*
X129413000Y-74803000D01*
X129413000Y-74783000D01*
X129667000Y-74783000D01*
X129667000Y-74803000D01*
X131953000Y-74803000D01*
X131953000Y-74783000D01*
X132207000Y-74783000D01*
X132207000Y-74803000D01*
X133400155Y-74803000D01*
X133521476Y-74573110D01*
X133476825Y-74425901D01*
X133351641Y-74163080D01*
X133177588Y-73929731D01*
X132961355Y-73734822D01*
X132844477Y-73665201D01*
X132909014Y-73630706D01*
X133135134Y-73445134D01*
X133320706Y-73219014D01*
X133458599Y-72961034D01*
X133543513Y-72681111D01*
X133572185Y-72390000D01*
X133543513Y-72098889D01*
X133458599Y-71818966D01*
X133320706Y-71560986D01*
X133135134Y-71334866D01*
X132909014Y-71149294D01*
X132854209Y-71120000D01*
X132909014Y-71090706D01*
X133135134Y-70905134D01*
X133320706Y-70679014D01*
X133458599Y-70421034D01*
X133543513Y-70141111D01*
X133572185Y-69850000D01*
X133543513Y-69558889D01*
X133458599Y-69278966D01*
X133320706Y-69020986D01*
X133135134Y-68794866D01*
X132909014Y-68609294D01*
X132854209Y-68580000D01*
X132909014Y-68550706D01*
X133135134Y-68365134D01*
X133320706Y-68139014D01*
X133458599Y-67881034D01*
X133543513Y-67601111D01*
X133572185Y-67310000D01*
X133543513Y-67018889D01*
X133458599Y-66738966D01*
X133320706Y-66480986D01*
X133135134Y-66254866D01*
X132909014Y-66069294D01*
X132854209Y-66040000D01*
X132909014Y-66010706D01*
X133135134Y-65825134D01*
X133320706Y-65599014D01*
X133458599Y-65341034D01*
X133543513Y-65061111D01*
X133572185Y-64770000D01*
X133543513Y-64478889D01*
X133458599Y-64198966D01*
X133320706Y-63940986D01*
X133135134Y-63714866D01*
X132909014Y-63529294D01*
X132854209Y-63500000D01*
X132909014Y-63470706D01*
X133135134Y-63285134D01*
X133320706Y-63059014D01*
X133458599Y-62801034D01*
X133543513Y-62521111D01*
X133572185Y-62230000D01*
X133543513Y-61938889D01*
X133458599Y-61658966D01*
X133320706Y-61400986D01*
X133135134Y-61174866D01*
X132909014Y-60989294D01*
X132854209Y-60960000D01*
X132909014Y-60930706D01*
X133135134Y-60745134D01*
X133320706Y-60519014D01*
X133458599Y-60261034D01*
X133543513Y-59981111D01*
X133572185Y-59690000D01*
X133543513Y-59398889D01*
X133458599Y-59118966D01*
X133320706Y-58860986D01*
X133135134Y-58634866D01*
X132909014Y-58449294D01*
X132854209Y-58420000D01*
X132909014Y-58390706D01*
X133135134Y-58205134D01*
X133320706Y-57979014D01*
X133458599Y-57721034D01*
X133543513Y-57441111D01*
X133572185Y-57150000D01*
X133543513Y-56858889D01*
X133499865Y-56715000D01*
X136252382Y-56715000D01*
X136293400Y-56719040D01*
X136334418Y-56715000D01*
X136334419Y-56715000D01*
X136457089Y-56702918D01*
X136614487Y-56655172D01*
X136759546Y-56577636D01*
X136886691Y-56473291D01*
X136912846Y-56441421D01*
X143195597Y-50158671D01*
X143272843Y-50303188D01*
G36*
X108140998Y-60528844D02*
G01*
X107911110Y-60407524D01*
X107763901Y-60452175D01*
X107501080Y-60577359D01*
X107267731Y-60751412D01*
X107072822Y-60967645D01*
X106923843Y-61217748D01*
X106826519Y-61492109D01*
X106947186Y-61722000D01*
X108141000Y-61722000D01*
X108141000Y-61702000D01*
X108395000Y-61702000D01*
X108395000Y-61722000D01*
X108415000Y-61722000D01*
X108415000Y-61976000D01*
X108395000Y-61976000D01*
X108395000Y-63169155D01*
X108624890Y-63290476D01*
X108772099Y-63245825D01*
X109034920Y-63120641D01*
X109268269Y-62946588D01*
X109344034Y-62862534D01*
X109368498Y-62943180D01*
X109427463Y-63053494D01*
X109506815Y-63150185D01*
X109603506Y-63229537D01*
X109713820Y-63288502D01*
X109833518Y-63324812D01*
X109958000Y-63337072D01*
X111658000Y-63337072D01*
X111782482Y-63324812D01*
X111902180Y-63288502D01*
X112012494Y-63229537D01*
X112109185Y-63150185D01*
X112188537Y-63053494D01*
X112247502Y-62943180D01*
X112283812Y-62823482D01*
X112296072Y-62699000D01*
X112296072Y-60999000D01*
X112283812Y-60874518D01*
X112247502Y-60754820D01*
X112188537Y-60644506D01*
X112109185Y-60547815D01*
X112012494Y-60468463D01*
X111902180Y-60409498D01*
X111870869Y-60400000D01*
X114022199Y-60400000D01*
X114017188Y-60416518D01*
X114004928Y-60541000D01*
X114004928Y-61793327D01*
X113910754Y-61843664D01*
X113831248Y-61908913D01*
X113783609Y-61948009D01*
X113757463Y-61979868D01*
X108906874Y-66830459D01*
X108875010Y-66856609D01*
X108848862Y-66888471D01*
X108770664Y-66983755D01*
X108743686Y-67034227D01*
X108549309Y-66975264D01*
X108338492Y-66954500D01*
X108197508Y-66954500D01*
X107986691Y-66975264D01*
X107716192Y-67057318D01*
X107466899Y-67190568D01*
X107248392Y-67369892D01*
X107069068Y-67588399D01*
X106935818Y-67837692D01*
X106853764Y-68108191D01*
X106826057Y-68389500D01*
X106853764Y-68670809D01*
X106935818Y-68941308D01*
X107069068Y-69190601D01*
X107248392Y-69409108D01*
X107466899Y-69588432D01*
X107716192Y-69721682D01*
X107986691Y-69803736D01*
X108197508Y-69824500D01*
X108338492Y-69824500D01*
X108549309Y-69803736D01*
X108819808Y-69721682D01*
X109069101Y-69588432D01*
X109287608Y-69409108D01*
X109380419Y-69296018D01*
X109382188Y-69313982D01*
X109418498Y-69433680D01*
X109477463Y-69543994D01*
X109556815Y-69640685D01*
X109653506Y-69720037D01*
X109763820Y-69779002D01*
X109883518Y-69815312D01*
X110008000Y-69827572D01*
X111608000Y-69827572D01*
X111732482Y-69815312D01*
X111852180Y-69779002D01*
X111962494Y-69720037D01*
X112059185Y-69640685D01*
X112067944Y-69630012D01*
X113407700Y-70969769D01*
X113407700Y-71078981D01*
X113403660Y-71120000D01*
X113407700Y-71161019D01*
X113413717Y-71222112D01*
X113419782Y-71283689D01*
X113467528Y-71441087D01*
X113545064Y-71586146D01*
X113649409Y-71713291D01*
X113680492Y-71738800D01*
X107569518Y-71738800D01*
X107528500Y-71734760D01*
X107487482Y-71738800D01*
X107487481Y-71738800D01*
X107364811Y-71750882D01*
X107213739Y-71796709D01*
X107207413Y-71798628D01*
X107062354Y-71876164D01*
X106974813Y-71948007D01*
X106935209Y-71980509D01*
X106909063Y-72012368D01*
X101478201Y-77443232D01*
X101439595Y-77459223D01*
X101313424Y-77543528D01*
X101204759Y-77434863D01*
X100969727Y-77277820D01*
X100708574Y-77169647D01*
X100431335Y-77114500D01*
X100148665Y-77114500D01*
X99871426Y-77169647D01*
X99610273Y-77277820D01*
X99375241Y-77434863D01*
X99175363Y-77634741D01*
X99041308Y-77835369D01*
X99026671Y-77807986D01*
X98782702Y-77736403D01*
X97969605Y-78549500D01*
X97983748Y-78563643D01*
X97804143Y-78743248D01*
X97790000Y-78729105D01*
X97775858Y-78743248D01*
X97596253Y-78563643D01*
X97610395Y-78549500D01*
X96797298Y-77736403D01*
X96553329Y-77807986D01*
X96432429Y-78063496D01*
X96363700Y-78337684D01*
X96349783Y-78620012D01*
X96391213Y-78899630D01*
X96451783Y-79069000D01*
X94076567Y-79069000D01*
X93987545Y-78979978D01*
X93961391Y-78948109D01*
X93834246Y-78843764D01*
X93689187Y-78766228D01*
X93531789Y-78718482D01*
X93409119Y-78706400D01*
X93409118Y-78706400D01*
X93368100Y-78702360D01*
X93327082Y-78706400D01*
X88210848Y-78706400D01*
X88172245Y-78690410D01*
X88001265Y-78656400D01*
X87826935Y-78656400D01*
X87655955Y-78690410D01*
X87494895Y-78757123D01*
X87436632Y-78796053D01*
X87327655Y-78687076D01*
X87182705Y-78590223D01*
X87021645Y-78523510D01*
X86850665Y-78489500D01*
X86676335Y-78489500D01*
X86505355Y-78523510D01*
X86344295Y-78590223D01*
X86254494Y-78650226D01*
X85161066Y-77556798D01*
X96976903Y-77556798D01*
X97790000Y-78369895D01*
X98603097Y-77556798D01*
X98531514Y-77312829D01*
X98276004Y-77191929D01*
X98001816Y-77123200D01*
X97719488Y-77109283D01*
X97439870Y-77150713D01*
X97173708Y-77245897D01*
X97048486Y-77312829D01*
X96976903Y-77556798D01*
X85161066Y-77556798D01*
X83646295Y-76042028D01*
X83646964Y-76041825D01*
X83907306Y-75902669D01*
X84135497Y-75715397D01*
X84322769Y-75487206D01*
X84340700Y-75453660D01*
X84358631Y-75487206D01*
X84545903Y-75715397D01*
X84774094Y-75902669D01*
X85034436Y-76041825D01*
X85316923Y-76127516D01*
X85537081Y-76149200D01*
X85684319Y-76149200D01*
X85904477Y-76127516D01*
X86186964Y-76041825D01*
X86447306Y-75902669D01*
X86675497Y-75715397D01*
X86862769Y-75487206D01*
X86880700Y-75453660D01*
X86898631Y-75487206D01*
X87085903Y-75715397D01*
X87314094Y-75902669D01*
X87574436Y-76041825D01*
X87856923Y-76127516D01*
X88077081Y-76149200D01*
X88224319Y-76149200D01*
X88444477Y-76127516D01*
X88726964Y-76041825D01*
X88987306Y-75902669D01*
X89215497Y-75715397D01*
X89402769Y-75487206D01*
X89420700Y-75453660D01*
X89438631Y-75487206D01*
X89625903Y-75715397D01*
X89854094Y-75902669D01*
X90114436Y-76041825D01*
X90396923Y-76127516D01*
X90617081Y-76149200D01*
X90764319Y-76149200D01*
X90984477Y-76127516D01*
X91266964Y-76041825D01*
X91527306Y-75902669D01*
X91755497Y-75715397D01*
X91942769Y-75487206D01*
X91960700Y-75453660D01*
X91978631Y-75487206D01*
X92165903Y-75715397D01*
X92394094Y-75902669D01*
X92654436Y-76041825D01*
X92936923Y-76127516D01*
X93157081Y-76149200D01*
X93304319Y-76149200D01*
X93524477Y-76127516D01*
X93806964Y-76041825D01*
X94067306Y-75902669D01*
X94295497Y-75715397D01*
X94482769Y-75487206D01*
X94500700Y-75453660D01*
X94518631Y-75487206D01*
X94705903Y-75715397D01*
X94934094Y-75902669D01*
X95194436Y-76041825D01*
X95476923Y-76127516D01*
X95697081Y-76149200D01*
X95844319Y-76149200D01*
X96064477Y-76127516D01*
X96346964Y-76041825D01*
X96607306Y-75902669D01*
X96835497Y-75715397D01*
X97022769Y-75487206D01*
X97046563Y-75442690D01*
X97103883Y-75539088D01*
X97300407Y-75757454D01*
X97535756Y-75933284D01*
X97800886Y-76059822D01*
X97951674Y-76105558D01*
X98183700Y-75984417D01*
X98183700Y-74777600D01*
X98437700Y-74777600D01*
X98437700Y-75984417D01*
X98669726Y-76105558D01*
X98820514Y-76059822D01*
X99085644Y-75933284D01*
X99320993Y-75757454D01*
X99517517Y-75539088D01*
X99667664Y-75286578D01*
X99765663Y-75009627D01*
X99645164Y-74777600D01*
X98437700Y-74777600D01*
X98183700Y-74777600D01*
X98163700Y-74777600D01*
X98163700Y-74523600D01*
X98183700Y-74523600D01*
X98183700Y-74503600D01*
X98437700Y-74503600D01*
X98437700Y-74523600D01*
X99645164Y-74523600D01*
X99765663Y-74291573D01*
X99667664Y-74014622D01*
X99517517Y-73762112D01*
X99320993Y-73543746D01*
X99097101Y-73376475D01*
X99169199Y-73148704D01*
X98310700Y-72290205D01*
X97452201Y-73148704D01*
X97524299Y-73376475D01*
X97300407Y-73543746D01*
X97103883Y-73762112D01*
X97046563Y-73858510D01*
X97022769Y-73813994D01*
X96835497Y-73585803D01*
X96607306Y-73398531D01*
X96567267Y-73377130D01*
X96780993Y-73217454D01*
X96977517Y-72999088D01*
X97039266Y-72895241D01*
X97272596Y-72969099D01*
X98131095Y-72110600D01*
X98490305Y-72110600D01*
X99348804Y-72969099D01*
X99599267Y-72889818D01*
X99726526Y-72623459D01*
X99799375Y-72337390D01*
X99815015Y-72042607D01*
X99772845Y-71750436D01*
X99674486Y-71472107D01*
X99599267Y-71331382D01*
X99348804Y-71252101D01*
X98490305Y-72110600D01*
X98131095Y-72110600D01*
X97272596Y-71252101D01*
X97039266Y-71325959D01*
X96977517Y-71222112D01*
X96842867Y-71072496D01*
X97452201Y-71072496D01*
X98310700Y-71930995D01*
X99169199Y-71072496D01*
X99089918Y-70822033D01*
X98823559Y-70694774D01*
X98537490Y-70621925D01*
X98242707Y-70606285D01*
X97950536Y-70648455D01*
X97672207Y-70746814D01*
X97531482Y-70822033D01*
X97452201Y-71072496D01*
X96842867Y-71072496D01*
X96780993Y-71003746D01*
X96545644Y-70827916D01*
X96280514Y-70701378D01*
X96129726Y-70655642D01*
X95897700Y-70776783D01*
X95897700Y-71983600D01*
X95917700Y-71983600D01*
X95917700Y-72237600D01*
X95897700Y-72237600D01*
X95897700Y-72257600D01*
X95643700Y-72257600D01*
X95643700Y-72237600D01*
X93357700Y-72237600D01*
X93357700Y-72257600D01*
X93103700Y-72257600D01*
X93103700Y-72237600D01*
X90817700Y-72237600D01*
X90817700Y-72257600D01*
X90563700Y-72257600D01*
X90563700Y-72237600D01*
X88277700Y-72237600D01*
X88277700Y-72257600D01*
X88023700Y-72257600D01*
X88023700Y-72237600D01*
X85737700Y-72237600D01*
X85737700Y-72257600D01*
X85483700Y-72257600D01*
X85483700Y-72237600D01*
X83197700Y-72237600D01*
X83197700Y-72257600D01*
X82943700Y-72257600D01*
X82943700Y-72237600D01*
X82923700Y-72237600D01*
X82923700Y-71983600D01*
X82943700Y-71983600D01*
X82943700Y-70776783D01*
X83197700Y-70776783D01*
X83197700Y-71983600D01*
X85483700Y-71983600D01*
X85483700Y-70776783D01*
X85737700Y-70776783D01*
X85737700Y-71983600D01*
X88023700Y-71983600D01*
X88023700Y-70776783D01*
X88277700Y-70776783D01*
X88277700Y-71983600D01*
X90563700Y-71983600D01*
X90563700Y-70776783D01*
X90817700Y-70776783D01*
X90817700Y-71983600D01*
X93103700Y-71983600D01*
X93103700Y-70776783D01*
X93357700Y-70776783D01*
X93357700Y-71983600D01*
X95643700Y-71983600D01*
X95643700Y-70776783D01*
X95411674Y-70655642D01*
X95260886Y-70701378D01*
X94995756Y-70827916D01*
X94760407Y-71003746D01*
X94563883Y-71222112D01*
X94500700Y-71328370D01*
X94437517Y-71222112D01*
X94240993Y-71003746D01*
X94005644Y-70827916D01*
X93740514Y-70701378D01*
X93589726Y-70655642D01*
X93357700Y-70776783D01*
X93103700Y-70776783D01*
X92871674Y-70655642D01*
X92720886Y-70701378D01*
X92455756Y-70827916D01*
X92220407Y-71003746D01*
X92023883Y-71222112D01*
X91960700Y-71328370D01*
X91897517Y-71222112D01*
X91700993Y-71003746D01*
X91465644Y-70827916D01*
X91200514Y-70701378D01*
X91049726Y-70655642D01*
X90817700Y-70776783D01*
X90563700Y-70776783D01*
X90331674Y-70655642D01*
X90180886Y-70701378D01*
X89915756Y-70827916D01*
X89680407Y-71003746D01*
X89483883Y-71222112D01*
X89420700Y-71328370D01*
X89357517Y-71222112D01*
X89160993Y-71003746D01*
X88925644Y-70827916D01*
X88660514Y-70701378D01*
X88509726Y-70655642D01*
X88277700Y-70776783D01*
X88023700Y-70776783D01*
X87791674Y-70655642D01*
X87640886Y-70701378D01*
X87375756Y-70827916D01*
X87140407Y-71003746D01*
X86943883Y-71222112D01*
X86880700Y-71328370D01*
X86817517Y-71222112D01*
X86620993Y-71003746D01*
X86385644Y-70827916D01*
X86120514Y-70701378D01*
X85969726Y-70655642D01*
X85737700Y-70776783D01*
X85483700Y-70776783D01*
X85251674Y-70655642D01*
X85100886Y-70701378D01*
X84835756Y-70827916D01*
X84600407Y-71003746D01*
X84403883Y-71222112D01*
X84340700Y-71328370D01*
X84277517Y-71222112D01*
X84080993Y-71003746D01*
X83845644Y-70827916D01*
X83580514Y-70701378D01*
X83429726Y-70655642D01*
X83197700Y-70776783D01*
X82943700Y-70776783D01*
X82711674Y-70655642D01*
X82560886Y-70701378D01*
X82295756Y-70827916D01*
X82060407Y-71003746D01*
X81863883Y-71222112D01*
X81806563Y-71318510D01*
X81782769Y-71273994D01*
X81595497Y-71045803D01*
X81367306Y-70858531D01*
X81106964Y-70719375D01*
X80824477Y-70633684D01*
X80604319Y-70612000D01*
X80457081Y-70612000D01*
X80236923Y-70633684D01*
X80235180Y-70634213D01*
X79847846Y-70246879D01*
X79821691Y-70215009D01*
X79694546Y-70110664D01*
X79549487Y-70033128D01*
X79392089Y-69985382D01*
X79269419Y-69973300D01*
X79269418Y-69973300D01*
X79228400Y-69969260D01*
X79187382Y-69973300D01*
X72445618Y-69973300D01*
X72404600Y-69969260D01*
X72240911Y-69985382D01*
X72083513Y-70033128D01*
X71938454Y-70110664D01*
X71878421Y-70159932D01*
X71811309Y-70215009D01*
X71785163Y-70246869D01*
X71185277Y-70846756D01*
X70946964Y-70719375D01*
X70664477Y-70633684D01*
X70444319Y-70612000D01*
X70297081Y-70612000D01*
X70076923Y-70633684D01*
X69794436Y-70719375D01*
X69534094Y-70858531D01*
X69305903Y-71045803D01*
X69118631Y-71273994D01*
X68979475Y-71534336D01*
X68893784Y-71816823D01*
X68864849Y-72110600D01*
X68893784Y-72404377D01*
X68979475Y-72686864D01*
X69118631Y-72947206D01*
X69305903Y-73175397D01*
X69313965Y-73182014D01*
X69262920Y-73197498D01*
X69152606Y-73256463D01*
X69055915Y-73335815D01*
X68976563Y-73432506D01*
X68917598Y-73542820D01*
X68881288Y-73662518D01*
X68869028Y-73787000D01*
X68869028Y-74987481D01*
X68867160Y-74986202D01*
X68858439Y-74981487D01*
X68420744Y-74748760D01*
X68361262Y-74724243D01*
X68302102Y-74698887D01*
X68292632Y-74695956D01*
X67818067Y-74552677D01*
X67754969Y-74540184D01*
X67691998Y-74526799D01*
X67682139Y-74525763D01*
X67188784Y-74477389D01*
X66764716Y-74435809D01*
X66423437Y-74332771D01*
X66108675Y-74165409D01*
X65832417Y-73940097D01*
X65605183Y-73665418D01*
X65435631Y-73351838D01*
X65330213Y-73011288D01*
X65289500Y-72623928D01*
X65289500Y-62264720D01*
X65295268Y-62205891D01*
X106826519Y-62205891D01*
X106923843Y-62480252D01*
X107072822Y-62730355D01*
X107267731Y-62946588D01*
X107501080Y-63120641D01*
X107763901Y-63245825D01*
X107911110Y-63290476D01*
X108141000Y-63169155D01*
X108141000Y-61976000D01*
X106947186Y-61976000D01*
X106826519Y-62205891D01*
X65295268Y-62205891D01*
X65327691Y-61875215D01*
X65430728Y-61533940D01*
X65598090Y-61219178D01*
X65823403Y-60942917D01*
X66098082Y-60715683D01*
X66411664Y-60546130D01*
X66752208Y-60440714D01*
X67139572Y-60400000D01*
X108140998Y-60400000D01*
X108140998Y-60528844D01*
X108140998Y-60528844D01*
G37*
X108140998Y-60528844D02*
X107911110Y-60407524D01*
X107763901Y-60452175D01*
X107501080Y-60577359D01*
X107267731Y-60751412D01*
X107072822Y-60967645D01*
X106923843Y-61217748D01*
X106826519Y-61492109D01*
X106947186Y-61722000D01*
X108141000Y-61722000D01*
X108141000Y-61702000D01*
X108395000Y-61702000D01*
X108395000Y-61722000D01*
X108415000Y-61722000D01*
X108415000Y-61976000D01*
X108395000Y-61976000D01*
X108395000Y-63169155D01*
X108624890Y-63290476D01*
X108772099Y-63245825D01*
X109034920Y-63120641D01*
X109268269Y-62946588D01*
X109344034Y-62862534D01*
X109368498Y-62943180D01*
X109427463Y-63053494D01*
X109506815Y-63150185D01*
X109603506Y-63229537D01*
X109713820Y-63288502D01*
X109833518Y-63324812D01*
X109958000Y-63337072D01*
X111658000Y-63337072D01*
X111782482Y-63324812D01*
X111902180Y-63288502D01*
X112012494Y-63229537D01*
X112109185Y-63150185D01*
X112188537Y-63053494D01*
X112247502Y-62943180D01*
X112283812Y-62823482D01*
X112296072Y-62699000D01*
X112296072Y-60999000D01*
X112283812Y-60874518D01*
X112247502Y-60754820D01*
X112188537Y-60644506D01*
X112109185Y-60547815D01*
X112012494Y-60468463D01*
X111902180Y-60409498D01*
X111870869Y-60400000D01*
X114022199Y-60400000D01*
X114017188Y-60416518D01*
X114004928Y-60541000D01*
X114004928Y-61793327D01*
X113910754Y-61843664D01*
X113831248Y-61908913D01*
X113783609Y-61948009D01*
X113757463Y-61979868D01*
X108906874Y-66830459D01*
X108875010Y-66856609D01*
X108848862Y-66888471D01*
X108770664Y-66983755D01*
X108743686Y-67034227D01*
X108549309Y-66975264D01*
X108338492Y-66954500D01*
X108197508Y-66954500D01*
X107986691Y-66975264D01*
X107716192Y-67057318D01*
X107466899Y-67190568D01*
X107248392Y-67369892D01*
X107069068Y-67588399D01*
X106935818Y-67837692D01*
X106853764Y-68108191D01*
X106826057Y-68389500D01*
X106853764Y-68670809D01*
X106935818Y-68941308D01*
X107069068Y-69190601D01*
X107248392Y-69409108D01*
X107466899Y-69588432D01*
X107716192Y-69721682D01*
X107986691Y-69803736D01*
X108197508Y-69824500D01*
X108338492Y-69824500D01*
X108549309Y-69803736D01*
X108819808Y-69721682D01*
X109069101Y-69588432D01*
X109287608Y-69409108D01*
X109380419Y-69296018D01*
X109382188Y-69313982D01*
X109418498Y-69433680D01*
X109477463Y-69543994D01*
X109556815Y-69640685D01*
X109653506Y-69720037D01*
X109763820Y-69779002D01*
X109883518Y-69815312D01*
X110008000Y-69827572D01*
X111608000Y-69827572D01*
X111732482Y-69815312D01*
X111852180Y-69779002D01*
X111962494Y-69720037D01*
X112059185Y-69640685D01*
X112067944Y-69630012D01*
X113407700Y-70969769D01*
X113407700Y-71078981D01*
X113403660Y-71120000D01*
X113407700Y-71161019D01*
X113413717Y-71222112D01*
X113419782Y-71283689D01*
X113467528Y-71441087D01*
X113545064Y-71586146D01*
X113649409Y-71713291D01*
X113680492Y-71738800D01*
X107569518Y-71738800D01*
X107528500Y-71734760D01*
X107487482Y-71738800D01*
X107487481Y-71738800D01*
X107364811Y-71750882D01*
X107213739Y-71796709D01*
X107207413Y-71798628D01*
X107062354Y-71876164D01*
X106974813Y-71948007D01*
X106935209Y-71980509D01*
X106909063Y-72012368D01*
X101478201Y-77443232D01*
X101439595Y-77459223D01*
X101313424Y-77543528D01*
X101204759Y-77434863D01*
X100969727Y-77277820D01*
X100708574Y-77169647D01*
X100431335Y-77114500D01*
X100148665Y-77114500D01*
X99871426Y-77169647D01*
X99610273Y-77277820D01*
X99375241Y-77434863D01*
X99175363Y-77634741D01*
X99041308Y-77835369D01*
X99026671Y-77807986D01*
X98782702Y-77736403D01*
X97969605Y-78549500D01*
X97983748Y-78563643D01*
X97804143Y-78743248D01*
X97790000Y-78729105D01*
X97775858Y-78743248D01*
X97596253Y-78563643D01*
X97610395Y-78549500D01*
X96797298Y-77736403D01*
X96553329Y-77807986D01*
X96432429Y-78063496D01*
X96363700Y-78337684D01*
X96349783Y-78620012D01*
X96391213Y-78899630D01*
X96451783Y-79069000D01*
X94076567Y-79069000D01*
X93987545Y-78979978D01*
X93961391Y-78948109D01*
X93834246Y-78843764D01*
X93689187Y-78766228D01*
X93531789Y-78718482D01*
X93409119Y-78706400D01*
X93409118Y-78706400D01*
X93368100Y-78702360D01*
X93327082Y-78706400D01*
X88210848Y-78706400D01*
X88172245Y-78690410D01*
X88001265Y-78656400D01*
X87826935Y-78656400D01*
X87655955Y-78690410D01*
X87494895Y-78757123D01*
X87436632Y-78796053D01*
X87327655Y-78687076D01*
X87182705Y-78590223D01*
X87021645Y-78523510D01*
X86850665Y-78489500D01*
X86676335Y-78489500D01*
X86505355Y-78523510D01*
X86344295Y-78590223D01*
X86254494Y-78650226D01*
X85161066Y-77556798D01*
X96976903Y-77556798D01*
X97790000Y-78369895D01*
X98603097Y-77556798D01*
X98531514Y-77312829D01*
X98276004Y-77191929D01*
X98001816Y-77123200D01*
X97719488Y-77109283D01*
X97439870Y-77150713D01*
X97173708Y-77245897D01*
X97048486Y-77312829D01*
X96976903Y-77556798D01*
X85161066Y-77556798D01*
X83646295Y-76042028D01*
X83646964Y-76041825D01*
X83907306Y-75902669D01*
X84135497Y-75715397D01*
X84322769Y-75487206D01*
X84340700Y-75453660D01*
X84358631Y-75487206D01*
X84545903Y-75715397D01*
X84774094Y-75902669D01*
X85034436Y-76041825D01*
X85316923Y-76127516D01*
X85537081Y-76149200D01*
X85684319Y-76149200D01*
X85904477Y-76127516D01*
X86186964Y-76041825D01*
X86447306Y-75902669D01*
X86675497Y-75715397D01*
X86862769Y-75487206D01*
X86880700Y-75453660D01*
X86898631Y-75487206D01*
X87085903Y-75715397D01*
X87314094Y-75902669D01*
X87574436Y-76041825D01*
X87856923Y-76127516D01*
X88077081Y-76149200D01*
X88224319Y-76149200D01*
X88444477Y-76127516D01*
X88726964Y-76041825D01*
X88987306Y-75902669D01*
X89215497Y-75715397D01*
X89402769Y-75487206D01*
X89420700Y-75453660D01*
X89438631Y-75487206D01*
X89625903Y-75715397D01*
X89854094Y-75902669D01*
X90114436Y-76041825D01*
X90396923Y-76127516D01*
X90617081Y-76149200D01*
X90764319Y-76149200D01*
X90984477Y-76127516D01*
X91266964Y-76041825D01*
X91527306Y-75902669D01*
X91755497Y-75715397D01*
X91942769Y-75487206D01*
X91960700Y-75453660D01*
X91978631Y-75487206D01*
X92165903Y-75715397D01*
X92394094Y-75902669D01*
X92654436Y-76041825D01*
X92936923Y-76127516D01*
X93157081Y-76149200D01*
X93304319Y-76149200D01*
X93524477Y-76127516D01*
X93806964Y-76041825D01*
X94067306Y-75902669D01*
X94295497Y-75715397D01*
X94482769Y-75487206D01*
X94500700Y-75453660D01*
X94518631Y-75487206D01*
X94705903Y-75715397D01*
X94934094Y-75902669D01*
X95194436Y-76041825D01*
X95476923Y-76127516D01*
X95697081Y-76149200D01*
X95844319Y-76149200D01*
X96064477Y-76127516D01*
X96346964Y-76041825D01*
X96607306Y-75902669D01*
X96835497Y-75715397D01*
X97022769Y-75487206D01*
X97046563Y-75442690D01*
X97103883Y-75539088D01*
X97300407Y-75757454D01*
X97535756Y-75933284D01*
X97800886Y-76059822D01*
X97951674Y-76105558D01*
X98183700Y-75984417D01*
X98183700Y-74777600D01*
X98437700Y-74777600D01*
X98437700Y-75984417D01*
X98669726Y-76105558D01*
X98820514Y-76059822D01*
X99085644Y-75933284D01*
X99320993Y-75757454D01*
X99517517Y-75539088D01*
X99667664Y-75286578D01*
X99765663Y-75009627D01*
X99645164Y-74777600D01*
X98437700Y-74777600D01*
X98183700Y-74777600D01*
X98163700Y-74777600D01*
X98163700Y-74523600D01*
X98183700Y-74523600D01*
X98183700Y-74503600D01*
X98437700Y-74503600D01*
X98437700Y-74523600D01*
X99645164Y-74523600D01*
X99765663Y-74291573D01*
X99667664Y-74014622D01*
X99517517Y-73762112D01*
X99320993Y-73543746D01*
X99097101Y-73376475D01*
X99169199Y-73148704D01*
X98310700Y-72290205D01*
X97452201Y-73148704D01*
X97524299Y-73376475D01*
X97300407Y-73543746D01*
X97103883Y-73762112D01*
X97046563Y-73858510D01*
X97022769Y-73813994D01*
X96835497Y-73585803D01*
X96607306Y-73398531D01*
X96567267Y-73377130D01*
X96780993Y-73217454D01*
X96977517Y-72999088D01*
X97039266Y-72895241D01*
X97272596Y-72969099D01*
X98131095Y-72110600D01*
X98490305Y-72110600D01*
X99348804Y-72969099D01*
X99599267Y-72889818D01*
X99726526Y-72623459D01*
X99799375Y-72337390D01*
X99815015Y-72042607D01*
X99772845Y-71750436D01*
X99674486Y-71472107D01*
X99599267Y-71331382D01*
X99348804Y-71252101D01*
X98490305Y-72110600D01*
X98131095Y-72110600D01*
X97272596Y-71252101D01*
X97039266Y-71325959D01*
X96977517Y-71222112D01*
X96842867Y-71072496D01*
X97452201Y-71072496D01*
X98310700Y-71930995D01*
X99169199Y-71072496D01*
X99089918Y-70822033D01*
X98823559Y-70694774D01*
X98537490Y-70621925D01*
X98242707Y-70606285D01*
X97950536Y-70648455D01*
X97672207Y-70746814D01*
X97531482Y-70822033D01*
X97452201Y-71072496D01*
X96842867Y-71072496D01*
X96780993Y-71003746D01*
X96545644Y-70827916D01*
X96280514Y-70701378D01*
X96129726Y-70655642D01*
X95897700Y-70776783D01*
X95897700Y-71983600D01*
X95917700Y-71983600D01*
X95917700Y-72237600D01*
X95897700Y-72237600D01*
X95897700Y-72257600D01*
X95643700Y-72257600D01*
X95643700Y-72237600D01*
X93357700Y-72237600D01*
X93357700Y-72257600D01*
X93103700Y-72257600D01*
X93103700Y-72237600D01*
X90817700Y-72237600D01*
X90817700Y-72257600D01*
X90563700Y-72257600D01*
X90563700Y-72237600D01*
X88277700Y-72237600D01*
X88277700Y-72257600D01*
X88023700Y-72257600D01*
X88023700Y-72237600D01*
X85737700Y-72237600D01*
X85737700Y-72257600D01*
X85483700Y-72257600D01*
X85483700Y-72237600D01*
X83197700Y-72237600D01*
X83197700Y-72257600D01*
X82943700Y-72257600D01*
X82943700Y-72237600D01*
X82923700Y-72237600D01*
X82923700Y-71983600D01*
X82943700Y-71983600D01*
X82943700Y-70776783D01*
X83197700Y-70776783D01*
X83197700Y-71983600D01*
X85483700Y-71983600D01*
X85483700Y-70776783D01*
X85737700Y-70776783D01*
X85737700Y-71983600D01*
X88023700Y-71983600D01*
X88023700Y-70776783D01*
X88277700Y-70776783D01*
X88277700Y-71983600D01*
X90563700Y-71983600D01*
X90563700Y-70776783D01*
X90817700Y-70776783D01*
X90817700Y-71983600D01*
X93103700Y-71983600D01*
X93103700Y-70776783D01*
X93357700Y-70776783D01*
X93357700Y-71983600D01*
X95643700Y-71983600D01*
X95643700Y-70776783D01*
X95411674Y-70655642D01*
X95260886Y-70701378D01*
X94995756Y-70827916D01*
X94760407Y-71003746D01*
X94563883Y-71222112D01*
X94500700Y-71328370D01*
X94437517Y-71222112D01*
X94240993Y-71003746D01*
X94005644Y-70827916D01*
X93740514Y-70701378D01*
X93589726Y-70655642D01*
X93357700Y-70776783D01*
X93103700Y-70776783D01*
X92871674Y-70655642D01*
X92720886Y-70701378D01*
X92455756Y-70827916D01*
X92220407Y-71003746D01*
X92023883Y-71222112D01*
X91960700Y-71328370D01*
X91897517Y-71222112D01*
X91700993Y-71003746D01*
X91465644Y-70827916D01*
X91200514Y-70701378D01*
X91049726Y-70655642D01*
X90817700Y-70776783D01*
X90563700Y-70776783D01*
X90331674Y-70655642D01*
X90180886Y-70701378D01*
X89915756Y-70827916D01*
X89680407Y-71003746D01*
X89483883Y-71222112D01*
X89420700Y-71328370D01*
X89357517Y-71222112D01*
X89160993Y-71003746D01*
X88925644Y-70827916D01*
X88660514Y-70701378D01*
X88509726Y-70655642D01*
X88277700Y-70776783D01*
X88023700Y-70776783D01*
X87791674Y-70655642D01*
X87640886Y-70701378D01*
X87375756Y-70827916D01*
X87140407Y-71003746D01*
X86943883Y-71222112D01*
X86880700Y-71328370D01*
X86817517Y-71222112D01*
X86620993Y-71003746D01*
X86385644Y-70827916D01*
X86120514Y-70701378D01*
X85969726Y-70655642D01*
X85737700Y-70776783D01*
X85483700Y-70776783D01*
X85251674Y-70655642D01*
X85100886Y-70701378D01*
X84835756Y-70827916D01*
X84600407Y-71003746D01*
X84403883Y-71222112D01*
X84340700Y-71328370D01*
X84277517Y-71222112D01*
X84080993Y-71003746D01*
X83845644Y-70827916D01*
X83580514Y-70701378D01*
X83429726Y-70655642D01*
X83197700Y-70776783D01*
X82943700Y-70776783D01*
X82711674Y-70655642D01*
X82560886Y-70701378D01*
X82295756Y-70827916D01*
X82060407Y-71003746D01*
X81863883Y-71222112D01*
X81806563Y-71318510D01*
X81782769Y-71273994D01*
X81595497Y-71045803D01*
X81367306Y-70858531D01*
X81106964Y-70719375D01*
X80824477Y-70633684D01*
X80604319Y-70612000D01*
X80457081Y-70612000D01*
X80236923Y-70633684D01*
X80235180Y-70634213D01*
X79847846Y-70246879D01*
X79821691Y-70215009D01*
X79694546Y-70110664D01*
X79549487Y-70033128D01*
X79392089Y-69985382D01*
X79269419Y-69973300D01*
X79269418Y-69973300D01*
X79228400Y-69969260D01*
X79187382Y-69973300D01*
X72445618Y-69973300D01*
X72404600Y-69969260D01*
X72240911Y-69985382D01*
X72083513Y-70033128D01*
X71938454Y-70110664D01*
X71878421Y-70159932D01*
X71811309Y-70215009D01*
X71785163Y-70246869D01*
X71185277Y-70846756D01*
X70946964Y-70719375D01*
X70664477Y-70633684D01*
X70444319Y-70612000D01*
X70297081Y-70612000D01*
X70076923Y-70633684D01*
X69794436Y-70719375D01*
X69534094Y-70858531D01*
X69305903Y-71045803D01*
X69118631Y-71273994D01*
X68979475Y-71534336D01*
X68893784Y-71816823D01*
X68864849Y-72110600D01*
X68893784Y-72404377D01*
X68979475Y-72686864D01*
X69118631Y-72947206D01*
X69305903Y-73175397D01*
X69313965Y-73182014D01*
X69262920Y-73197498D01*
X69152606Y-73256463D01*
X69055915Y-73335815D01*
X68976563Y-73432506D01*
X68917598Y-73542820D01*
X68881288Y-73662518D01*
X68869028Y-73787000D01*
X68869028Y-74987481D01*
X68867160Y-74986202D01*
X68858439Y-74981487D01*
X68420744Y-74748760D01*
X68361262Y-74724243D01*
X68302102Y-74698887D01*
X68292632Y-74695956D01*
X67818067Y-74552677D01*
X67754969Y-74540184D01*
X67691998Y-74526799D01*
X67682139Y-74525763D01*
X67188784Y-74477389D01*
X66764716Y-74435809D01*
X66423437Y-74332771D01*
X66108675Y-74165409D01*
X65832417Y-73940097D01*
X65605183Y-73665418D01*
X65435631Y-73351838D01*
X65330213Y-73011288D01*
X65289500Y-72623928D01*
X65289500Y-62264720D01*
X65295268Y-62205891D01*
X106826519Y-62205891D01*
X106923843Y-62480252D01*
X107072822Y-62730355D01*
X107267731Y-62946588D01*
X107501080Y-63120641D01*
X107763901Y-63245825D01*
X107911110Y-63290476D01*
X108141000Y-63169155D01*
X108141000Y-61976000D01*
X106947186Y-61976000D01*
X106826519Y-62205891D01*
X65295268Y-62205891D01*
X65327691Y-61875215D01*
X65430728Y-61533940D01*
X65598090Y-61219178D01*
X65823403Y-60942917D01*
X66098082Y-60715683D01*
X66411664Y-60546130D01*
X66752208Y-60440714D01*
X67139572Y-60400000D01*
X108140998Y-60400000D01*
X108140998Y-60528844D01*
G36*
X75550555Y-77341890D02*
G01*
X75721535Y-77375900D01*
X75895865Y-77375900D01*
X76066845Y-77341890D01*
X76105448Y-77325900D01*
X76243204Y-77325900D01*
X76061363Y-77507741D01*
X75927308Y-77708369D01*
X75912671Y-77680986D01*
X75668702Y-77609403D01*
X74855605Y-78422500D01*
X74869748Y-78436643D01*
X74690143Y-78616248D01*
X74676000Y-78602105D01*
X74661858Y-78616248D01*
X74482253Y-78436643D01*
X74496395Y-78422500D01*
X74482253Y-78408358D01*
X74661858Y-78228753D01*
X74676000Y-78242895D01*
X75489097Y-77429798D01*
X75451233Y-77300750D01*
X75550555Y-77341890D01*
X75550555Y-77341890D01*
G37*
X75550555Y-77341890D02*
X75721535Y-77375900D01*
X75895865Y-77375900D01*
X76066845Y-77341890D01*
X76105448Y-77325900D01*
X76243204Y-77325900D01*
X76061363Y-77507741D01*
X75927308Y-77708369D01*
X75912671Y-77680986D01*
X75668702Y-77609403D01*
X74855605Y-78422500D01*
X74869748Y-78436643D01*
X74690143Y-78616248D01*
X74676000Y-78602105D01*
X74661858Y-78616248D01*
X74482253Y-78436643D01*
X74496395Y-78422500D01*
X74482253Y-78408358D01*
X74661858Y-78228753D01*
X74676000Y-78242895D01*
X75489097Y-77429798D01*
X75451233Y-77300750D01*
X75550555Y-77341890D01*
G36*
X128032843Y-57923188D02*
G01*
X128205919Y-58134081D01*
X128416812Y-58307157D01*
X128627927Y-58420000D01*
X128416812Y-58532843D01*
X128205919Y-58705919D01*
X128032843Y-58916812D01*
X127904236Y-59157419D01*
X127825040Y-59418493D01*
X127798299Y-59690000D01*
X127825040Y-59961507D01*
X127904236Y-60222581D01*
X128032843Y-60463188D01*
X128205919Y-60674081D01*
X128416812Y-60847157D01*
X128627927Y-60960000D01*
X128416812Y-61072843D01*
X128205919Y-61245919D01*
X128032843Y-61456812D01*
X127904236Y-61697419D01*
X127825040Y-61958493D01*
X127798299Y-62230000D01*
X127825040Y-62501507D01*
X127904236Y-62762581D01*
X128032843Y-63003188D01*
X128205919Y-63214081D01*
X128416812Y-63387157D01*
X128627927Y-63500000D01*
X128416812Y-63612843D01*
X128205919Y-63785919D01*
X128032843Y-63996812D01*
X127904236Y-64237419D01*
X127825040Y-64498493D01*
X127798299Y-64770000D01*
X127825040Y-65041507D01*
X127904236Y-65302581D01*
X128032843Y-65543188D01*
X128205919Y-65754081D01*
X128416812Y-65927157D01*
X128627927Y-66040000D01*
X128416812Y-66152843D01*
X128205919Y-66325919D01*
X128032843Y-66536812D01*
X127904236Y-66777419D01*
X127825040Y-67038493D01*
X127798299Y-67310000D01*
X127825040Y-67581507D01*
X127904236Y-67842581D01*
X128032843Y-68083188D01*
X128205919Y-68294081D01*
X128416812Y-68467157D01*
X128627927Y-68580000D01*
X128416812Y-68692843D01*
X128205919Y-68865919D01*
X128032843Y-69076812D01*
X127904236Y-69317419D01*
X127825040Y-69578493D01*
X127798299Y-69850000D01*
X127825040Y-70121507D01*
X127904236Y-70382581D01*
X128032843Y-70623188D01*
X128205919Y-70834081D01*
X128416812Y-71007157D01*
X128627927Y-71120000D01*
X128416812Y-71232843D01*
X128205919Y-71405919D01*
X128032843Y-71616812D01*
X127904236Y-71857419D01*
X127825040Y-72118493D01*
X127798299Y-72390000D01*
X127825040Y-72661507D01*
X127904236Y-72922581D01*
X127950841Y-73009772D01*
X127360745Y-72419678D01*
X127334591Y-72387809D01*
X127254948Y-72322448D01*
X127288637Y-72288759D01*
X127445680Y-72053727D01*
X127553853Y-71792574D01*
X127609000Y-71515335D01*
X127609000Y-71232665D01*
X127553853Y-70955426D01*
X127445680Y-70694273D01*
X127288637Y-70459241D01*
X127088759Y-70259363D01*
X126853727Y-70102320D01*
X126592574Y-69994147D01*
X126315335Y-69939000D01*
X126032665Y-69939000D01*
X125755426Y-69994147D01*
X125494273Y-70102320D01*
X125259241Y-70259363D01*
X125059363Y-70459241D01*
X124902320Y-70694273D01*
X124794147Y-70955426D01*
X124739000Y-71232665D01*
X124739000Y-71515335D01*
X124794147Y-71792574D01*
X124902320Y-72053727D01*
X124964042Y-72146100D01*
X123363718Y-72146100D01*
X123322700Y-72142060D01*
X123281682Y-72146100D01*
X123281681Y-72146100D01*
X123159011Y-72158182D01*
X123029545Y-72197455D01*
X123001613Y-72205928D01*
X122856554Y-72283464D01*
X122807016Y-72324119D01*
X122729409Y-72387809D01*
X122703263Y-72419668D01*
X120366033Y-74756900D01*
X119937866Y-74756900D01*
X119989000Y-74499835D01*
X119989000Y-74217165D01*
X119970286Y-74123083D01*
X120317932Y-73775437D01*
X120349791Y-73749291D01*
X120386182Y-73704949D01*
X120454136Y-73622146D01*
X120531672Y-73477087D01*
X120579418Y-73319689D01*
X120589934Y-73212918D01*
X120591500Y-73197019D01*
X120595540Y-73156000D01*
X120591500Y-73114982D01*
X120591500Y-68389500D01*
X124732057Y-68389500D01*
X124759764Y-68670809D01*
X124841818Y-68941308D01*
X124975068Y-69190601D01*
X125154392Y-69409108D01*
X125372899Y-69588432D01*
X125622192Y-69721682D01*
X125892691Y-69803736D01*
X126103508Y-69824500D01*
X126244492Y-69824500D01*
X126455309Y-69803736D01*
X126725808Y-69721682D01*
X126975101Y-69588432D01*
X127193608Y-69409108D01*
X127372932Y-69190601D01*
X127506182Y-68941308D01*
X127588236Y-68670809D01*
X127615943Y-68389500D01*
X127588236Y-68108191D01*
X127506182Y-67837692D01*
X127372932Y-67588399D01*
X127193608Y-67369892D01*
X126975101Y-67190568D01*
X126725808Y-67057318D01*
X126455309Y-66975264D01*
X126244492Y-66954500D01*
X126103508Y-66954500D01*
X125892691Y-66975264D01*
X125622192Y-67057318D01*
X125372899Y-67190568D01*
X125154392Y-67369892D01*
X124975068Y-67588399D01*
X124841818Y-67837692D01*
X124759764Y-68108191D01*
X124732057Y-68389500D01*
X120591500Y-68389500D01*
X120591500Y-65263665D01*
X124739000Y-65263665D01*
X124739000Y-65546335D01*
X124794147Y-65823574D01*
X124902320Y-66084727D01*
X125059363Y-66319759D01*
X125259241Y-66519637D01*
X125494273Y-66676680D01*
X125755426Y-66784853D01*
X126032665Y-66840000D01*
X126315335Y-66840000D01*
X126592574Y-66784853D01*
X126853727Y-66676680D01*
X127088759Y-66519637D01*
X127288637Y-66319759D01*
X127445680Y-66084727D01*
X127553853Y-65823574D01*
X127609000Y-65546335D01*
X127609000Y-65263665D01*
X127553853Y-64986426D01*
X127445680Y-64725273D01*
X127288637Y-64490241D01*
X127088759Y-64290363D01*
X126853727Y-64133320D01*
X126592574Y-64025147D01*
X126315335Y-63970000D01*
X126032665Y-63970000D01*
X125755426Y-64025147D01*
X125494273Y-64133320D01*
X125259241Y-64290363D01*
X125059363Y-64490241D01*
X124902320Y-64725273D01*
X124794147Y-64986426D01*
X124739000Y-65263665D01*
X120591500Y-65263665D01*
X120591500Y-63255500D01*
X122132482Y-63255500D01*
X122173500Y-63259540D01*
X122214518Y-63255500D01*
X122214519Y-63255500D01*
X122337189Y-63243418D01*
X122494587Y-63195672D01*
X122639646Y-63118136D01*
X122766791Y-63013791D01*
X122792946Y-62981921D01*
X123354367Y-62420500D01*
X124732057Y-62420500D01*
X124759764Y-62701809D01*
X124841818Y-62972308D01*
X124975068Y-63221601D01*
X125154392Y-63440108D01*
X125372899Y-63619432D01*
X125622192Y-63752682D01*
X125892691Y-63834736D01*
X126103508Y-63855500D01*
X126244492Y-63855500D01*
X126455309Y-63834736D01*
X126725808Y-63752682D01*
X126975101Y-63619432D01*
X127193608Y-63440108D01*
X127372932Y-63221601D01*
X127506182Y-62972308D01*
X127588236Y-62701809D01*
X127615943Y-62420500D01*
X127588236Y-62139191D01*
X127506182Y-61868692D01*
X127372932Y-61619399D01*
X127193608Y-61400892D01*
X126975101Y-61221568D01*
X126725808Y-61088318D01*
X126455309Y-61006264D01*
X126244492Y-60985500D01*
X126103508Y-60985500D01*
X125892691Y-61006264D01*
X125622192Y-61088318D01*
X125372899Y-61221568D01*
X125154392Y-61400892D01*
X124975068Y-61619399D01*
X124841818Y-61868692D01*
X124759764Y-62139191D01*
X124732057Y-62420500D01*
X123354367Y-62420500D01*
X125947783Y-59827085D01*
X126405619Y-59827160D01*
X126430396Y-59824724D01*
X126454222Y-59817501D01*
X126476180Y-59805768D01*
X126495428Y-59789977D01*
X126511225Y-59770735D01*
X126522965Y-59748780D01*
X126530196Y-59724957D01*
X126532640Y-59700446D01*
X126533674Y-59241194D01*
X127969739Y-57805129D01*
X128032843Y-57923188D01*
X128032843Y-57923188D01*
G37*
X128032843Y-57923188D02*
X128205919Y-58134081D01*
X128416812Y-58307157D01*
X128627927Y-58420000D01*
X128416812Y-58532843D01*
X128205919Y-58705919D01*
X128032843Y-58916812D01*
X127904236Y-59157419D01*
X127825040Y-59418493D01*
X127798299Y-59690000D01*
X127825040Y-59961507D01*
X127904236Y-60222581D01*
X128032843Y-60463188D01*
X128205919Y-60674081D01*
X128416812Y-60847157D01*
X128627927Y-60960000D01*
X128416812Y-61072843D01*
X128205919Y-61245919D01*
X128032843Y-61456812D01*
X127904236Y-61697419D01*
X127825040Y-61958493D01*
X127798299Y-62230000D01*
X127825040Y-62501507D01*
X127904236Y-62762581D01*
X128032843Y-63003188D01*
X128205919Y-63214081D01*
X128416812Y-63387157D01*
X128627927Y-63500000D01*
X128416812Y-63612843D01*
X128205919Y-63785919D01*
X128032843Y-63996812D01*
X127904236Y-64237419D01*
X127825040Y-64498493D01*
X127798299Y-64770000D01*
X127825040Y-65041507D01*
X127904236Y-65302581D01*
X128032843Y-65543188D01*
X128205919Y-65754081D01*
X128416812Y-65927157D01*
X128627927Y-66040000D01*
X128416812Y-66152843D01*
X128205919Y-66325919D01*
X128032843Y-66536812D01*
X127904236Y-66777419D01*
X127825040Y-67038493D01*
X127798299Y-67310000D01*
X127825040Y-67581507D01*
X127904236Y-67842581D01*
X128032843Y-68083188D01*
X128205919Y-68294081D01*
X128416812Y-68467157D01*
X128627927Y-68580000D01*
X128416812Y-68692843D01*
X128205919Y-68865919D01*
X128032843Y-69076812D01*
X127904236Y-69317419D01*
X127825040Y-69578493D01*
X127798299Y-69850000D01*
X127825040Y-70121507D01*
X127904236Y-70382581D01*
X128032843Y-70623188D01*
X128205919Y-70834081D01*
X128416812Y-71007157D01*
X128627927Y-71120000D01*
X128416812Y-71232843D01*
X128205919Y-71405919D01*
X128032843Y-71616812D01*
X127904236Y-71857419D01*
X127825040Y-72118493D01*
X127798299Y-72390000D01*
X127825040Y-72661507D01*
X127904236Y-72922581D01*
X127950841Y-73009772D01*
X127360745Y-72419678D01*
X127334591Y-72387809D01*
X127254948Y-72322448D01*
X127288637Y-72288759D01*
X127445680Y-72053727D01*
X127553853Y-71792574D01*
X127609000Y-71515335D01*
X127609000Y-71232665D01*
X127553853Y-70955426D01*
X127445680Y-70694273D01*
X127288637Y-70459241D01*
X127088759Y-70259363D01*
X126853727Y-70102320D01*
X126592574Y-69994147D01*
X126315335Y-69939000D01*
X126032665Y-69939000D01*
X125755426Y-69994147D01*
X125494273Y-70102320D01*
X125259241Y-70259363D01*
X125059363Y-70459241D01*
X124902320Y-70694273D01*
X124794147Y-70955426D01*
X124739000Y-71232665D01*
X124739000Y-71515335D01*
X124794147Y-71792574D01*
X124902320Y-72053727D01*
X124964042Y-72146100D01*
X123363718Y-72146100D01*
X123322700Y-72142060D01*
X123281682Y-72146100D01*
X123281681Y-72146100D01*
X123159011Y-72158182D01*
X123029545Y-72197455D01*
X123001613Y-72205928D01*
X122856554Y-72283464D01*
X122807016Y-72324119D01*
X122729409Y-72387809D01*
X122703263Y-72419668D01*
X120366033Y-74756900D01*
X119937866Y-74756900D01*
X119989000Y-74499835D01*
X119989000Y-74217165D01*
X119970286Y-74123083D01*
X120317932Y-73775437D01*
X120349791Y-73749291D01*
X120386182Y-73704949D01*
X120454136Y-73622146D01*
X120531672Y-73477087D01*
X120579418Y-73319689D01*
X120589934Y-73212918D01*
X120591500Y-73197019D01*
X120595540Y-73156000D01*
X120591500Y-73114982D01*
X120591500Y-68389500D01*
X124732057Y-68389500D01*
X124759764Y-68670809D01*
X124841818Y-68941308D01*
X124975068Y-69190601D01*
X125154392Y-69409108D01*
X125372899Y-69588432D01*
X125622192Y-69721682D01*
X125892691Y-69803736D01*
X126103508Y-69824500D01*
X126244492Y-69824500D01*
X126455309Y-69803736D01*
X126725808Y-69721682D01*
X126975101Y-69588432D01*
X127193608Y-69409108D01*
X127372932Y-69190601D01*
X127506182Y-68941308D01*
X127588236Y-68670809D01*
X127615943Y-68389500D01*
X127588236Y-68108191D01*
X127506182Y-67837692D01*
X127372932Y-67588399D01*
X127193608Y-67369892D01*
X126975101Y-67190568D01*
X126725808Y-67057318D01*
X126455309Y-66975264D01*
X126244492Y-66954500D01*
X126103508Y-66954500D01*
X125892691Y-66975264D01*
X125622192Y-67057318D01*
X125372899Y-67190568D01*
X125154392Y-67369892D01*
X124975068Y-67588399D01*
X124841818Y-67837692D01*
X124759764Y-68108191D01*
X124732057Y-68389500D01*
X120591500Y-68389500D01*
X120591500Y-65263665D01*
X124739000Y-65263665D01*
X124739000Y-65546335D01*
X124794147Y-65823574D01*
X124902320Y-66084727D01*
X125059363Y-66319759D01*
X125259241Y-66519637D01*
X125494273Y-66676680D01*
X125755426Y-66784853D01*
X126032665Y-66840000D01*
X126315335Y-66840000D01*
X126592574Y-66784853D01*
X126853727Y-66676680D01*
X127088759Y-66519637D01*
X127288637Y-66319759D01*
X127445680Y-66084727D01*
X127553853Y-65823574D01*
X127609000Y-65546335D01*
X127609000Y-65263665D01*
X127553853Y-64986426D01*
X127445680Y-64725273D01*
X127288637Y-64490241D01*
X127088759Y-64290363D01*
X126853727Y-64133320D01*
X126592574Y-64025147D01*
X126315335Y-63970000D01*
X126032665Y-63970000D01*
X125755426Y-64025147D01*
X125494273Y-64133320D01*
X125259241Y-64290363D01*
X125059363Y-64490241D01*
X124902320Y-64725273D01*
X124794147Y-64986426D01*
X124739000Y-65263665D01*
X120591500Y-65263665D01*
X120591500Y-63255500D01*
X122132482Y-63255500D01*
X122173500Y-63259540D01*
X122214518Y-63255500D01*
X122214519Y-63255500D01*
X122337189Y-63243418D01*
X122494587Y-63195672D01*
X122639646Y-63118136D01*
X122766791Y-63013791D01*
X122792946Y-62981921D01*
X123354367Y-62420500D01*
X124732057Y-62420500D01*
X124759764Y-62701809D01*
X124841818Y-62972308D01*
X124975068Y-63221601D01*
X125154392Y-63440108D01*
X125372899Y-63619432D01*
X125622192Y-63752682D01*
X125892691Y-63834736D01*
X126103508Y-63855500D01*
X126244492Y-63855500D01*
X126455309Y-63834736D01*
X126725808Y-63752682D01*
X126975101Y-63619432D01*
X127193608Y-63440108D01*
X127372932Y-63221601D01*
X127506182Y-62972308D01*
X127588236Y-62701809D01*
X127615943Y-62420500D01*
X127588236Y-62139191D01*
X127506182Y-61868692D01*
X127372932Y-61619399D01*
X127193608Y-61400892D01*
X126975101Y-61221568D01*
X126725808Y-61088318D01*
X126455309Y-61006264D01*
X126244492Y-60985500D01*
X126103508Y-60985500D01*
X125892691Y-61006264D01*
X125622192Y-61088318D01*
X125372899Y-61221568D01*
X125154392Y-61400892D01*
X124975068Y-61619399D01*
X124841818Y-61868692D01*
X124759764Y-62139191D01*
X124732057Y-62420500D01*
X123354367Y-62420500D01*
X125947783Y-59827085D01*
X126405619Y-59827160D01*
X126430396Y-59824724D01*
X126454222Y-59817501D01*
X126476180Y-59805768D01*
X126495428Y-59789977D01*
X126511225Y-59770735D01*
X126522965Y-59748780D01*
X126530196Y-59724957D01*
X126532640Y-59700446D01*
X126533674Y-59241194D01*
X127969739Y-57805129D01*
X128032843Y-57923188D01*
G36*
X121827633Y-61585500D02*
G01*
X119797518Y-61585500D01*
X119756500Y-61581460D01*
X119721532Y-61584904D01*
X119668637Y-61505741D01*
X119468759Y-61305863D01*
X119233727Y-61148820D01*
X118972574Y-61040647D01*
X118695335Y-60985500D01*
X118412665Y-60985500D01*
X118135426Y-61040647D01*
X117874273Y-61148820D01*
X117639241Y-61305863D01*
X117439363Y-61505741D01*
X117282320Y-61740773D01*
X117174147Y-62001926D01*
X117119000Y-62279165D01*
X117119000Y-62561835D01*
X117174147Y-62839074D01*
X117282320Y-63100227D01*
X117439363Y-63335259D01*
X117639241Y-63535137D01*
X117874273Y-63692180D01*
X118135426Y-63800353D01*
X118412665Y-63855500D01*
X118695335Y-63855500D01*
X118921500Y-63810512D01*
X118921500Y-64016909D01*
X118835309Y-63990764D01*
X118624492Y-63970000D01*
X118483508Y-63970000D01*
X118272691Y-63990764D01*
X118002192Y-64072818D01*
X117752899Y-64206068D01*
X117534392Y-64385392D01*
X117355068Y-64603899D01*
X117221818Y-64853192D01*
X117139764Y-65123691D01*
X117112057Y-65405000D01*
X117139764Y-65686309D01*
X117221818Y-65956808D01*
X117355068Y-66206101D01*
X117534392Y-66424608D01*
X117545065Y-66433367D01*
X116792274Y-67186159D01*
X116760410Y-67212309D01*
X116680237Y-67310000D01*
X116656064Y-67339455D01*
X116578528Y-67484514D01*
X116530782Y-67641912D01*
X116514660Y-67805600D01*
X116518701Y-67846628D01*
X116518701Y-68009741D01*
X116462608Y-67941392D01*
X116244101Y-67762068D01*
X115994808Y-67628818D01*
X115724309Y-67546764D01*
X115513492Y-67526000D01*
X115372508Y-67526000D01*
X115161691Y-67546764D01*
X114891192Y-67628818D01*
X114641899Y-67762068D01*
X114423392Y-67941392D01*
X114244068Y-68159899D01*
X114110818Y-68409192D01*
X114028764Y-68679691D01*
X114001057Y-68961000D01*
X114027320Y-69227652D01*
X112627746Y-67828079D01*
X112601591Y-67796209D01*
X112474446Y-67691864D01*
X112329387Y-67614328D01*
X112246027Y-67589041D01*
X112233812Y-67465018D01*
X112197502Y-67345320D01*
X112138537Y-67235006D01*
X112059185Y-67138315D01*
X111962494Y-67058963D01*
X111852180Y-66999998D01*
X111732482Y-66963688D01*
X111608000Y-66951428D01*
X111147639Y-66951428D01*
X114722769Y-63376300D01*
X115401982Y-63376300D01*
X115443000Y-63380340D01*
X115606689Y-63364218D01*
X115764087Y-63316472D01*
X115909146Y-63238936D01*
X116036291Y-63134591D01*
X116140636Y-63007446D01*
X116218172Y-62862387D01*
X116243459Y-62779027D01*
X116367482Y-62766812D01*
X116487180Y-62730502D01*
X116597494Y-62671537D01*
X116694185Y-62592185D01*
X116773537Y-62495494D01*
X116832502Y-62385180D01*
X116868812Y-62265482D01*
X116881072Y-62141000D01*
X116881072Y-60541000D01*
X116868812Y-60416518D01*
X116863801Y-60400000D01*
X121396077Y-60400000D01*
X121422005Y-60397446D01*
X122155301Y-60343596D01*
X122171840Y-60340888D01*
X122188599Y-60340361D01*
X122269048Y-60325886D01*
X123147258Y-60115047D01*
X123168431Y-60107922D01*
X123190282Y-60103277D01*
X123266877Y-60074791D01*
X123266895Y-60074785D01*
X123266900Y-60074782D01*
X123394255Y-60018877D01*
X121827633Y-61585500D01*
X121827633Y-61585500D01*
G37*
X121827633Y-61585500D02*
X119797518Y-61585500D01*
X119756500Y-61581460D01*
X119721532Y-61584904D01*
X119668637Y-61505741D01*
X119468759Y-61305863D01*
X119233727Y-61148820D01*
X118972574Y-61040647D01*
X118695335Y-60985500D01*
X118412665Y-60985500D01*
X118135426Y-61040647D01*
X117874273Y-61148820D01*
X117639241Y-61305863D01*
X117439363Y-61505741D01*
X117282320Y-61740773D01*
X117174147Y-62001926D01*
X117119000Y-62279165D01*
X117119000Y-62561835D01*
X117174147Y-62839074D01*
X117282320Y-63100227D01*
X117439363Y-63335259D01*
X117639241Y-63535137D01*
X117874273Y-63692180D01*
X118135426Y-63800353D01*
X118412665Y-63855500D01*
X118695335Y-63855500D01*
X118921500Y-63810512D01*
X118921500Y-64016909D01*
X118835309Y-63990764D01*
X118624492Y-63970000D01*
X118483508Y-63970000D01*
X118272691Y-63990764D01*
X118002192Y-64072818D01*
X117752899Y-64206068D01*
X117534392Y-64385392D01*
X117355068Y-64603899D01*
X117221818Y-64853192D01*
X117139764Y-65123691D01*
X117112057Y-65405000D01*
X117139764Y-65686309D01*
X117221818Y-65956808D01*
X117355068Y-66206101D01*
X117534392Y-66424608D01*
X117545065Y-66433367D01*
X116792274Y-67186159D01*
X116760410Y-67212309D01*
X116680237Y-67310000D01*
X116656064Y-67339455D01*
X116578528Y-67484514D01*
X116530782Y-67641912D01*
X116514660Y-67805600D01*
X116518701Y-67846628D01*
X116518701Y-68009741D01*
X116462608Y-67941392D01*
X116244101Y-67762068D01*
X115994808Y-67628818D01*
X115724309Y-67546764D01*
X115513492Y-67526000D01*
X115372508Y-67526000D01*
X115161691Y-67546764D01*
X114891192Y-67628818D01*
X114641899Y-67762068D01*
X114423392Y-67941392D01*
X114244068Y-68159899D01*
X114110818Y-68409192D01*
X114028764Y-68679691D01*
X114001057Y-68961000D01*
X114027320Y-69227652D01*
X112627746Y-67828079D01*
X112601591Y-67796209D01*
X112474446Y-67691864D01*
X112329387Y-67614328D01*
X112246027Y-67589041D01*
X112233812Y-67465018D01*
X112197502Y-67345320D01*
X112138537Y-67235006D01*
X112059185Y-67138315D01*
X111962494Y-67058963D01*
X111852180Y-66999998D01*
X111732482Y-66963688D01*
X111608000Y-66951428D01*
X111147639Y-66951428D01*
X114722769Y-63376300D01*
X115401982Y-63376300D01*
X115443000Y-63380340D01*
X115606689Y-63364218D01*
X115764087Y-63316472D01*
X115909146Y-63238936D01*
X116036291Y-63134591D01*
X116140636Y-63007446D01*
X116218172Y-62862387D01*
X116243459Y-62779027D01*
X116367482Y-62766812D01*
X116487180Y-62730502D01*
X116597494Y-62671537D01*
X116694185Y-62592185D01*
X116773537Y-62495494D01*
X116832502Y-62385180D01*
X116868812Y-62265482D01*
X116881072Y-62141000D01*
X116881072Y-60541000D01*
X116868812Y-60416518D01*
X116863801Y-60400000D01*
X121396077Y-60400000D01*
X121422005Y-60397446D01*
X122155301Y-60343596D01*
X122171840Y-60340888D01*
X122188599Y-60340361D01*
X122269048Y-60325886D01*
X123147258Y-60115047D01*
X123168431Y-60107922D01*
X123190282Y-60103277D01*
X123266877Y-60074791D01*
X123266895Y-60074785D01*
X123266900Y-60074782D01*
X123394255Y-60018877D01*
X121827633Y-61585500D01*
G36*
X143645000Y-43057463D02*
G01*
X143645000Y-43302537D01*
X143445919Y-43465919D01*
X143272843Y-43676812D01*
X143144236Y-43917419D01*
X143065040Y-44178493D01*
X143038299Y-44450000D01*
X143065040Y-44721507D01*
X143144236Y-44982581D01*
X143272843Y-45223188D01*
X143445919Y-45434081D01*
X143656812Y-45607157D01*
X143867927Y-45720000D01*
X143656812Y-45832843D01*
X143445919Y-46005919D01*
X143272843Y-46216812D01*
X143144236Y-46457419D01*
X143065040Y-46718493D01*
X143038299Y-46990000D01*
X143065040Y-47261507D01*
X143144236Y-47522581D01*
X143257691Y-47734840D01*
X135947533Y-55045000D01*
X133499865Y-55045000D01*
X133543513Y-54901111D01*
X133572185Y-54610000D01*
X133543513Y-54318889D01*
X133458599Y-54038966D01*
X133320706Y-53780986D01*
X133135134Y-53554866D01*
X132909014Y-53369294D01*
X132854209Y-53340000D01*
X132909014Y-53310706D01*
X133135134Y-53125134D01*
X133320706Y-52899014D01*
X133458599Y-52641034D01*
X133543513Y-52361111D01*
X133572185Y-52070000D01*
X133543513Y-51778889D01*
X133458599Y-51498966D01*
X133320706Y-51240986D01*
X133135134Y-51014866D01*
X132909014Y-50829294D01*
X132854209Y-50800000D01*
X132909014Y-50770706D01*
X133135134Y-50585134D01*
X133320706Y-50359014D01*
X133458599Y-50101034D01*
X133543513Y-49821111D01*
X133572185Y-49530000D01*
X133543513Y-49238889D01*
X133458599Y-48958966D01*
X133320706Y-48700986D01*
X133135134Y-48474866D01*
X133105313Y-48450393D01*
X133174180Y-48429502D01*
X133284494Y-48370537D01*
X133381185Y-48291185D01*
X133460537Y-48194494D01*
X133519502Y-48084180D01*
X133555812Y-47964482D01*
X133568072Y-47840000D01*
X133568072Y-46140000D01*
X133555812Y-46015518D01*
X133519502Y-45895820D01*
X133460537Y-45785506D01*
X133381185Y-45688815D01*
X133284494Y-45609463D01*
X133174180Y-45550498D01*
X133054482Y-45514188D01*
X132930000Y-45501928D01*
X131230000Y-45501928D01*
X131105518Y-45514188D01*
X130985820Y-45550498D01*
X130875506Y-45609463D01*
X130778815Y-45688815D01*
X130699463Y-45785506D01*
X130670815Y-45839102D01*
X130663188Y-45832843D01*
X130452073Y-45720000D01*
X130663188Y-45607157D01*
X130874081Y-45434081D01*
X131047157Y-45223188D01*
X131175764Y-44982581D01*
X131254960Y-44721507D01*
X131281701Y-44450000D01*
X131254960Y-44178493D01*
X131175764Y-43917419D01*
X131047157Y-43676812D01*
X130874081Y-43465919D01*
X130663188Y-43292843D01*
X130452073Y-43180000D01*
X130663188Y-43067157D01*
X130690186Y-43045000D01*
X143629814Y-43045000D01*
X143645000Y-43057463D01*
X143645000Y-43057463D01*
G37*
X143645000Y-43057463D02*
X143645000Y-43302537D01*
X143445919Y-43465919D01*
X143272843Y-43676812D01*
X143144236Y-43917419D01*
X143065040Y-44178493D01*
X143038299Y-44450000D01*
X143065040Y-44721507D01*
X143144236Y-44982581D01*
X143272843Y-45223188D01*
X143445919Y-45434081D01*
X143656812Y-45607157D01*
X143867927Y-45720000D01*
X143656812Y-45832843D01*
X143445919Y-46005919D01*
X143272843Y-46216812D01*
X143144236Y-46457419D01*
X143065040Y-46718493D01*
X143038299Y-46990000D01*
X143065040Y-47261507D01*
X143144236Y-47522581D01*
X143257691Y-47734840D01*
X135947533Y-55045000D01*
X133499865Y-55045000D01*
X133543513Y-54901111D01*
X133572185Y-54610000D01*
X133543513Y-54318889D01*
X133458599Y-54038966D01*
X133320706Y-53780986D01*
X133135134Y-53554866D01*
X132909014Y-53369294D01*
X132854209Y-53340000D01*
X132909014Y-53310706D01*
X133135134Y-53125134D01*
X133320706Y-52899014D01*
X133458599Y-52641034D01*
X133543513Y-52361111D01*
X133572185Y-52070000D01*
X133543513Y-51778889D01*
X133458599Y-51498966D01*
X133320706Y-51240986D01*
X133135134Y-51014866D01*
X132909014Y-50829294D01*
X132854209Y-50800000D01*
X132909014Y-50770706D01*
X133135134Y-50585134D01*
X133320706Y-50359014D01*
X133458599Y-50101034D01*
X133543513Y-49821111D01*
X133572185Y-49530000D01*
X133543513Y-49238889D01*
X133458599Y-48958966D01*
X133320706Y-48700986D01*
X133135134Y-48474866D01*
X133105313Y-48450393D01*
X133174180Y-48429502D01*
X133284494Y-48370537D01*
X133381185Y-48291185D01*
X133460537Y-48194494D01*
X133519502Y-48084180D01*
X133555812Y-47964482D01*
X133568072Y-47840000D01*
X133568072Y-46140000D01*
X133555812Y-46015518D01*
X133519502Y-45895820D01*
X133460537Y-45785506D01*
X133381185Y-45688815D01*
X133284494Y-45609463D01*
X133174180Y-45550498D01*
X133054482Y-45514188D01*
X132930000Y-45501928D01*
X131230000Y-45501928D01*
X131105518Y-45514188D01*
X130985820Y-45550498D01*
X130875506Y-45609463D01*
X130778815Y-45688815D01*
X130699463Y-45785506D01*
X130670815Y-45839102D01*
X130663188Y-45832843D01*
X130452073Y-45720000D01*
X130663188Y-45607157D01*
X130874081Y-45434081D01*
X131047157Y-45223188D01*
X131175764Y-44982581D01*
X131254960Y-44721507D01*
X131281701Y-44450000D01*
X131254960Y-44178493D01*
X131175764Y-43917419D01*
X131047157Y-43676812D01*
X130874081Y-43465919D01*
X130663188Y-43292843D01*
X130452073Y-43180000D01*
X130663188Y-43067157D01*
X130690186Y-43045000D01*
X143629814Y-43045000D01*
X143645000Y-43057463D01*
M02*
